<svg xmlns="http://www.w3.org/2000/svg" xmlns:xlink="http://www.w3.org/1999/xlink" width="500" zoomAndPan="magnify" viewBox="0 0 375 374.999991" height="500" preserveAspectRatio="xMidYMid meet" version="1.0"><defs><g/></defs><g fill="#CBD5E1" fill-opacity="1"><g transform="translate(65.261719, 223.124985)"><g><path d="M 35.515625 -51.71875 C 41.503906 -51.71875 46.191406 -49.378906 49.578125 -44.703125 C 52.972656 -40.023438 54.671875 -33.613281 54.671875 -25.46875 C 54.671875 -17.082031 52.921875 -10.585938 49.421875 -5.984375 C 45.929688 -1.390625 41.171875 0.90625 35.140625 0.90625 C 29.179688 0.90625 24.503906 -1.253906 21.109375 -5.578125 L 20.15625 -5.578125 L 17.84375 0 L 7.265625 0 L 7.265625 -70.65625 L 21.109375 -70.65625 L 21.109375 -54.21875 C 21.109375 -52.132812 20.929688 -48.789062 20.578125 -44.1875 L 21.109375 -44.1875 C 24.347656 -49.207031 29.148438 -51.71875 35.515625 -51.71875 Z M 31.0625 -40.640625 C 27.632812 -40.640625 25.132812 -39.585938 23.5625 -37.484375 C 21.988281 -35.378906 21.171875 -31.90625 21.109375 -27.0625 L 21.109375 -25.5625 C 21.109375 -20.113281 21.914062 -16.207031 23.53125 -13.84375 C 25.15625 -11.488281 27.726562 -10.3125 31.25 -10.3125 C 34.09375 -10.3125 36.351562 -11.617188 38.03125 -14.234375 C 39.707031 -16.859375 40.546875 -20.664062 40.546875 -25.65625 C 40.546875 -30.65625 39.695312 -34.398438 38 -36.890625 C 36.3125 -39.390625 34 -40.640625 31.0625 -40.640625 Z M 31.0625 -40.640625 "/></g></g></g><g fill="#CBD5E1" fill-opacity="1"><g transform="translate(124.105862, 223.124985)"><g><path d="M 35.609375 -51.71875 C 37.484375 -51.71875 39.039062 -51.582031 40.28125 -51.3125 L 39.234375 -38.328125 C 38.109375 -38.628906 36.742188 -38.78125 35.140625 -38.78125 C 30.722656 -38.78125 27.28125 -37.644531 24.8125 -35.375 C 22.34375 -33.101562 21.109375 -29.925781 21.109375 -25.84375 L 21.109375 0 L 7.265625 0 L 7.265625 -50.765625 L 17.75 -50.765625 L 19.796875 -42.234375 L 20.484375 -42.234375 C 22.054688 -45.078125 24.179688 -47.367188 26.859375 -49.109375 C 29.535156 -50.847656 32.453125 -51.71875 35.609375 -51.71875 Z M 35.609375 -51.71875 "/></g></g></g><g fill="#CBD5E1" fill-opacity="1"><g transform="translate(166.331982, 223.124985)"><g><path d="M 39.5 0 L 36.828125 -6.90625 L 36.46875 -6.90625 C 34.132812 -3.96875 31.734375 -1.929688 29.265625 -0.796875 C 26.796875 0.335938 23.582031 0.90625 19.625 0.90625 C 14.75 0.90625 10.910156 -0.484375 8.109375 -3.265625 C 5.304688 -6.054688 3.90625 -10.023438 3.90625 -15.171875 C 3.90625 -20.554688 5.789062 -24.523438 9.5625 -27.078125 C 13.332031 -29.640625 19.015625 -31.054688 26.609375 -31.328125 L 35.421875 -31.609375 L 35.421875 -33.828125 C 35.421875 -38.972656 32.785156 -41.546875 27.515625 -41.546875 C 23.460938 -41.546875 18.695312 -40.320312 13.21875 -37.875 L 8.625 -47.234375 C 14.46875 -50.285156 20.945312 -51.8125 28.0625 -51.8125 C 34.875 -51.8125 40.09375 -50.328125 43.71875 -47.359375 C 47.351562 -44.390625 49.171875 -39.878906 49.171875 -33.828125 L 49.171875 0 Z M 35.421875 -23.515625 L 30.0625 -23.34375 C 26.03125 -23.21875 23.03125 -22.488281 21.0625 -21.15625 C 19.101562 -19.820312 18.125 -17.796875 18.125 -15.078125 C 18.125 -11.171875 20.363281 -9.21875 24.84375 -9.21875 C 28.050781 -9.21875 30.613281 -10.140625 32.53125 -11.984375 C 34.457031 -13.835938 35.421875 -16.289062 35.421875 -19.34375 Z M 35.421875 -23.515625 "/></g></g></g><g fill="#CBD5E1" fill-opacity="1"><g transform="translate(222.497269, 223.124985)"><g><path d="M 6.671875 -63.890625 C 6.671875 -68.398438 9.1875 -70.65625 14.21875 -70.65625 C 19.238281 -70.65625 21.75 -68.398438 21.75 -63.890625 C 21.75 -61.742188 21.117188 -60.070312 19.859375 -58.875 C 18.609375 -57.675781 16.726562 -57.078125 14.21875 -57.078125 C 9.1875 -57.078125 6.671875 -59.347656 6.671875 -63.890625 Z M 21.109375 0 L 7.265625 0 L 7.265625 -50.765625 L 21.109375 -50.765625 Z M 21.109375 0 "/></g></g></g><g fill="#CBD5E1" fill-opacity="1"><g transform="translate(250.875044, 223.124985)"><g><path d="M 35.140625 0.90625 C 29.179688 0.90625 24.503906 -1.253906 21.109375 -5.578125 L 20.390625 -5.578125 C 20.867188 -1.347656 21.109375 1.097656 21.109375 1.765625 L 21.109375 22.34375 L 7.265625 22.34375 L 7.265625 -50.765625 L 18.53125 -50.765625 L 20.484375 -44.1875 L 21.109375 -44.1875 C 24.347656 -49.207031 29.148438 -51.71875 35.515625 -51.71875 C 41.503906 -51.71875 46.191406 -49.398438 49.578125 -44.765625 C 52.972656 -40.140625 54.671875 -33.707031 54.671875 -25.46875 C 54.671875 -20.050781 53.875 -15.34375 52.28125 -11.34375 C 50.695312 -7.351562 48.4375 -4.3125 45.5 -2.21875 C 42.5625 -0.132812 39.109375 0.90625 35.140625 0.90625 Z M 31.0625 -40.640625 C 27.632812 -40.640625 25.132812 -39.585938 23.5625 -37.484375 C 21.988281 -35.378906 21.171875 -31.90625 21.109375 -27.0625 L 21.109375 -25.5625 C 21.109375 -20.113281 21.914062 -16.207031 23.53125 -13.84375 C 25.15625 -11.488281 27.726562 -10.3125 31.25 -10.3125 C 37.445312 -10.3125 40.546875 -15.425781 40.546875 -25.65625 C 40.546875 -30.65625 39.78125 -34.398438 38.25 -36.890625 C 36.726562 -39.390625 34.332031 -40.640625 31.0625 -40.640625 Z M 31.0625 -40.640625 "/></g></g></g></svg>