<svg xmlns="http://www.w3.org/2000/svg" viewBox="161.906 41.047 1040.189 810.442"><path fill="#b5ffe3" d="M322.323 243.972h125.246s7.367-4.899-9.297-7.094c-16.664-2.194-11.928-14.813-15.963-12.618-4.034 2.195-7.907 9.461-15.086-.255-10.349-14.009-18.945-24.707-24.383-9.894-5.438 14.813-11.73 11.727-14.559 8.418-5.087-5.949-13.858-9.601-18.419 0s-11.591-1.521-16.664-2.109c-4.736-.549-4.034 13.167-11.402 14.813-7.367 1.646-14.033 0-13.858 3.566.177 3.566 12.807 5.173 14.385 5.173z" style="--darkreader-inline-fill:#413e37" class="colorB5E1FF svgShape"/><path fill="#e0fff3" d="M992.165 642.757c-9.99 51.098-26.352 103.634-49.724 154.757-.086.202-.179.395-.271.597l-.876.025-111.282 3.44-236.408 7.301-11.711.362-115.463 3.566-13.099.404c-.222-.134-.438-.269-.654-.404h-48.311a305.657 305.657 0 0 1-2.177-3.928c-15.51-28.463-32.499-69.913-33.77-120.86-1.005-40.138 11.1-79.384 20.567-124.569 5.673-27.05 10.404-56.229 10.817-89.007.136-10.834.394-21.104.777-30.827 5.211-134.326 32.907-166.003 66.812-175.844 15.14-4.391 32.475 4.231 51.167 19.068 4.083 3.247 8.227 6.779 12.433 10.548a425.19 425.19 0 0 1 10.317 9.546 635.838 635.838 0 0 1 7.153 6.906c2.96 2.893 5.939 5.846 8.93 8.832 48.885 48.785 102.525 107.537 148.999 78.871 17.335-10.699 24.625-29.372 32.173-49.937 3.472-9.446 6.993-19.287 11.569-28.934a145.809 145.809 0 0 1 4.545-8.832c2.621-4.668 5.575-9.252 8.979-13.668a97.714 97.714 0 0 1 10.336-11.448 98.326 98.326 0 0 1 8.387-7.066c46.369-34.822 109.765-17.487 151.86 21.322a159.024 159.024 0 0 1 16.78 18.059c7.536 9.513 14.331 20.439 20.351 32.593 33.763 68.158 43.118 175.072 20.794 289.127z" style="--darkreader-inline-fill:#2f2c28" class="colorE0F1FF svgShape"/><path fill="#ccffec" d="M996.889 681.667c-.419 65.338-23.28 98.806-54.448 115.847-.382.21-.765.421-1.147.622-9.078 4.811-18.84 8.268-28.941 10.741-7.215 1.766-14.603 3.028-22.041 3.928H466.43l-13.099.404c-.222-.134-.438-.269-.654-.404a64.39 64.39 0 0 1-5.673-3.928c-26.512-20.414-39.888-61.485-38.913-113.063.29-15.191 7.511-49.836 4.699-65.38-5.285-29.279-15.06-49.416-23.804-66.986-10.965-22.021-20.326-40.012-17.231-66.911 2.516-21.861 11.452-33.99 28.824-52.923 14.468-15.779 34.788-36.294 62.107-71.108 41.713-53.15 47.423-72.967 55.872-85.668 3.281-4.929 6.968-8.79 13.333-13.105 28.528-19.371 55.305-10.329 85.183 7.923 3.645 2.229 7.339 4.601 11.088 7.065 5.513 3.634 11.143 7.486 16.922 11.448 6.518 4.466 13.228 9.076 20.166 13.668a533.176 533.176 0 0 0 13.734 8.832c18.069 11.229 37.723 21.701 59.578 28.934a201.017 201.017 0 0 0 10.323 3.129c14.727 4.037 30.44 6.527 47.306 6.788.413.008.827.017 1.246.017 11.458.101 22.034-.942 31.821-2.826 2.072-.395 4.107-.833 6.105-1.304 48.817-11.473 77.345-43.587 98.874-54.429 10.502-5.291 19.34-5.526 28.047 4.164 9.176 10.203 10.879 26.436 9.084 46.488-4.669 52.435-33.24 130.962-14.517 195.871 11.39 39.499 27.449 62.974 35.312 93.254 3.011 11.559 4.818 24.109 4.726 38.912z" style="--darkreader-inline-fill:#37352e" class="colorCCE8FF svgShape"/><path fill="#1e9769" d="M509.915 508.082c-.132 0-.265-.025-.395-.078-.021-.009-2.148-.879-5.783-2.496a1.045 1.045 0 1 1 .849-1.909 225.138 225.138 0 0 0 5.724 2.47 1.045 1.045 0 0 1-.395 2.013z" style="--darkreader-inline-fill:#d5dfd7" class="color1E5C97 svgShape"/><path fill="#1e9769" d="M492.552 500.213c-.152 0-.306-.033-.453-.104a473.36 473.36 0 0 1-11.498-5.739 1.046 1.046 0 0 1 .959-1.858 467.355 467.355 0 0 0 11.447 5.713 1.045 1.045 0 0 1-.455 1.988zm-22.783-11.763c-.17 0-.344-.042-.504-.13a439.754 439.754 0 0 1-11.157-6.37 1.045 1.045 0 1 1 1.064-1.799 436.816 436.816 0 0 0 11.103 6.34 1.045 1.045 0 0 1-.506 1.959zm-22.055-13.052c-.192 0-.386-.053-.56-.163a350.896 350.896 0 0 1-10.719-7.092 1.043 1.043 0 0 1-.267-1.453 1.043 1.043 0 0 1 1.453-.267 347.34 347.34 0 0 0 10.655 7.049 1.044 1.044 0 0 1-.562 1.926zm-21.084-14.56a1.04 1.04 0 0 1-.629-.211 255.456 255.456 0 0 1-10.078-7.995 1.045 1.045 0 1 1 1.341-1.603 253.882 253.882 0 0 0 9.996 7.929 1.047 1.047 0 0 1-.63 1.88zm-19.613-16.469c-.258 0-.516-.095-.719-.286a170.078 170.078 0 0 1-9.027-9.195 1.045 1.045 0 1 1 1.547-1.404 168.89 168.89 0 0 0 8.917 9.082 1.045 1.045 0 0 1-.718 1.803zm-17.12-19.011c-.319 0-.635-.145-.84-.422-2.677-3.601-5.057-7.24-7.073-10.818a1.044 1.044 0 1 1 1.821-1.025c1.973 3.501 4.304 7.066 6.93 10.596a1.045 1.045 0 0 1-.838 1.669zm-12.378-22.3c-.428 0-.828-.264-.983-.689-1.524-4.2-2.593-8.431-3.179-12.577a1.045 1.045 0 0 1 2.07-.293c.565 4.002 1.6 8.092 3.075 12.156a1.046 1.046 0 0 1-.983 1.403zm-3.415-25.123a1.044 1.044 0 0 1-1.041-1.147 55.839 55.839 0 0 1 2.794-12.711 1.045 1.045 0 1 1 1.976.679 53.849 53.849 0 0 0-2.69 12.235 1.046 1.046 0 0 1-1.039.944zm8.196-24.02a1.046 1.046 0 0 1-.887-1.596c2.238-3.608 4.94-7.047 8.028-10.221a1.045 1.045 0 0 1 1.498 1.458c-2.984 3.065-5.591 6.385-7.751 9.865a1.04 1.04 0 0 1-.888.494zm17.618-18.332a1.046 1.046 0 0 1-.607-1.896c3.347-2.386 7.065-4.647 11.049-6.722a1.045 1.045 0 0 1 .965 1.854c-3.899 2.03-7.533 4.24-10.802 6.57a1.034 1.034 0 0 1-.605.194zm22.584-11.914a1.046 1.046 0 0 1-.382-2.019 159.713 159.713 0 0 1 12.182-4.191 1.046 1.046 0 0 1 .602 2.002 156.95 156.95 0 0 0-12.021 4.136 1.063 1.063 0 0 1-.381.072z" style="--darkreader-inline-fill:#485862" class="color1E5C97 svgShape"/><path fill="#1e9769" d="M446.954 316.231a1.046 1.046 0 0 1-.236-2.063 237.29 237.29 0 0 1 6.152-1.345 1.045 1.045 0 0 1 .421 2.047 237.36 237.36 0 0 0-6.099 1.334 1.08 1.08 0 0 1-.238.027z" style="--darkreader-inline-fill:#d5dfd7" class="color1E5C97 svgShape"/><path fill="#33ffb1" d="M1009.86 748.292a2.422 2.422 0 0 0-.465-.568l-4.296-4.111-2.902-2.778a2.818 2.818 0 0 0-3.253-.486 2.811 2.811 0 0 0-1.487 1.869l-2.365 9.677a2.817 2.817 0 0 0 .795 2.737 2.836 2.836 0 0 0 2.778.682l9.553-2.789a2.816 2.816 0 0 0 1.973-2.066 2.83 2.83 0 0 0-.331-2.167zm-1.849 1.631a.59.59 0 0 1-.423.434l-9.553 2.789a.581.581 0 0 1-.589-.134c-.031-.031-.062-.072-.103-.124a.633.633 0 0 1-.072-.465l2.365-9.667a.617.617 0 0 1 .423-.444c.103-.021.361-.072.589.145l7.188 6.889a.605.605 0 0 1 .175.577zM1013.075 352.622a2.422 2.422 0 0 0-.465-.568l-4.296-4.111-2.902-2.778a2.818 2.818 0 0 0-3.253-.486 2.811 2.811 0 0 0-1.487 1.869l-2.365 9.677a2.817 2.817 0 0 0 .795 2.737 2.836 2.836 0 0 0 2.778.682l9.553-2.788a2.816 2.816 0 0 0 1.973-2.066 2.829 2.829 0 0 0-.331-2.168zm-1.849 1.632a.59.59 0 0 1-.424.434l-9.553 2.789a.581.581 0 0 1-.589-.134c-.031-.031-.062-.072-.103-.124a.633.633 0 0 1-.072-.465l2.365-9.667a.617.617 0 0 1 .423-.444c.103-.021.361-.072.589.145l7.188 6.889a.604.604 0 0 1 .176.577z" style="--darkreader-inline-fill:#ffbd84" class="colorFF7E33 svgShape"/><path fill="#4ec296" d="M969.26 473.803c-4.498 0-8.144 3.658-8.144 8.144 0 4.498 3.646 8.157 8.144 8.157s8.144-3.658 8.144-8.157c0-4.486-3.646-8.144-8.144-8.144zm0 13.755c-3.09 0-5.598-2.521-5.598-5.611 0-3.077 2.509-5.598 5.598-5.598 3.09 0 5.598 2.521 5.598 5.598 0 3.09-2.508 5.611-5.598 5.611z" style="--darkreader-inline-fill:#abb7b5" class="color4E80C2 svgShape"/><path fill="#33ffb1" d="M252.341 731.274a2.818 2.818 0 0 0 1.973 2.066l9.553 2.789a2.836 2.836 0 0 0 2.778-.682 2.814 2.814 0 0 0 .795-2.737l-2.365-9.677c-.207-.826-.744-1.508-1.487-1.869a2.818 2.818 0 0 0-3.253.486l-2.902 2.778-4.296 4.111a2.422 2.422 0 0 0-.465.568 2.82 2.82 0 0 0-.331 2.167zm2.355-1.115 7.188-6.889c.227-.217.485-.165.589-.145a.615.615 0 0 1 .423.444l2.365 9.667a.639.639 0 0 1-.072.465c-.041.052-.072.093-.103.124a.58.58 0 0 1-.589.134l-9.553-2.789a.587.587 0 0 1-.423-.434.6.6 0 0 1 .175-.577zM265.361 377.906a2.818 2.818 0 0 0 1.973 2.066l9.553 2.788a2.836 2.836 0 0 0 2.778-.682 2.814 2.814 0 0 0 .795-2.737l-2.365-9.677c-.207-.826-.744-1.508-1.487-1.869a2.818 2.818 0 0 0-3.253.486l-2.902 2.778-4.296 4.111a2.422 2.422 0 0 0-.465.568 2.823 2.823 0 0 0-.331 2.168zm2.354-1.115 7.188-6.889c.227-.217.485-.165.589-.145a.615.615 0 0 1 .423.444l2.365 9.667a.639.639 0 0 1-.072.465c-.041.052-.072.093-.103.124a.58.58 0 0 1-.589.134l-9.553-2.789a.587.587 0 0 1-.423-.434.606.606 0 0 1 .175-.577z" style="--darkreader-inline-fill:#ffbd84" class="colorFF7E33 svgShape"/><path fill="#4ec296" d="M322.587 566.698c0 4.498 3.646 8.157 8.144 8.157s8.144-3.658 8.144-8.157c0-4.486-3.646-8.144-8.144-8.144s-8.144 3.657-8.144 8.144zm2.546 0c0-3.077 2.509-5.598 5.598-5.598s5.598 2.521 5.598 5.598c0 3.09-2.509 5.611-5.598 5.611s-5.598-2.522-5.598-5.611z" style="--darkreader-inline-fill:#abb7b5" class="color4E80C2 svgShape"/><path fill="#1ed891" d="m908.033 588.39-3.258 47.234c4.524-3.089 9.396-5.74 14.107-8.457 4.634-2.672 9.243-5.477 13.364-8.931 4.192-3.512 7.438-7.681 10.294-12.314 2.763-4.482 5.323-9.146 8.98-12.999 2.87-3.034 6.376-5.375 10.089-7.255 7.694-3.912 16.164-5.949 23.952-9.634 3.927-1.847 7.64-4.136 10.756-7.175 3.764-3.661 6.548-8.177 9.158-12.691 2.608-4.505 5.079-9.119 8.255-13.262a46.43 46.43 0 0 1 9.524-9.262c7.195-5.262 15.695-8.556 24.412-10.22 21.339-4.089 42.794 2.073 62.842 9.042 1.184.414 2.368.828 3.558 1.254 2-12.24-15.524-22.454-26.671-24.89-7.625-1.664-15.553.725-23.336.242-39.445-2.415-64.733-16.673-84.642 28.143-2.224 5.018-4.173 10.387-8.137 14.183-17.87 14.776-61.409 2.967-63.247 36.992z" style="--darkreader-inline-fill:#6a7981" class="color397DBF svgShape"/><path fill="#1e9769" d="M935.673 685.694c31.669 12.621 65.046-14.186 45.385-50.709-13.873-18.934 5.125-29.892 21.945-33.567 8.347-1.834 18.485-1.949 23.106-9.143 8.158-16.434-12.965-38.485 23.075-45.917 20.337-4.204 57.365 14.71 64.591-11.309.032-.122.068-.252.091-.377-19.033-6.746-38.99-13.274-59.39-11.258-8.956.885-17.853 3.355-25.708 7.815-3.837 2.174-7.406 4.841-10.524 7.972-3.468 3.489-6.188 7.556-8.678 11.786-2.629 4.477-5.042 9.102-8.1 13.316-2.687 3.711-5.898 6.932-9.749 9.439-6.959 4.527-15.053 6.777-22.733 9.744-3.903 1.518-7.782 3.227-11.291 5.547-4.009 2.667-7.174 6.138-9.838 10.133-2.908 4.37-5.298 9.074-8.544 13.212-3.128 4.006-7.033 7.312-11.206 10.186-7.52 5.2-15.916 9.041-23.41 14.28.001 0-4.646 34.652 30.978 48.85z" style="--darkreader-inline-fill:#485862" class="color1E5C97 svgShape"/><path fill="#037549" d="m904.775 635.624-.079 1.219c7.494-5.24 15.889-9.08 23.41-14.28 4.173-2.874 8.078-6.18 11.206-10.186 3.246-4.139 5.636-8.843 8.544-13.212 2.664-3.995 5.83-7.467 9.838-10.133 3.509-2.32 7.388-4.03 11.291-5.547 7.681-2.967 15.775-5.217 22.733-9.744 3.85-2.507 7.062-5.728 9.749-9.439 3.058-4.215 5.471-8.839 8.1-13.316 2.49-4.23 5.21-8.297 8.678-11.786 3.118-3.131 6.688-5.797 10.524-7.972 7.855-4.459 16.751-6.929 25.708-7.815 20.399-2.015 40.357 4.512 59.39 11.258.081-.319.15-.633.2-.952-1.19-.426-2.374-.84-3.558-1.254-20.049-6.968-41.503-13.13-62.842-9.042-8.717 1.664-17.217 4.958-24.412 10.22a46.43 46.43 0 0 0-9.524 9.262c-3.176 4.143-5.647 8.757-8.255 13.262-2.61 4.514-5.395 9.029-9.158 12.691-3.117 3.039-6.83 5.329-10.756 7.175-7.789 3.685-16.258 5.722-23.952 9.634-3.713 1.88-7.22 4.221-10.089 7.255-3.657 3.852-6.217 8.517-8.98 12.999-2.856 4.633-6.103 8.802-10.294 12.314-4.121 3.455-8.729 6.259-13.364 8.931-4.712 2.719-9.584 5.369-14.108 8.458z" style="--darkreader-inline-fill:#344c4e" class="color035875 svgShape"/><path fill="#ffffff" d="m904.775 635.624-.079 1.219c7.494-5.24 15.889-9.08 23.41-14.28 4.173-2.874 8.078-6.18 11.206-10.186 3.246-4.139 5.636-8.843 8.544-13.212 2.664-3.995 5.83-7.467 9.838-10.133 3.509-2.32 7.388-4.03 11.291-5.547 7.681-2.967 15.775-5.217 22.733-9.744 3.85-2.507 7.062-5.728 9.749-9.439 3.058-4.215 5.471-8.839 8.1-13.316 2.49-4.23 5.21-8.297 8.678-11.786 3.118-3.131 6.688-5.797 10.524-7.972 7.855-4.459 16.751-6.929 25.708-7.815 20.399-2.015 40.357 4.512 59.39 11.258.081-.319.15-.633.2-.952-1.19-.426-2.374-.84-3.558-1.254-20.049-6.968-41.503-13.13-62.842-9.042-8.717 1.664-17.217 4.958-24.412 10.22a46.43 46.43 0 0 0-9.524 9.262c-3.176 4.143-5.647 8.757-8.255 13.262-2.61 4.514-5.395 9.029-9.158 12.691-3.117 3.039-6.83 5.329-10.756 7.175-7.789 3.685-16.258 5.722-23.952 9.634-3.713 1.88-7.22 4.221-10.089 7.255-3.657 3.852-6.217 8.517-8.98 12.999-2.856 4.633-6.103 8.802-10.294 12.314-4.121 3.455-8.729 6.259-13.364 8.931-4.712 2.719-9.584 5.369-14.108 8.458z" style="--darkreader-inline-fill:#22211d" class="colorFFF svgShape"/><path fill="#80f0c5" d="m925.422 718.716 2.922 8.281c4.116-6.918 8.276-13.908 13.824-19.742 16.489-17.333 42.422-21.788 66.341-21.289 23.912.489 47.952 4.936 71.615 1.408 6.711-.995 14.356-3.522 16.549-9.94.447-1.331.614-2.701.547-4.079-10.201-3.365-20.577-6.167-31.133-8.18-16.415-3.132-33.289-4.362-49.952-2.654-13.722 1.412-27.255 4.876-39.877 10.468-12.444 5.504-24.027 13.13-33.57 22.869-4.943 5.045-9.133 10.645-13.033 16.52-1.405 2.113-2.786 4.239-4.233 6.338z" style="--darkreader-inline-fill:#435861" class="color80C0F0 svgShape"/><path fill="#99fad5" d="m921.116 706.493 3.954 11.222.352 1.002c1.447-2.099 2.828-4.225 4.234-6.339 3.9-5.875 8.09-11.476 13.033-16.52 9.543-9.739 21.125-17.365 33.57-22.869 12.621-5.592 26.155-9.056 39.877-10.468 16.663-1.708 33.536-.477 49.952 2.654 10.556 2.013 20.932 4.814 31.133 8.18a8.373 8.373 0 0 0-.076-.937c-.294-2.708-1.405-5.401-2.821-7.764-6.994-11.702-20.583-17.751-33.834-20.983-41.399-10.1-87.525 1.895-118.776 30.873-9.431 8.751-17.793 19.392-20.598 31.949z" style="--darkreader-inline-fill:#354b55" class="color99D1FA svgShape"/><path fill="#ffffff" d="m925.07 717.714.352 1.002c1.447-2.099 2.828-4.225 4.234-6.339 3.9-5.875 8.09-11.476 13.033-16.52 9.543-9.739 21.125-17.365 33.57-22.869 12.621-5.592 26.155-9.056 39.877-10.468 16.663-1.708 33.536-.477 49.952 2.654 10.556 2.013 20.932 4.814 31.133 8.18a8.373 8.373 0 0 0-.076-.937c-12.066-3.957-24.39-7.127-36.927-9.142-16.17-2.604-32.775-3.277-49.031-1.018-13.633 1.891-27.024 5.817-39.399 11.868-12.224 5.968-23.465 14.057-32.577 24.186-4.845 5.396-8.798 11.402-12.804 17.418-.442.666-.889 1.321-1.337 1.985z" style="--darkreader-inline-fill:#22211d" class="colorFFF svgShape"/><path fill="#1e9769" d="M920.001 311.403c-.519.056-1.013-.333-1.142-.921-.14-.637.203-1.266.763-1.406 2.083-.52 4.12-1.058 6.053-1.598.567-.161 1.134.231 1.286.864.153.633-.175 1.272-.732 1.428-1.95.545-4.004 1.087-6.103 1.611-.041.01-.083.017-.125.022z" style="--darkreader-inline-fill:#d5dfd7" class="color1E5C97 svgShape"/><path fill="#1e9769" d="M937.726 306.144c-.482.052-.955-.282-1.118-.826-.185-.622.109-1.283.655-1.476 4.016-1.416 7.812-2.942 11.286-4.535.534-.244 1.148.05 1.377.654.23.605-.014 1.292-.544 1.535-3.526 1.617-7.376 3.164-11.446 4.599a.887.887 0 0 1-.21.049zm22.248-10.381c-.403.044-.815-.182-1.032-.609-.291-.571-.121-1.289.378-1.601 3.695-2.313 6.997-4.812 9.815-7.43.443-.41 1.102-.329 1.476.178.374.508.321 1.251-.119 1.66-2.913 2.706-6.318 5.283-10.118 7.663a.968.968 0 0 1-.4.139zm18.147-17.399a.972.972 0 0 1-.715-.217c-.479-.381-.602-1.118-.278-1.647a39.14 39.14 0 0 0 4.852-11.901c.142-.628.712-.993 1.272-.817.56.176.9.828.758 1.455a41.59 41.59 0 0 1-5.15 12.641.993.993 0 0 1-.739.486zm6.187-25.85a.963.963 0 0 1-.121.005c-.578-.013-1.05-.551-1.054-1.203a81.755 81.755 0 0 0-.469-8.267 78.991 78.991 0 0 0-.733-5.164c-.114-.642.255-1.253.822-1.363.566-.104 1.119.319 1.231.962a80.98 80.98 0 0 1 .759 5.34c.303 2.786.466 5.658.484 8.537.004.606-.398 1.096-.919 1.153zm-4.782-26.827c-.453.049-.906-.244-1.091-.747a77.588 77.588 0 0 0-5.658-12.012c-.32-.552-.19-1.281.292-1.627.481-.343 1.132-.179 1.451.373a80.116 80.116 0 0 1 5.845 12.409c.224.607-.027 1.291-.559 1.528a.92.92 0 0 1-.28.076zm-13.3-23.164c-.322.035-.656-.099-.895-.394a100.191 100.191 0 0 0-8.781-9.517c-.447-.427-.512-1.172-.144-1.664.367-.492 1.025-.546 1.473-.119a102.716 102.716 0 0 1 8.985 9.739c.394.488.37 1.234-.054 1.666a.963.963 0 0 1-.584.289zm-18.708-18.021a.972.972 0 0 1-.7-.205 142.175 142.175 0 0 0-10.398-7.253c-.509-.323-.7-1.044-.427-1.61.275-.565.906-.762 1.418-.439a145 145 0 0 1 10.554 7.363c.484.371.619 1.107.302 1.642-.176.296-.454.47-.749.502zm-21.412-13.681a.952.952 0 0 1-.554-.111 198.498 198.498 0 0 0-11.208-5.538c-.541-.247-.814-.936-.609-1.539.207-.603.81-.894 1.35-.646a199.538 199.538 0 0 1 11.323 5.595c.528.282.764.987.527 1.575-.156.386-.477.625-.829.664zm-22.771-10.432a.941.941 0 0 1-.446-.061 253.541 253.541 0 0 0-11.643-4.226c-.557-.188-.887-.845-.735-1.469.152-.625.725-.98 1.285-.791a256.714 256.714 0 0 1 11.733 4.258c.551.215.854.889.677 1.504-.13.449-.479.742-.871.785zm-23.515-7.92a.926.926 0 0 1-.36-.032 283.209 283.209 0 0 0-11.903-3.135c-.568-.137-.943-.764-.836-1.402.107-.637.649-1.044 1.221-.907 3.992.959 8.024 2.021 11.983 3.157.564.162.917.805.788 1.436-.101.495-.468.837-.893.883z" style="--darkreader-inline-fill:#485862" class="color1E5C97 svgShape"/><path fill="#1e9769" d="M855.828 146.715a.92.92 0 0 1-.276-.012c-3.882-.739-6.159-1.065-6.181-1.069-.576-.082-.996-.672-.938-1.319.057-.646.572-1.106 1.145-1.023.023.003 2.34.334 6.271 1.083.572.109.97.719.888 1.361-.07.539-.452.93-.909.979z" style="--darkreader-inline-fill:#d5dfd7" class="color1E5C97 svgShape"/><path fill="#1f8c62" style="--darkreader-inline-fill:#dbe2d8" d="m885.247 155.831-19.861-1.415 6.914-10.424z" class="color1F568C svgShape"/><path fill="#1ed891" style="--darkreader-inline-fill:#b9c5c1" d="m866.62 158.184-24.981-12.101 32.024 2.827zM841.617 146.044l41.412-15.131-6.541 9.516z" class="color397DBF svgShape"/><path fill="#25a675" style="--darkreader-inline-fill:#cbd6d0" d="m841.639 146.083 32.084 2.933 11.524 6.815-8.744-15.566z" class="color2566A6 svgShape"/><path fill="#80f0c5" d="M424.45 503.478c9.387 19.858 38.418 26.325 49.129 46.183 5.703 11.666.404 22.62-2.175 33.304-2.934 19.624-5.075 41.809 2.34 63.236 4.065 9.758 11.465 18.974 13.781 28.844-9.057-.761-19.854-3.177-30.378-7.143a33.224 33.224 0 0 1-.574-.715c-7.307-9.396-12.275-20.893-11.02-32.993 1.141-11.017 6.718-21.985 4.02-33.179-1.475-6.126-5.437-11.195-9.163-16.119-3.842-5.088-7.239-10.21-8.805-16.464-2.623-10.435-1.389-22.498-7.78-31.709-3.905-5.617-10.154-8.642-15.737-12.263-3.126-2.021-6.09-4.321-8.311-7.343-1.895-2.578-3.245-5.493-4.286-8.507-2.052-5.945-3.008-12.2-4.965-18.175-1.98-6.064-5.248-11.519-9.421-16.33-9.117-10.503-21.367-17.412-32.598-25.334-10.159-7.172-20.452-15.825-25.491-27.512a29.71 29.71 0 0 1-.49-1.203c1.309-1.396 3.074-2.507 5.335-3.25 19.795-3.776 33.453 24.414 50.559 33.1 20.498 8.044 37.775 6.644 41.28 32.955 1.09 6.87 1.454 13.881 4.75 20.617z" style="--darkreader-inline-fill:#435861" class="color80C0F0 svgShape"/><path fill="#99fad5" d="M348.509 448.77c11.231 7.922 23.481 14.832 32.598 25.334 4.173 4.811 7.441 10.266 9.421 16.33 1.957 5.974 2.912 12.229 4.965 18.175 1.041 3.014 2.391 5.929 4.286 8.507 2.22 3.022 5.185 5.322 8.311 7.343 5.583 3.621 11.832 6.646 15.737 12.263 6.39 9.212 5.157 21.274 7.78 31.709 1.566 6.254 4.963 11.377 8.805 16.464 3.725 4.924 7.688 9.994 9.163 16.119 2.697 11.194-2.879 22.162-4.02 33.179-1.255 12.1 3.713 23.597 11.02 32.993.187.238.381.483.574.715-.536-.197-1.067-.4-1.598-.616-24.23-9.508-46.461-27.251-41.937-51.97 4.992-11.404 10.224-20.322-5.568-31.276-24.025-20.956-55.99-34.418-48.33-66.643 2.415-14.553 12.624-35.166-2.036-50.186-6.622-5.148-14.899-6.771-21.632-11.719-12.556-7.922-21.037-25.89-14.171-34.679.192-.264.409-.516.651-.758.153.403.319.806.49 1.203 5.038 11.688 15.332 20.341 25.491 27.513z" style="--darkreader-inline-fill:#354b55" class="color99D1FA svgShape"/><path fill="#ffffff" d="M348.509 448.77c11.231 7.922 23.481 14.832 32.598 25.334 4.173 4.811 7.441 10.266 9.421 16.33 1.957 5.974 2.912 12.229 4.965 18.175 1.041 3.014 2.391 5.929 4.286 8.507 2.22 3.022 5.185 5.322 8.311 7.343 5.583 3.621 11.832 6.646 15.737 12.263 6.39 9.212 5.157 21.274 7.78 31.709 1.566 6.254 4.963 11.377 8.805 16.464 3.725 4.924 7.688 9.994 9.163 16.119 2.697 11.194-2.879 22.162-4.02 33.179-1.255 12.1 3.713 23.597 11.02 32.993.187.238.381.483.574.715-.536-.197-1.067-.4-1.598-.616a64.98 64.98 0 0 1-4.776-7.176c-2.673-4.687-4.694-9.763-5.65-15.074-1.015-5.653-.62-11.274.532-16.878 1.183-5.715 2.957-11.332 3.566-17.152.707-6.653-.741-12.707-4.31-18.377-3.496-5.546-8.104-10.336-11.191-16.157-2.593-4.902-3.646-10.336-4.391-15.778-.769-5.683-1.206-11.492-3.029-16.966-2.209-6.651-6.757-11.099-12.592-14.786-5.647-3.563-11.655-6.74-15.421-12.472-3.333-5.077-4.767-11.096-6.184-16.916-1.563-6.424-3.275-12.695-6.789-18.361-3.75-6.03-8.85-11.091-14.329-15.539-16.484-13.399-40.963-24.02-49.11-44.841.192-.264.409-.516.651-.758.153.403.319.806.49 1.203 5.038 11.688 15.332 20.341 25.491 27.513z" style="--darkreader-inline-fill:#22211d" class="colorFFF svgShape"/><path fill="#1e9769" d="m475.278 715.895-2.924 8.286c-4.119-6.923-8.282-13.918-13.833-19.756-16.501-17.345-42.45-21.803-66.386-21.304-23.928.49-47.984 4.939-71.664 1.409-6.716-.996-14.365-3.524-16.56-9.947a11.08 11.08 0 0 1-.548-4.081c10.208-3.368 20.591-6.171 31.154-8.185 16.426-3.134 33.311-4.365 49.986-2.656 13.731 1.413 27.274 4.879 39.904 10.475 12.453 5.508 24.043 13.139 33.592 22.885 4.946 5.048 9.139 10.652 13.042 16.531 1.407 2.115 2.789 4.242 4.237 6.343z" style="--darkreader-inline-fill:#485862" class="color1E5C97 svgShape"/><path fill="#1ed891" d="m479.587 703.663-3.956 11.229-.353 1.003c-1.448-2.101-2.83-4.228-4.237-6.343-3.902-5.879-8.095-11.484-13.042-16.531-9.549-9.746-21.14-17.376-33.592-22.885-12.63-5.596-26.173-9.062-39.904-10.475-16.675-1.709-33.559-.477-49.986 2.656-10.563 2.014-20.946 4.818-31.154 8.185a8.41 8.41 0 0 1 .076-.938c.295-2.71 1.405-5.404 2.823-7.769 6.999-11.71 20.598-17.763 33.857-20.997 41.427-10.107 87.584 1.896 118.856 30.894 9.437 8.757 17.805 19.405 20.612 31.971z" style="--darkreader-inline-fill:#6a7981" class="color397DBF svgShape"/><path fill="#ffffff" d="m475.631 714.892-.353 1.003c-1.448-2.101-2.83-4.228-4.237-6.343-3.902-5.879-8.095-11.484-13.042-16.531-9.549-9.746-21.14-17.376-33.592-22.885-12.63-5.596-26.173-9.062-39.904-10.475-16.675-1.709-33.559-.477-49.986 2.656-10.563 2.014-20.946 4.818-31.154 8.185a8.41 8.41 0 0 1 .076-.938c12.074-3.959 24.406-7.132 36.952-9.148 16.181-2.605 32.797-3.279 49.064-1.019 13.643 1.893 27.043 5.821 39.425 11.876 12.232 5.972 23.481 14.067 32.599 24.202 4.849 5.4 8.804 11.41 12.813 17.43.442.667.89 1.323 1.339 1.987z" style="--darkreader-inline-fill:#22211d" class="colorFFF svgShape"/><path fill="#638075" d="M934.544 783.548V215.776c0-15.401-14.744-27.885-32.932-27.885H474.941c-18.188 0-32.932 12.485-32.932 27.885v567.773c0 15.401 14.744 27.885 32.932 27.885h426.671c18.187 0 32.932-12.485 32.932-27.886z" style="--darkreader-inline-fill:#716a65" class="color636780 svgShape"/><path fill="#ffffff" d="M924.693 214.799v539.432c0 10.244-10.358 18.57-23.078 18.57H474.941c-12.729 0-23.078-8.326-23.078-18.57V214.799c0-10.235 10.349-18.561 23.078-18.561h426.674c12.72 0 23.078 8.326 23.078 18.561z" style="--darkreader-inline-fill:#22211d" class="colorFFF svgShape"/><path fill="#99fad5" d="M924.693 214.799v21.555h-472.83v-21.555c0-10.235 10.349-18.561 23.078-18.561h426.674c12.72 0 23.078 8.326 23.078 18.561zM506.523 346.574H776.79v37.458H506.523z" style="--darkreader-inline-fill:#354b55" class="color99D1FA svgShape"/><path fill="#c8e3d9" d="M588.659 409.408H509.62c-1.71 0-3.097-.866-3.097-1.935 0-1.068 1.387-1.934 3.097-1.934h79.038c1.711 0 3.097.866 3.097 1.934.001 1.068-1.386 1.935-3.096 1.935zM728.266 409.408H605.808c-1.711 0-3.097-.866-3.097-1.935 0-1.068 1.387-1.934 3.097-1.934h122.458c1.71 0 3.097.866 3.097 1.934s-1.386 1.935-3.097 1.935z" style="--darkreader-inline-fill:#434039" class="colorC8CBE3 svgShape"/><path fill="#c8e3d9" d="M774.094 409.408h-25.696c-1.489 0-2.696-.754-2.696-1.684 0-.93 1.207-1.684 2.696-1.684h25.696c1.489 0 2.696.754 2.696 1.684 0 .93-1.207 1.684-2.696 1.684z" style="--darkreader-inline-fill:#fffbe3" class="colorC8CBE3 svgShape"/><path fill="#c8e3d9" d="M773.693 429.397H509.62c-1.71 0-3.097-.866-3.097-1.934s1.387-1.935 3.097-1.935h264.073c1.711 0 3.097.866 3.097 1.935 0 1.068-1.387 1.934-3.097 1.934zM588.659 467.226H509.62c-1.71 0-3.097-.866-3.097-1.934s1.387-1.934 3.097-1.934h79.038c1.711 0 3.097.866 3.097 1.935.001 1.067-1.386 1.933-3.096 1.933zM728.266 467.226H605.808c-1.711 0-3.097-.866-3.097-1.935 0-1.068 1.387-1.934 3.097-1.934h122.458c1.71 0 3.097.866 3.097 1.934 0 1.069-1.386 1.935-3.097 1.935zM641.026 447.237H509.62c-1.71 0-3.097-.866-3.097-1.935 0-1.068 1.387-1.935 3.097-1.935h131.406c1.711 0 3.097.866 3.097 1.935s-1.387 1.935-3.097 1.935zM773.693 447.237H672.515c-1.711 0-3.097-.866-3.097-1.935 0-1.068 1.387-1.935 3.097-1.935h101.178c1.711 0 3.097.866 3.097 1.935s-1.387 1.935-3.097 1.935z" style="--darkreader-inline-fill:#434039" class="colorC8CBE3 svgShape"/><path fill="#c8e3d9" d="M774.094 467.226h-25.696c-1.489 0-2.696-.754-2.696-1.684 0-.93 1.207-1.684 2.696-1.684h25.696c1.489 0 2.696.754 2.696 1.684 0 .93-1.207 1.684-2.696 1.684z" style="--darkreader-inline-fill:#fffbe3" class="colorC8CBE3 svgShape"/><path fill="#c8e3d9" d="M588.659 651.18H509.62c-1.71 0-3.097-.866-3.097-1.935 0-1.068 1.387-1.934 3.097-1.934h79.038c1.711 0 3.097.866 3.097 1.934.001 1.068-1.386 1.935-3.096 1.935zM822.667 651.18H605.808c-1.711 0-3.097-.866-3.097-1.935 0-1.068 1.387-1.934 3.097-1.934h216.858c1.71 0 3.097.866 3.097 1.934.001 1.068-1.386 1.935-3.096 1.935z" style="--darkreader-inline-fill:#434039" class="colorC8CBE3 svgShape"/><path fill="#c8e3d9" d="M868.495 651.18h-25.696c-1.489 0-2.696-.754-2.696-1.684 0-.93 1.207-1.684 2.696-1.684h25.696c1.489 0 2.696.754 2.696 1.684-.001.93-1.207 1.684-2.696 1.684z" style="--darkreader-inline-fill:#fffbe3" class="colorC8CBE3 svgShape"/><path fill="#c8e3d9" d="M868.093 671.169H509.62c-1.71 0-3.097-.866-3.097-1.934s1.387-1.935 3.097-1.935h358.473c1.711 0 3.097.866 3.097 1.935 0 1.068-1.386 1.934-3.097 1.934zM588.659 708.998H509.62c-1.71 0-3.097-.866-3.097-1.934s1.387-1.934 3.097-1.934h79.038c1.711 0 3.097.866 3.097 1.935.001 1.067-1.386 1.933-3.096 1.933zM822.667 708.998H605.808c-1.711 0-3.097-.866-3.097-1.935 0-1.068 1.387-1.934 3.097-1.934h216.858c1.71 0 3.097.866 3.097 1.934.001 1.069-1.386 1.935-3.096 1.935zM641.026 689.009H509.62c-1.71 0-3.097-.866-3.097-1.935 0-1.068 1.387-1.935 3.097-1.935h131.406c1.711 0 3.097.866 3.097 1.935s-1.387 1.935-3.097 1.935zM868.093 689.009H672.515c-1.711 0-3.097-.866-3.097-1.935 0-1.068 1.387-1.935 3.097-1.935h195.578c1.711 0 3.097.866 3.097 1.935s-1.386 1.935-3.097 1.935z" style="--darkreader-inline-fill:#434039" class="colorC8CBE3 svgShape"/><path fill="#c8e3d9" d="M868.495 708.998h-25.696c-1.489 0-2.696-.754-2.696-1.684 0-.93 1.207-1.684 2.696-1.684h25.696c1.489 0 2.696.754 2.696 1.684-.001.93-1.207 1.684-2.696 1.684z" style="--darkreader-inline-fill:#fffbe3" class="colorC8CBE3 svgShape"/><path fill="#c8e3d9" d="M700.653 492.602h-71.73c-1.552 0-2.811-.866-2.811-1.935 0-1.068 1.258-1.934 2.811-1.934h71.73c1.552 0 2.811.866 2.811 1.934 0 1.069-1.258 1.935-2.811 1.935zM827.351 492.602H716.217c-1.552 0-2.811-.866-2.811-1.935 0-1.068 1.258-1.934 2.811-1.934h111.134c1.552 0 2.811.866 2.811 1.934 0 1.069-1.258 1.935-2.811 1.935z" style="--darkreader-inline-fill:#434039" class="colorC8CBE3 svgShape"/><path fill="#c8e3d9" d="M868.942 492.602h-23.32c-1.351 0-2.447-.754-2.447-1.684 0-.93 1.096-1.684 2.447-1.684h23.32c1.351 0 2.446.754 2.446 1.684 0 .93-1.095 1.684-2.446 1.684z" style="--darkreader-inline-fill:#fffbe3" class="colorC8CBE3 svgShape"/><path fill="#c8e3d9" d="M868.578 512.591H628.923c-1.552 0-2.811-.866-2.811-1.934s1.258-1.935 2.811-1.935h239.654c1.552 0 2.811.866 2.811 1.935 0 1.068-1.258 1.934-2.81 1.934zM700.653 550.421h-71.73c-1.552 0-2.811-.866-2.811-1.934s1.258-1.934 2.811-1.934h71.73c1.552 0 2.811.866 2.811 1.935 0 1.067-1.258 1.933-2.811 1.933zM827.351 550.421H716.217c-1.552 0-2.811-.866-2.811-1.935 0-1.068 1.258-1.934 2.811-1.934h111.134c1.552 0 2.811.866 2.811 1.934 0 1.069-1.258 1.935-2.811 1.935zM748.178 530.431H628.923c-1.552 0-2.811-.866-2.811-1.935 0-1.068 1.258-1.935 2.811-1.935h119.255c1.552 0 2.811.866 2.811 1.935s-1.258 1.935-2.811 1.935zM868.578 530.431h-91.822c-1.552 0-2.811-.866-2.811-1.935 0-1.068 1.258-1.935 2.811-1.935h91.822c1.552 0 2.811.866 2.811 1.935-.001 1.069-1.259 1.935-2.811 1.935z" style="--darkreader-inline-fill:#434039" class="colorC8CBE3 svgShape"/><path fill="#c8e3d9" d="M868.942 550.421h-23.32c-1.351 0-2.447-.754-2.447-1.684 0-.93 1.096-1.684 2.447-1.684h23.32c1.351 0 2.446.754 2.446 1.684 0 .93-1.095 1.684-2.446 1.684z" style="--darkreader-inline-fill:#fffbe3" class="colorC8CBE3 svgShape"/><path fill="#c8e3d9" d="M608.17 537.397h-97.814c-2.117 0-3.833-1.042-3.833-2.328 0-1.286 1.716-2.328 3.833-2.328h97.814c2.117 0 3.833 1.042 3.833 2.328 0 1.286-1.716 2.328-3.833 2.328zM608.17 556.577h-97.814c-2.117 0-3.833-1.042-3.833-2.328 0-1.286 1.716-2.328 3.833-2.328h97.814c2.117 0 3.833 1.042 3.833 2.328 0 1.286-1.716 2.328-3.833 2.328zM608.17 575.758h-97.814c-2.117 0-3.833-1.042-3.833-2.328 0-1.286 1.716-2.328 3.833-2.328h97.814c2.117 0 3.833 1.042 3.833 2.328 0 1.285-1.716 2.328-3.833 2.328zM608.17 594.938h-97.814c-2.117 0-3.833-1.042-3.833-2.328 0-1.286 1.716-2.328 3.833-2.328h97.814c2.117 0 3.833 1.042 3.833 2.328 0 1.285-1.716 2.328-3.833 2.328zM608.17 614.118h-97.814c-2.117 0-3.833-1.042-3.833-2.328 0-1.286 1.716-2.328 3.833-2.328h97.814c2.117 0 3.833 1.042 3.833 2.328 0 1.286-1.716 2.328-3.833 2.328zM608.17 633.298h-97.814c-2.117 0-3.833-1.042-3.833-2.328 0-1.286 1.716-2.328 3.833-2.328h97.814c2.117 0 3.833 1.042 3.833 2.328 0 1.286-1.716 2.328-3.833 2.328z" style="--darkreader-inline-fill:#434039" class="colorC8CBE3 svgShape"/><path fill="#99fad5" style="--darkreader-inline-fill:#354b55" d="M793.161 274.257h78.227v192.969h-78.227z" class="color99D1FA svgShape"/><path fill="#99fad5" style="--darkreader-inline-fill:#ebf7ec" d="M625.675 571.101h70.989v62.197h-70.989zM714.583 571.101h70.989v62.197h-70.989zM800.399 571.101h70.989v62.197h-70.989z" class="color99D1FA svgShape"/><path fill="#99fad5" style="--darkreader-inline-fill:#354b55" d="M506.523 489.973h105.48v28.755h-105.48z" class="color99D1FA svgShape"/><path fill="#ffffff" d="M832.018 225.922H513.241a2.302 2.302 0 0 1-2.302-2.302v-11.551a2.302 2.302 0 0 1 2.302-2.302h318.777a2.302 2.302 0 0 1 2.302 2.302v11.551a2.302 2.302 0 0 1-2.302 2.302z" style="--darkreader-inline-fill:#22211d" class="colorFFF svgShape"/><path fill="#ffffff" d="M498.675 225.922h-35.857a2.302 2.302 0 0 1-2.302-2.302v-11.551a2.302 2.302 0 0 1 2.302-2.302h35.857a2.302 2.302 0 0 1 2.302 2.302v11.551a2.301 2.301 0 0 1-2.302 2.302zM877.614 225.922h-32.136a2.302 2.302 0 0 1-2.302-2.302v-11.551a2.302 2.302 0 0 1 2.302-2.302h32.136a2.302 2.302 0 0 1 2.302 2.302v11.551a2.302 2.302 0 0 1-2.302 2.302zM914.254 212.628h-25.519a.408.408 0 0 1-.408-.408v-2.045c0-.225.183-.408.408-.408h25.519c.225 0 .408.183.408.408v2.045a.408.408 0 0 1-.408.408zM914.254 219.275h-25.519a.408.408 0 0 1-.408-.408v-2.045c0-.225.183-.408.408-.408h25.519c.225 0 .408.183.408.408v2.045a.408.408 0 0 1-.408.408zM914.254 225.922h-25.519a.408.408 0 0 1-.408-.408v-2.045c0-.225.183-.408.408-.408h25.519c.225 0 .408.183.408.408v2.045a.408.408 0 0 1-.408.408z" style="--darkreader-inline-fill:#fffffe" class="colorFFF svgShape"/><ellipse cx="674.264" cy="750.296" fill="#99fad5" rx="6.323" ry="6.101" style="--darkreader-inline-fill:#ebf7ec" class="color99D1FA svgShape"/><ellipse cx="700.961" cy="750.296" fill="#52faba" rx="6.323" ry="6.101" style="--darkreader-inline-fill:#bdd8db" class="color52B4FA svgShape"/><ellipse cx="727.657" cy="750.296" fill="#45d9a0" rx="6.323" ry="6.101" style="--darkreader-inline-fill:#d38a7e" class="colorD94559 svgShape"/><path fill="#1ed891" d="m566.582 276.605 6.297 1.904c-.423 1.766-1.089 3.241-1.999 4.426a8.668 8.668 0 0 1-3.386 2.681c-1.348.603-3.064.904-5.147.904-2.527 0-4.592-.367-6.194-1.102-1.602-.734-2.985-2.026-4.148-3.876-1.163-1.85-1.745-4.216-1.745-7.102 0-3.847 1.023-6.803 3.069-8.869 2.046-2.066 4.941-3.099 8.685-3.099 2.929 0 5.232.592 6.908 1.776 1.676 1.185 2.921 3.003 3.735 5.457l-6.345 1.412c-.222-.708-.455-1.227-.698-1.554a4.138 4.138 0 0 0-1.475-1.269c-.581-.296-1.232-.444-1.951-.444-1.629 0-2.877.655-3.743 1.965-.656.972-.984 2.498-.984 4.578 0 2.578.391 4.344 1.174 5.3.783.956 1.882 1.434 3.3 1.434 1.375 0 2.413-.386 3.117-1.158.702-.773 1.213-1.894 1.53-3.364zM575.465 274.512c0-3.797 1.057-6.752 3.172-8.867 2.115-2.115 5.06-3.172 8.836-3.172 3.87 0 6.852 1.039 8.946 3.117 2.094 2.078 3.141 4.989 3.141 8.732 0 2.718-.457 4.946-1.372 6.686a9.779 9.779 0 0 1-3.966 4.061c-1.729.968-3.884 1.451-6.463 1.451-2.623 0-4.793-.418-6.512-1.253-1.719-.835-3.112-2.157-4.179-3.965-1.07-1.81-1.603-4.073-1.603-6.79zm7.185.031c0 2.348.436 4.034 1.309 5.06.873 1.026 2.06 1.539 3.561 1.539 1.544 0 2.739-.502 3.585-1.507.846-1.005 1.269-2.808 1.269-5.409 0-2.189-.442-3.788-1.325-4.798s-2.081-1.515-3.593-1.515c-1.449 0-2.612.513-3.49 1.539-.877 1.025-1.316 2.722-1.316 5.091zM603.477 262.869h6.71l8.756 12.865v-12.865h6.773v23.254h-6.773l-8.708-12.768v12.768h-6.757v-23.254zM628.857 262.869H650.7v5.742h-7.328v17.512h-7.186v-17.512h-7.329v-5.742zM653.935 262.869h19.257v4.965h-12.055v3.696h11.183v4.743h-11.183v4.584h12.404v5.266h-19.606v-23.254zM677.459 262.869h6.71l8.756 12.865v-12.865h6.774v23.254h-6.774l-8.708-12.768v12.768h-6.757v-23.254zM702.838 262.869h21.843v5.742h-7.328v17.512h-7.186v-17.512h-7.329v-5.742zM525.888 302.46h9.452l3.403 18.03 4.981-18.03h9.418l4.993 18.006 3.407-18.006h9.403l-7.099 32.206h-9.759l-5.649-20.277-5.626 20.277h-9.759l-7.165-32.206zM574.329 334.667V302.46h16.587c3.076 0 5.426.264 7.052.791 1.626.527 2.936 1.505 3.933 2.933.996 1.428 1.494 3.167 1.494 5.218 0 1.787-.381 3.328-1.144 4.624-.762 1.296-1.81 2.347-3.143 3.152-.85.513-2.015.937-3.495 1.274 1.186.396 2.049.792 2.591 1.187.366.264.896.828 1.591 1.693.695.865 1.16 1.532 1.394 2.001l4.82 9.332h-11.245l-5.319-9.842c-.674-1.274-1.274-2.101-1.802-2.483a4.172 4.172 0 0 0-2.438-.747h-.879v13.071h-9.997zm9.995-19.157h4.196c.454 0 1.332-.146 2.636-.439a2.63 2.63 0 0 0 1.615-1.011 2.972 2.972 0 0 0 .626-1.867c0-1.04-.329-1.838-.988-2.394-.66-.557-1.897-.835-3.713-.835h-4.372v6.546zM609.588 302.46h9.974v32.206h-9.974V302.46zM624.439 302.46h30.251v7.953h-10.149v24.254h-9.952v-24.254h-10.15v-7.953zM659.589 302.46h9.974v32.206h-9.974V302.46zM676.768 302.46h9.293l12.127 17.818V302.46h9.38v32.206h-9.38l-12.061-17.683v17.683h-9.359V302.46zM730.372 323.001V316.3h15.378v13.731c-2.944 2.007-5.547 3.372-7.81 4.097-2.263.725-4.947 1.087-8.052 1.087-3.822 0-6.938-.651-9.348-1.955-2.409-1.303-4.277-3.244-5.602-5.822-1.326-2.578-1.988-5.536-1.988-8.875 0-3.515.725-6.572 2.175-9.172 1.45-2.6 3.574-4.573 6.371-5.921 2.182-1.04 5.119-1.56 8.81-1.56 3.559 0 6.221.322 7.986.967 1.764.644 3.229 1.644 4.394 2.999 1.164 1.355 2.039 3.072 2.625 5.152l-9.6 1.713c-.395-1.215-1.066-2.145-2.01-2.79-.945-.644-2.149-.966-3.614-.966-2.183 0-3.922.758-5.218 2.274-1.296 1.516-1.944 3.914-1.944 7.195 0 3.486.655 5.975 1.966 7.469 1.311 1.494 3.138 2.241 5.481 2.241 1.113 0 2.175-.161 3.185-.483 1.011-.322 2.168-.871 3.471-1.648v-3.032h-6.656z" style="--darkreader-inline-fill:#b9c5c1" class="color397DBF svgShape"/><path fill="#cbf9e7" d="M812.848 581.011s6.344 35.72 15.608 38.186c4.194 1.116 9.581.18 14.724-1.562 8.697-2.943 16.692-8.177 16.969-9.605l8.823-26.784c-5.079 2.189-34.013 18.683-36.377 20.263-3.828-5.747-12.13-20.7-12.403-21.797 0 0 1.791-8.058.209-10.326-1.406-2.007-1.923 4.576-2.517 3.777-.647-.878-4.48-10.196-7.029-7.474-5.66 6.066 1.993 15.322 1.993 15.322z" style="--darkreader-inline-fill:#ffeecd" class="colorF9CBCB svgShape"/><path fill="#5fe3b1" d="M837.477 597.715c.663 6.99 4.716 16.439 5.139 20.818 8.698-2.943 19.183-3.928 19.459-5.356l6.896-31.931c-5.078 2.188-21.399 10.479-31.494 16.469z" style="--darkreader-inline-fill:#e49f90" class="colorE35F72 svgShape"/><path fill="#ffffff" d="M786.438 562.41a26.798 26.798 0 0 1 7.45-3.05c.391-.095.782-.184 1.178-.263 4.094-.828 8.377-.801 12.766-.287a70.698 70.698 0 0 1 2.71.374c.208.032.416.065.625.103.22.033.441.072.664.113.194.031.39.065.585.101.313-.7.612-1.406.896-2.118a55.867 55.867 0 0 0 3.319-12.283c.118-.76.22-1.526.308-2.299l-.566-.182c-.21-.069-.421-.138-.629-.204l-.617-.203c-.543-.178-1.085-.361-1.624-.547-.373-.13-.743-.261-1.111-.396-3.933-1.432-7.662-3.203-10.696-6.149a19.41 19.41 0 0 1-.868-.898c-1.758-1.933-3.242-4.328-4.341-7.373l-10.049 35.561z" style="--darkreader-inline-fill:#fffffe" class="colorFFF svgShape"/><path fill="#d8ebe4" d="m787.392 559.042 9.094-32.192c.122.338.25.667.381.989l-9.475 31.203z" style="--darkreader-inline-fill:#ffffec" class="colorD8DAEB svgShape"/><path fill="#e6faf2" d="M786.439 562.41c7.104-4.264 15.075-4.559 23.379-3.336.241.034.482.073.724.11l.143.022c.159.026.321.051.482.08.114.016.227.035.339.056.108.018.217.037.325.057a14.798 14.798 0 0 1 .585.101 55.49 55.49 0 0 0 .896-2.118c-.107.236-.213.472-.324.704l-.042-.009a20.565 20.565 0 0 0-.538-.112l-.285-.063c-.125-.027-.25-.051-.374-.075a24.8 24.8 0 0 0-.443-.089l-.176-.036c-.223-.044-.447-.085-.669-.126-8.249-1.53-16.197-1.527-23.36 2.492l-.662 2.342z" style="--darkreader-inline-fill:#fffffc" class="colorE6F0FA svgShape"/><path fill="#1e9769" d="M775.397 540.059c-2.857 10.55.253 20.572 6.945 22.384 6.693 1.812 14.434-5.271 17.291-15.822 2.857-10.55-.253-20.572-6.945-22.384-6.693-1.811-14.434 5.272-17.291 15.822z" style="--darkreader-inline-fill:#d5dfd7" class="color1E5C97 svgShape"/><path fill="#ffffff" d="m827.082 546.931-3.806 14.056c1.708.35 5.607 1.82 7.333 1.566 4.448-.204 7.83-4.96 6.479-9.272-1-4.496-6.254-5.398-10.006-6.35z" style="--darkreader-inline-fill:#fffffe" class="colorFFF svgShape"/><path fill="#cfebe0" d="m823.539 560.017-.263.971c1.708.35 5.607 1.82 7.333 1.566 4.448-.204 7.83-4.96 6.479-9.272a7.314 7.314 0 0 0-.971-2.075c2.02 4.276-1.278 9.816-5.958 10.107-1.718.302-4.94-.912-6.62-1.297z" style="--darkreader-inline-fill:#ffffea" class="colorCFD2EB svgShape"/><path fill="#ffffff" d="M777.173 540.539c-2.439 9.007-.03 17.495 5.382 18.96 1.988.539 4.106.053 6.106-1.222 1.446-.918 2.828-2.246 4.065-3.897.437-.585.854-1.209 1.25-1.87l.067-.115c1.13-1.911 2.071-4.127 2.727-6.549a26.956 26.956 0 0 0 .946-6.471l.001-.038c.035-1.989-.179-3.857-.619-5.516-.944-3.575-2.933-6.181-5.712-6.933-5.412-1.466-11.775 4.647-14.213 13.651z" style="--darkreader-inline-fill:#fffffe" class="colorFFF svgShape"/><path fill="#1e9769" d="M808.723 576.003a.56.56 0 0 0 .665-.332c1.23-3.093 3.155-4.657 4.513-7.164 1.68-3.103 1.66-7.662 5.161-10.079l6.259 1.695-8.979 17.213a.58.58 0 0 0 .363.829.571.571 0 0 1 .402.7l-.537 1.984a.571.571 0 0 1-.7.402l-7.982-2.161a.571.571 0 0 1-.402-.7l.537-1.984a.57.57 0 0 1 .7-.403z" style="--darkreader-inline-fill:#d5dfd7" class="color1E5C97 svgShape"/><path fill="#16875c" d="M814.644 580.032a.57.57 0 0 0 .7-.402l.537-1.984a.57.57 0 0 0-.402-.7.581.581 0 0 1-.363-.83l8.574-16.436 1.63.442-8.979 17.213a.58.58 0 0 0 .363.829.571.571 0 0 1 .402.7l-.537 1.984a.571.571 0 0 1-.7.402l-7.982-2.161a.571.571 0 0 1-.402-.7l.074-.274 7.085 1.917z" style="--darkreader-inline-fill:#dfe8df" class="color164F87 svgShape"/><path fill="#e6faf2" d="M784.43 557.391c1.445-.917 2.828-2.246 4.065-3.897.437-.585.854-1.209 1.25-1.87l.067-.115c1.13-1.911 2.071-4.127 2.727-6.549a26.956 26.956 0 0 0 .946-6.471l.001-.038c.035-1.989-.179-3.857-.619-5.516-.742-2.81-2.133-5.017-4.043-6.2a6.388 6.388 0 0 1 2.561.153c2.779.753 4.768 3.358 5.712 6.933.44 1.659.654 3.528.619 5.516l-.001.038a27.023 27.023 0 0 1-.946 6.47c-.656 2.422-1.597 4.637-2.727 6.549l-.067.115a22.107 22.107 0 0 1-1.25 1.87c-1.236 1.651-2.619 2.98-4.065 3.897-2 1.275-4.118 1.761-6.106 1.222a6.293 6.293 0 0 1-1.672-.734c1.191-.163 2.389-.634 3.548-1.373z" style="--darkreader-inline-fill:#fffffc" class="colorE6F0FA svgShape"/><path fill="#1e9769" d="M829.066 546.378c1.785.755 2.68 2.998 2.079 5.214l-2.045 7.551c-.6 2.216-2.504 3.702-4.427 3.453-3.081-.41-6.792-.759-9.794-1.152-2.088-.273-3.476-2.212-2.781-3.921 1.848-4.546 3.044-9.229 3.676-14.07.172-1.321 1.716-2.053 3.127-1.484 3.504 1.413 6.765 2.945 10.165 4.409z" style="--darkreader-inline-fill:#d5dfd7" class="color1E5C97 svgShape"/><path fill="#ffffff" d="m784.287 546.762 9.756 5.632c1.13-1.911 2.071-4.127 2.727-6.549a26.956 26.956 0 0 0 .946-6.471l.001-.038-11.551.714-1.879 6.712z" style="--darkreader-inline-fill:#fffffe" class="colorFFF svgShape"/><path fill="#e6f5ef" d="M791.202 549.295c1.277.737 2.922.221 3.527-1.123a27.59 27.59 0 0 0 1.468-4.116c.43-1.587.707-3.157.845-4.677l.675-.042-.001.038a27.022 27.022 0 0 1-.946 6.471c-.656 2.422-1.597 4.637-2.727 6.549l-9.756-5.632.352-1.256 6.563 3.788z" style="--darkreader-inline-fill:#fffff5" class="colorE6E7F5 svgShape"/><path fill="#1e9769" d="M782.601 542.824c-.525 1.939.088 3.793 1.369 4.14 1.281.347 2.746-.944 3.271-2.883.525-1.939-.088-3.793-1.369-4.14-1.281-.347-2.746.944-3.271 2.883z" style="--darkreader-inline-fill:#d5dfd7" class="color1E5C97 svgShape"/><path fill="#4adba4" d="M782.898 542.905c-.458 1.691.003 3.287 1.029 3.565s2.229-.868 2.688-2.559c.458-1.691-.003-3.288-1.029-3.565-1.027-.279-2.231.867-2.688 2.559z" style="--darkreader-inline-fill:#a4afbc" class="color4A59DB svgShape"/><path fill="#ffffff" d="M785.2 543.662c.141-.52.041-1-.223-1.071-.264-.071-.592.292-.733.812-.141.52-.041 1 .223 1.071.264.072.592-.292.733-.812z" style="--darkreader-inline-fill:#fffffe" class="colorFFF svgShape"/><path fill="#16875c" d="M814.478 559.345c3.002.393 6.713.742 9.794 1.152 1.922.249 3.826-1.236 4.426-3.453l2.045-7.551c.111-.409.17-.819.183-1.22.432.964.537 2.145.219 3.319l-2.045 7.551c-.6 2.216-2.504 3.702-4.427 3.453-3.081-.41-6.792-.759-9.794-1.152-1.959-.257-3.301-1.978-2.886-3.601.514.771 1.404 1.361 2.485 1.502z" style="--darkreader-inline-fill:#dfe8df" class="color164F87 svgShape"/><path fill="#ffffff" d="m822.82 549.06 4.29 1.162a1.186 1.186 0 0 0 .619-2.289l-4.288-1.161a1.186 1.186 0 1 0-.621 2.288z" style="--darkreader-inline-fill:#fffffe" class="colorFFF svgShape"/><path fill="#cfebe0" d="m821.931 548.294 5.332 1.444a.646.646 0 0 0 .792-.455l.283-1.043a.687.687 0 0 0 .021-.127c.277.131.43.445.347.751l-.283 1.043a.646.646 0 0 1-.792.454l-5.332-1.444a.646.646 0 0 1-.475-.665.58.58 0 0 0 .107.042z" style="--darkreader-inline-fill:#ffffea" class="colorCFD2EB svgShape"/><path fill="#ffffff" d="m826.042 552.669.667.181a.885.885 0 1 0 .462-1.709l-.666-.18a.884.884 0 1 0-.463 1.708z" style="--darkreader-inline-fill:#fffffe" class="colorFFF svgShape"/><path fill="#cfebe0" d="m825.483 552.308 1.521.412a.443.443 0 0 0 .543-.312l.232-.855a.419.419 0 0 0 .008-.189.44.44 0 0 1 .124.435l-.232.855a.443.443 0 0 1-.543.312l-1.521-.412a.443.443 0 0 1-.32-.354.44.44 0 0 0 .188.108z" style="--darkreader-inline-fill:#ffffea" class="colorCFD2EB svgShape"/><path fill="#ffffff" d="M823.695 551.116a1.05 1.05 0 1 0-2.028-.55 1.05 1.05 0 0 0 2.028.55z" style="--darkreader-inline-fill:#fffffe" class="colorFFF svgShape"/><path fill="#cfebe0" d="M822.323 551.69c.56.152 1.137-.18 1.289-.74.062-.229.04-.46-.042-.664.15.239.206.536.126.83a1.047 1.047 0 0 1-1.986.116c.134.216.347.386.613.458z" style="--darkreader-inline-fill:#ffffea" class="colorCFD2EB svgShape"/><path fill="#1e9769" d="M829.077 562.501c.515.07 1.028.087 1.531.052 3.372-3.248 4.796-9.382 4.109-12.887a7.194 7.194 0 0 0-1.428-.918c1.292 3.705-.431 10.137-4.212 13.753z" style="--darkreader-inline-fill:#d5dfd7" class="color1E5C97 svgShape"/><path fill="#ccf1e3" d="M871.301 733.548c1.827 6.805 2.957 12.912 3.555 18.591 1.539 14.506 1.105 36.843-1.549 50.961l-7.438-.73s-10.508-38.159-15.474-57.672c-1.277-4.951-2.267-9.374-2.782-12.71-3-19.042 8.113-72.988 8.826-76.48l.03-.134.01-.05 29.93-4.181c15.9 37.836-2.962 47.353-15.108 82.405z" style="--darkreader-inline-fill:#3e2420" class="colorF1CCCD svgShape"/><path fill="#334d43" d="M885.413 702.458c-4.224 8.69-9.622 18.143-14.112 31.09 1.656 6.163 3.542 12.571 5.721 20.041l-25.886 3.616c-1.276-4.951-3.008-21.882-3.523-25.218-3-19.042 8.113-72.988 8.826-76.48l.03-.134.01-.05 29.93-4.181c10.037 23.87 6.229 36.461-.996 51.316z" style="--darkreader-inline-fill:#3e3b3b" class="color33394D svgShape"/><path fill="#263d34" d="M885.413 702.458c-4.224 8.69-9.622 18.143-14.112 31.09 1.656 6.163 3.542 12.571 5.721 20.041l-4.776.667c-.819-7.391-7.348-19.541-9.54-19.151 1.942-.481 19.733-35.32 21.087-47.386l1.62 14.739z" style="--darkreader-inline-fill:#fffbd7" class="color262B3D svgShape"/><path fill="#ccf1e3" d="m902.636 811.811 18.236-21.137s-13.39-20.913-24.225-34.818c-2.572-3.328-4.999-6.237-7.073-8.391-14.837-15.368-22.586-92.816-22.586-92.816h24.531c19.231 17.678 14.388 42.019 14.955 66.065.196 8.335 2.877 16.371 7.378 23.388a73.932 73.932 0 0 1 2.566 4.312c5.611 10.239 8.938 22.247 12.008 41.971l3.797 12.802-29.587 8.624z" style="--darkreader-inline-fill:#3e2420" class="colorF1CCCD svgShape"/><path fill="#436156" d="m917.656 747.995-7.089 3.247-14.404 6.591c-2.572-3.327-4.517-8.214-6.59-10.368-14.837-15.368-24.418-93.122-24.418-93.122l25.318.289 1.045.016c18.587 17.086 14.685 40.398 14.915 63.651.094 9.489 3.162 18.752 8.949 26.272.85 1.102 1.623 2.235 2.274 3.424z" style="--darkreader-inline-fill:#504c4b" class="color434A61 svgShape"/><path fill="#334d43" d="m917.656 747.995-7.089 3.247c-2.299-3.601-5.754-10.44-7.58-15.06-4.823-12.207-1.857-28.784-3.014-52.093-.853-17.174-15.368-25.519-15.368-25.519l5.868-3.938 1.045.016c18.587 17.086 14.685 40.398 14.915 63.651.094 9.489 3.162 18.752 8.949 26.272.85 1.102 1.623 2.235 2.274 3.424z" style="--darkreader-inline-fill:#3e3b3b" class="color33394D svgShape"/><path fill="#45d9a0" d="M903.977 604.655c-.209 15.464-4.019 42.277-5.465 51.922a4.97 4.97 0 0 1-2.074 3.359 4.834 4.834 0 0 1-2.058.82c-6.928 1.029-13.712 1.592-20.318 1.575-5.948 0-11.751-.449-17.393-1.43-2.203-.386-3.89-2.155-4.132-4.373-.788-7.298 1.502-23.308 1.132-38.885-.241-9.854 2.851-35.076 21.252-39.044l10.779-.098c12.088 3.135 17.152 12.378 17.987 18.839.258 1.914.338 4.421.29 7.315z" style="--darkreader-inline-fill:#824542" class="colorD94559 svgShape"/><path fill="#334d43" d="M864.996 800.24c-11.448 4.395-24.15 3.942-24.942 14.274l36.018-1.257c.424-4.379-.305-8.718-2.184-13.017h-8.892z" style="--darkreader-inline-fill:#ffeecb" class="color33394D svgShape"/><path fill="#436156" d="M920.871 790.673c-9.163 8.148-22.872 13.894-19.97 23.841l33.262-11.12c-1.147-4.247-2.686-11.066-5.961-14.427l-7.331 1.706zM878.28 569.092c3.509 1.085 4.927 2.838 9.415.81 6.829-3.085 12.594-14.906 3.525-20.251-.627-1.871-1.259-2.6-3.649-3.119-2.389-.518-4.839.522-8.134.465-3.294-.056-7.954-3.448-10.826 1.343-2.872 4.79 4.249 8.515 7.818 10.874 3.571 2.357 2.412 6.426 1.851 9.878z" style="--darkreader-inline-fill:#f2dfbd" class="color434A61 svgShape"/><path fill="#cbf9e7" d="M885.852 578.529c-3.922 3.922-7.622 4.674-10.932.069l.932-7.566.389-3.186h8.679l.167 1.975.765 8.708z" style="--darkreader-inline-fill:#ffeecd" class="colorF9CBCB svgShape"/><path fill="#b4f0d9" d="M885.211 571.23c-2.145 2.581-8.055 3.328-9.657 2.222l.687-5.604 8.729-3.663.241 7.045z" style="--darkreader-inline-fill:#ffdebf" class="colorF0B4B4 svgShape"/><path fill="#cbf9e7" d="M871.794 552.677c-1.597 4.502-3.162 14.456.658 18.157 2.419 2.343 11.195 1.437 12.987-5.007 2.117-1.533 3.671-5.27 1.72-6.966-1.391-1.208-3.167 1.985-5.592 1.457-.92-.2 1.906-6.348-.966-7.414-2.872-1.065-5.912 1.243-8.807-.227z" style="--darkreader-inline-fill:#ffeecd" class="colorF9CBCB svgShape"/><path fill="#cbf9e7" d="M889.307 617.205s-9.638 11.607-18.388 17.993c-2.094 1.514-4.121 2.727-5.962 3.428-12.75 4.84-42.175 1.028-42.175 1.028-9.269 4.729-20.982 1.925-23.295-1.567-4.092-6.246 11.095-.355 12.562-4.09 0 0-6.984-3.802-5.026-6.577 1.945-2.791 14.12 4.646 14.12 4.646 12.307-5.067 24.7-7.86 36.418-8.658a218.451 218.451 0 0 1 2.848-3.937c7.023-9.327 15.165-17.817 26.242-23.458 5.367 7.018 5.209 14.102 2.656 21.192z" style="--darkreader-inline-fill:#3c1b16" class="colorF9CBCB svgShape"/><path fill="#5fe3b1" d="m873.65 635.505-15.218-17.007c7.023-9.327 20.473-29.771 29.852-21.613 12.488 10.861-5.884 32.235-14.634 38.62z" style="--darkreader-inline-fill:#e49f90" class="colorE35F72 svgShape"/><path fill="#3d5c50" d="M541.637 725.674a4.91 4.91 0 0 0-2.732-2.417c-1.774-.625-3.613-.449-5.441-.21-.077.01-.08.131 0 .123 1.523-.148 3.099-.313 4.6.079 1.245.326 2.495 1.177 2.973 2.412a6.655 6.655 0 0 1 .384 3.338c-.177 1.251-.75 2.417-1.297 3.54-.674 1.384-1.93 2.477-2.953 3.606-.034.037.018.09.056.056a29.943 29.943 0 0 0 1.616-1.611c.514-.554.971-1.158 1.484-1.709a6.765 6.765 0 0 0 1.766-3.612c.185-1.202.105-2.496-.456-3.595z" style="--darkreader-inline-fill:#f7e4c1" class="color3D415C svgShape"/><path fill="#3d5c50" d="M541.27 727.001c-1.625-5.131-5.184-3.537-6.949-4.82-1.764-1.283-2.758-4.548-8.388-3.771-1.119.155-2.657.94-4.198 2.254-1.139.801-2.249 1.663-3.273 2.686-1.473 1.472-2.955 3.401-3.76 5.569-.785 2.115-.914 4.565-1.916 6.559-1.04 2.069-3.044 2.8-4.244 4.677-1.196 1.87-1.99 4.24-1.717 6.658a13.811 13.811 0 0 0-.331 1.997c-.543 5.889 3.807 5.248 6.593 9.679s6.18 6.255 8.476 6.334c2.295.08 13.81 5.736 14.181-5.518.262-7.927 6.314-7.755 1.913-18.95.001-.001 5.237-8.223 3.613-13.354zm-25.489 5.598c-.419 7.468-6.936 7.091-8.84 13.765.077-2.193.713-4.39 2.155-5.73 1.443-1.341 3.181-2.163 4.293-4.016 1.076-1.793 1.328-4.102 1.802-6.206.263-1.167.562-2.282 1.053-3.331a12.606 12.606 0 0 1 1.817-2.801 19.824 19.824 0 0 1 2.262-2.256c-2.291 2.483-4.293 6.122-4.542 10.575z" style="--darkreader-inline-fill:#f7e4c1" class="color3D415C svgShape"/><path fill="#66f2bd" d="M563.747 800.635s-1.17 9.357-1.17 9.859c0 .169-3.941.441-9.4.571-10.929.255-27.945-.083-31.656-3.083-6.076-4.906-4.792-22.353-3.09-34.226.951-6.633 2.031-11.525 2.031-11.525 1.131-7.652-1.665-18.107 6.934-12.91 11.643 9.637 4.149 45.195 7.638 46.885.864.416 22.615 3.316 28.713 4.429z" style="--darkreader-inline-fill:#efa394" class="colorF26679 svgShape"/><path fill="#cbf9e7" d="M304.169 787.319c.77 3.456 13.788-6.398 19.722-5.181 3.246.672 9.64 4.742 13.614 6.324 17.128 6.786 39.462 20.053 54.561 22.977 20.318 3.918 82.785-.587 82.785-.587l3.778-21.032s-20.398-14.378-36.574-10.866c-16.177 3.527-40.306 17.149-51.011 10.6-7.01-4.282-32.912-10.439-50.222-12.734-3.204-.419-6.115-.713-8.55-.839 0 0-2.767-8.686-5.874-9.385-4.142-.924-6.846 4.515-12.079 9.119-6.06 5.317-11.158 7.056-10.15 11.604z" style="--darkreader-inline-fill:#3c1b16" class="colorF9CBCB svgShape"/><path fill="#2c473d" d="m478.629 789.82-3.779 21.033s-35.576 2.566-61.766 2.135c-8.514-.136-16.033-.589-21.018-1.55a69.766 69.766 0 0 1-4.336-.991c-13.883-3.593-33.727-12.171-48.924-18.344a5.174 5.174 0 0 1-2.943-6.471l1.586-4.63 1.037-3.033a5.163 5.163 0 0 1 5.093-3.496c20.684.904 43.048 8.664 49.645 12.695 4.39 2.685 11.485 2.035 19.202.169 11.098-2.681 23.484-7.885 30.964-9.296 13.025-2.459 35.239 11.779 35.239 11.779z" style="--darkreader-inline-fill:#343234" class="color2C2F47 svgShape"/><path fill="#2c473d" d="m415.696 793.14-2.613 19.848c-8.514-.136-16.033-.589-21.018-1.55a69.766 69.766 0 0 1-4.336-.991c-.402-.362-6.863-8.506-8.549-16.184-1.683-7.677 2.25-9.457-5.71-9.831-7.957-.377-14.231-7.814-20.318-7.089-4.957.589-12.591 5.359-15.703 3.657l1.037-3.033a5.163 5.163 0 0 1 5.093-3.496c20.684.904 43.048 8.664 49.645 12.695 4.39 2.685 11.485 2.035 19.202.169 1.755 3.124 3.27 5.805 3.27 5.805z" style="--darkreader-inline-fill:#343234" class="color2C2F47 svgShape"/><path fill="#cbf9e7" d="M393.843 808.99c17.128 8.481 59.025-.861 80.786 1.615.853-7.64.9-12.125 1.264-19.555-9.235-5.499-17.455-13.881-29.546-13.041-12.09.825-38.86 16.26-38.776 3.666.168-21.872-1.539-35.683-9.348-54.239a182.627 182.627 0 0 0-3.904-8.676c-1.246-2.602 4.338-5.667 3.75-8.494-.378-1.819-5.164-3.078-8.662-4.995-5.891-3.233-14.916-4.188-17.995-2.243-2.953 1.861 11.432 7.487 14.427 13.896.881 2.379 1.021 7.979 1.175 12.079.938 24.196-7.822 72.725 6.829 79.987z" style="--darkreader-inline-fill:#3c1b16" class="colorF9CBCB svgShape"/><path fill="#3d5c50" d="M478.736 789.558c-.169 3.438-.775 6.633-1.464 9.827-.797 3.708-1.705 7.419-2.164 11.525-13.294.782-59.788 6.651-79.622.37-1.306-.416-2.495-.879-3.553-1.403-13.628-6.758-9.723-49.983-9.867-75.455-.018-3.09 2.297-5.692 5.366-6.055l9.041-1.062c.147-.018.291-.029.438-.036 2.638-.118 5.086 1.482 5.98 3.998 5.865 16.481 4.835 30.339 4.68 50.41-.057 8.887 13.029 3.514 24.988-.707 4.989-1.762 9.78-3.324 13.337-3.568 12.091-.84 23.605 6.654 32.84 12.156z" style="--darkreader-inline-fill:#484445" class="color3D415C svgShape"/><path fill="#2c473d" d="M477.272 799.385c-.797 3.708-1.705 7.419-2.164 11.525-13.294.782-59.788 6.651-79.622.37 14.335.686 36.316 1.615 46.146-3.442 7.161-3.684 14.663-1.467 21.29 1.135 7.09 2.783 7.906-19.124 13.953-20.782l.397 11.194z" style="--darkreader-inline-fill:#343234" class="color2C2F47 svgShape"/><path fill="#45d9a0" d="M527.999 788.596c-.197.284-.398.567-.603.843-6.188 8.474-14.429 13.653-22.54 16.801a65.713 65.713 0 0 1-4.91 1.68c-13.319 3.973-25.052 3.004-25.052 3.004-1.084-2.904-1.655-5.901-1.644-9.009.014-4.354 1.159-8.916 3.625-13.725 0 0 5.488-9.633 12.185-19.22 2.143-3.065 4.408-6.127 6.654-8.865 3.704-4.515 6.944-8.875 9.988-10.093 7.929-3.174 14.569-2.361 14.569-2.361l9.44 3.672c5.513 12.784 5.064 27.547-1.712 37.273z" style="--darkreader-inline-fill:#d38a7e" class="colorD94559 svgShape"/><path fill="#35bf8a" d="M527.396 789.44c-6.188 8.474-14.429 13.653-22.54 16.801a65.713 65.713 0 0 1-4.91 1.68c.151-2.006.341-4.598.732-7.29.657-4.497 8.241-31.086 8.241-31.086l8.42-.865s2.347 13.316.38 17.623-4.027 9.737-1.123 10.208c2.017.322 7.063-4.368 10.8-7.071z" style="--darkreader-inline-fill:#c9867a" class="colorBF3547 svgShape"/><path fill="#35bf8a" d="M504.856 806.241c-15.204 5.904-29.962 4.684-29.962 4.684-1.084-2.904-1.655-5.901-1.644-9.009 8.503.632 10.319 4.005 14.249 3.862 3.934-.14 3.514-5.337 2.179-11.022-1.335-5.689 1.263-12.921-.352-20.286-.467-2.135-.481-3.97-.266-5.499 2.143-3.065 4.408-6.127 6.654-8.865 2.599 2.455 4.935 4.702 5.057 4.946.252.498 3.406 33.967 4.085 41.189z" style="--darkreader-inline-fill:#c9867a" class="colorBF3547 svgShape"/><path fill="#cbf9e7" d="M520.262 747.654c.303 12.378 8.13 13.214 9.456 3.67l1.129-3.899 2.223-7.692.3-1.059-6.58-2.77-1.746 3.123-2.118 3.846-2.664 4.781z" style="--darkreader-inline-fill:#ffeecd" class="colorF9CBCB svgShape"/><path fill="#bdf9e2" d="M522.926 742.873c.829.935 1.835 1.958 2.7 2.611 1.852 1.394 5.204 1.94 5.204 1.94h.018l2.223-7.692-2.893-1.253-5.134.547-2.118 3.847z" style="--darkreader-inline-fill:#ffe3c3" class="colorF9BDBD svgShape"/><path fill="#cbf9e7" d="M538.706 728.912s2.382 17.178-6.328 16.99c-8.71-.188-10.675-9.472-10.675-9.472s-3.663-2.558-2.285-5.064c1.378-2.507 3.367.689 3.367.689s8.131-1.754 9.917-7.582c.945 2.477 4.779.391 6.004 4.439z" style="--darkreader-inline-fill:#ffeecd" class="colorF9CBCB svgShape"/><path fill="#3d5c50" d="M538.913 731.116c-.445-.377-2.983-.283-3.265-4.137 0 0-1.362 3.432-4.558 4.652 0 0 .555-3.044-.527-3.983 0 0-.93 3.185-3.28 5.582-2.35 2.397-2.501 6.203-2.378 7.096 0 0-3.112-5.813-1.8-10.684 1.312-4.872 4.037-5.811 4.037-5.811s7.953-2.317 10.924 2.14c1.787 2.68.847 5.145.847 5.145z" style="--darkreader-inline-fill:#f7e4c1" class="color3D415C svgShape"/><path fill="#2c473d" d="M302.056 785.039c.443-.524 1.4-1.505 2.678-2.753l.249-.243.188-.182a265.356 265.356 0 0 1 4.335-4.099l.114-.106c.843-.78 1.716-1.579 2.604-2.382l.281-.254a288.02 288.02 0 0 1 2.588-2.311l.329-.29c.365-.321.727-.638 1.087-.951l.211-.184c.406-.352.806-.696 1.202-1.033l.344-.293c.313-.265.62-.524.923-.778l.295-.247c.372-.31.735-.608 1.089-.896l.285-.23a76.314 76.314 0 0 1 2.023-1.58l.185-.136c.24-.178.47-.343.688-.495l.22-.154c.256-.175.497-.335.714-.468l.083-.048a7.544 7.544 0 0 1 .648-.349c.164-.075.313-.134.427-.156.733-.142 1.578.608 2.424 1.798l.004.004c2.412 3.39 4.655 9.793 4.655 9.793-1.375.865-2.207-.153-4.783 1.574a3.643 3.643 0 0 0-1.564 2.248c-.316 1.338-1.517 2.383-2.895 2.615-.507.085-1.063.206-1.659.367a24.058 24.058 0 0 0-3.226 1.121 27.938 27.938 0 0 0-2.79 1.373 28.841 28.841 0 0 0-2.719 1.731c-.286.205-.568.399-.844.582a22.28 22.28 0 0 1-1.755 1.055l-.001.001c-.175.095-.349.187-.521.272l-.001-.001c-5.211 2.604-8.183.918-8.74-1.219a2.983 2.983 0 0 1 .625-2.696zM370.031 700.381c.66.04 1.971.216 3.675.486l.331.052.249.041a257.154 257.154 0 0 1 5.82 1.019c1.089.203 2.211.418 3.345.642l.358.071a287.813 287.813 0 0 1 5.057 1.052l.264.057c.507.111 1.003.223 1.493.334l.425.098c.386.089.764.178 1.134.266l.361.086c.454.11.894.219 1.321.327.117.029.228.059.342.088.334.086.657.171.97.255l.329.089c.384.105.749.209 1.091.311l.211.064c.277.084.536.166.78.247l.246.082c.283.097.545.192.774.283l.085.036a7.111 7.111 0 0 1 .644.301c.152.084.283.165.367.241.532.486.439 1.572.006 2.913l-.001.005c-1.234 3.822-5.41 8.823-5.41 8.823-1.527-.152-.639-1.371-3.462-2.37a3.52 3.52 0 0 0-2.642.085c-1.218.526-2.718.199-3.693-.733a16.923 16.923 0 0 0-1.241-1.073 22.68 22.68 0 0 0-2.728-1.85 26.373 26.373 0 0 0-2.671-1.369 27.692 27.692 0 0 0-2.907-1.106 24.96 24.96 0 0 1-.937-.318 21.797 21.797 0 0 1-1.828-.75l-.002-.001a15.166 15.166 0 0 1-.51-.246v-.001c-5.02-2.532-5.427-5.804-4.094-7.468a2.884 2.884 0 0 1 2.448-1.069z" style="--darkreader-inline-fill:#fff4d1" class="color2C2F47 svgShape"/><path fill="#cbf9e7" d="M553.919 809.682c-2.394.327-4.153-3.765-5.14-2.774-.642.639-2.466 2.24-5.384 2.968-.424.108-.869.197-1.339.262-.908.122-1.902.154-2.983.057-1.213-.108-1.863-.456-2.135-.926-.984-1.658 2.631-4.867 2.631-4.867s.951-.488 2.308-1.048c2.527-1.044 6.464-2.347 8.273-1.231 2.786 1.716 6.16 7.229 3.769 7.559z" style="--darkreader-inline-fill:#ffeecd" class="colorF9CBCB svgShape"/><path fill="#66f2bd" d="M542.071 811.358c0 .503-38.48 3.467-44.046-1.03-.764-.617-1.418-1.461-1.97-2.487v-.004c-6.31-11.697.19-47.334.19-47.334 1.131-7.648 13.797-19.751 19.389-11.406 4.795 7.15 1.823 23.57-.337 35.5-.485 2.656-.922 5.086-1.231 7.146-.549 3.686-.664 6.173.194 6.586.38.19 4.702.653 9.913 1.213 5.272.563 11.464 1.224 15.415 1.784a2.765 2.765 0 0 1 2.29 2.028c.061.219.093.449.097.685.025 1.655.054 3.841.075 5.398.004.251.004.484.007.7.011.665.014 1.121.014 1.221z" style="--darkreader-inline-fill:#efa394" class="colorF26679 svgShape"/><path fill="#ffffff" style="--darkreader-inline-fill:#fffffe" d="m580.424 792.741-2.083-1.491 10.869-.73 2.407 1.551z" class="colorFFF svgShape"/><path fill="#4ff5b6" d="M396.221 756.717s.014-.183.33-.488c-.211.305-.33.488-.33.488z" style="--darkreader-inline-fill:#ffc892" class="colorF58C4F svgShape"/><path fill="#2c473d" d="M432.558 780.969s-13.416 9.687-18.003 8.797c-4.479-.865-10.187.73-10.374.798.147-.115 3.574-3.123 1.919-5.571-1.705-2.527-1.825-6.368-.795-14.702 1.03-8.33 1.31-17.601-3.84-16.198-3.155.861-4.415 1.655-4.914 2.135 1.009-1.45 4.145-5.671 6.974-6.443 3.428-.93 1.687-5.617-.187-11.984-1.507-5.125-5.351-8.826-6.428-10.534 2.638-.118 5.086 1.482 5.98 3.998 5.865 16.481 4.835 30.339 4.68 50.41-.057 8.888 13.029 3.515 24.988-.706z" style="--darkreader-inline-fill:#fff4d1" class="color2C2F47 svgShape"/><path fill="#b2d1c5" d="M561.952 814.614h-25.674a.575.575 0 0 1-.575-.575v-2.54c0-.318.258-.575.575-.575h25.674c.318 0 .575.258.575.575v2.54a.574.574 0 0 1-.575.575z" style="--darkreader-inline-fill:#f4e9d4" class="colorB2B5D1 svgShape"/><path fill="#b2d1c5" d="M607.854 770.793h-41.89a3.63 3.63 0 0 0-3.476 2.583l-11.007 36.561c-.701 2.33 1.043 4.676 3.476 4.676h41.89a3.63 3.63 0 0 0 3.476-2.583l11.007-36.561c.701-2.329-1.043-4.676-3.476-4.676z" style="--darkreader-inline-fill:#f4e9d4" class="colorB2B5D1 svgShape"/><path fill="#afdbca" d="M589.309 793.445a.496.496 0 0 0-.268-.849l-2.235-.343a.497.497 0 0 1-.372-.275l-.984-2.036a.497.497 0 0 0-.891-.007l-1.017 2.02a.497.497 0 0 1-.376.269l-2.24.307a.496.496 0 0 0-.282.845l1.606 1.591c.116.115.168.28.139.441l-.4 2.225a.498.498 0 0 0 .717.53l2.01-1.036a.494.494 0 0 1 .462.004l1.993 1.068a.497.497 0 0 0 .725-.518l-.364-2.232a.5.5 0 0 1 .146-.438l1.631-1.566z" style="--darkreader-inline-fill:#f3ebd9" class="colorAFB5DB svgShape"/><path fill="#c8e3d9" d="M1093.991 812.132v.852c0 .923-.744 1.667-1.658 1.667H210.845a1.662 1.662 0 0 1-1.658-1.667v-.852c0-.923.744-1.667 1.658-1.667h881.488a1.661 1.661 0 0 1 1.658 1.667z" style="--darkreader-inline-fill:#434039" class="colorC8CBE3 svgShape"/><path fill="#c8e3d9" d="M1152.761 814.648h-38.711a2.052 2.052 0 0 1-2.052-2.052v-.076c0-1.134.919-2.052 2.052-2.052h38.711c1.133 0 2.052.919 2.052 2.052v.076a2.051 2.051 0 0 1-2.052 2.052z" style="--darkreader-inline-fill:#fffbe3" class="colorC8CBE3 svgShape"/><path fill="#304d42" d="M491.589 94.354s-6.541-4.766-2.243-11.774c4.298-7.008 13.83-5.046 15.621-1.37 3.535-.592 6.294 1.781 7.834 3.987 1.214 1.74 2.663 5.233.887 12.054-1.775 6.821 7.974 10.715 9.298 15.324.852 2.965-.467 6.167-6.495 6.868-6.027.701-22.147-5.84-22.147-5.84-1.911-.004-9.043-7.109-2.755-19.249z" style="--darkreader-inline-fill:#fff0cd" class="color30334D svgShape"/><path fill="#c0e3d6" d="M445.21 252.899c2.809-14.233 4.343-25.872 3.952-36.125-.277-7.52-1.02-14.422-1.625-21.363l43.61-24.965 13.856-7.935h-26.554s-37.878 12.281-44.302 22.987c-4.32 7.205-3.426 23.44-1.398 38.165 2.142 15.442 5.543 29.235 5.543 29.235h6.918z" style="--darkreader-inline-fill:#49322c" class="colorE3C0C1 svgShape"/><path fill="#233830" d="m445.318 252.584 2.236 7.311-1.399 11.363-2.25.109-2.052-9.948-3.633 6.605c-.978 1.778-2.447 3.233-4.46 3.494-5.309.688-15.684.867-16.114-2.616-.442-3.58 9.615-3.734 12.552-7.669 2.845-3.812 6.264-8.798 6.264-8.798l8.856.149zM432.749 223.664l9.032 1.486 7.381-8.376 32.6-36.968 9.385-9.359 7.949-7.935H478.45s-37.878 12.281-44.302 22.987c-4.321 7.205-3.427 23.441-1.399 38.165z" style="--darkreader-inline-fill:#ffffda" class="color232538 svgShape"/><path fill="#d8fff0" d="M437.377 253.322c7.936-6.802 13.209-15.424 17.328-25.237 2.67-6.361 4.749-13.187 6.487-20.279 0 0 40.41-3.413 51.041-18.881 7.243-10.543 1.436-26.413 1.436-26.413-6.903.214-15.96-1.297-21.679.554-21.553 6.965-44.693 16.147-50.071 31.061-3.175 8.804-5.366 18.541-7.558 29.336-1.814 8.918-3.448 19.28-5.842 29.71l8.858.149z" style="--darkreader-inline-fill:#34110e" class="colorFFD8D9 svgShape"/><path fill="#304d42" d="m434.361 223.463 13.479 3.061 6.865 1.562c2.67-6.361 4.749-13.187 6.487-20.279 0 0 23.795-2.015 39.667-9.925 4.812-2.406 8.906-5.353 11.375-8.956 6.626-9.648 2.33-23.768 1.549-26.086a23.015 23.015 0 0 1-.114-.327h-.05c-6.903.201-16.728-1.953-22.434-.101-21.553 6.965-44.92 16.5-50.298 31.414-3.188 8.803-4.334 18.842-6.526 29.637z" style="--darkreader-inline-fill:#393638" class="color30334D svgShape"/><path fill="#cccccc" d="M500.859 197.881c4.812-2.406 8.906-5.353 11.375-8.956 6.626-9.648 2.33-23.768 1.549-26.086a23.015 23.015 0 0 1-.114-.327h-.05l-6.752 2.808c4.81 12.194 2.065 22.901-6.008 32.561z" style="--darkreader-inline-fill:#fffad6" class="colorCCC svgShape"/><path fill="#45d9a0" d="M487.487 134.558c-4.536 5.481-12.644 11.834-17.288 17.225-2.289-1.985-4.955-2.967-6.872-5.496 7.801-11.83 16.481-23.775 26.449-33.921-1.858 7.719-.12 14.584-2.289 22.192z" style="--darkreader-inline-fill:#d38a7e" class="colorD94559 svgShape"/><path fill="#45d9a0" d="M476.534 163.154c10.682-1.423 19.449 3.01 30.333 2.166a36.018 36.018 0 0 0 4.031-.541c2.532-.504 4.296-2.821 4.031-5.391l-3.59-35.016-3.162-10.77-.73-2.469-5.662-3.036-6.226.215c-9.284 4.031-15.686 14.939-10.056 26.992 5.467 11.715-8.969 27.85-8.969 27.85z" style="--darkreader-inline-fill:#d38a7e" class="colorD94559 svgShape"/><path fill="#d8fff0" d="M495.287 108.408c0 3.524 3.272 3.524 6.554 0l-.771-4.259-.476-2.649-4.935 2.468-.364 4.346-.008.094z" style="--darkreader-inline-fill:#fff4d4" class="colorFFD8D9 svgShape"/><path fill="#cccccc" d="M503.655 133.227c2.482 6.751 5.001 22.861 3.212 32.094a36.018 36.018 0 0 0 4.031-.541c2.532-.504 4.296-2.821 4.031-5.391l-3.59-35.016-3.162-10.77c-2.784 2.192-4.382 4.91-4.382 4.91s-3.188 6.489-.14 14.714z" style="--darkreader-inline-fill:#fffad6" class="colorCCC svgShape"/><path fill="#d8fff0" d="M473.702 151.16c2.834 4.311 4.567 3.535 8.365 3.764 4.949-.284 10.254.477 15.256.086 6.035-.471 14.909 1.478 19.82-2.531s-1.312-23.793-2.763-28.244c-1.926-5.909-4.084-8.485-6.923-13.161 1.273 4.53 2.546 8.856 3.82 13.306-.8 6.89-1.471 13.818-2.184 20.707-4.879.659-8.545 1.093-13.695 1.968-4.546.772-10.752 1.832-15.486 3.125-4.174-2.27-9.044-3.33-6.21.98z" style="--darkreader-inline-fill:#fff4d4" class="colorFFD8D9 svgShape"/><path fill="#45d9a0" d="M495.233 146.447c.509 2.753 1.436 6.424 2.149 9.284 6.383.299 14.064 1.558 20.016-3.451 5.951-5.009 1.945-25.303-.459-30.853-2.581-5.959-4.733-7.858-9.498-10.377-9.116 9.165.46 21.894 1.629 34.045-4.515.575-9.345.622-13.837 1.352z" style="--darkreader-inline-fill:#d38a7e" class="colorD94559 svgShape"/><path fill="#cccccc" d="M495.412 106.93c.337.043 1.427.434 1.819.365 2.045-.361 2.957-1.293 3.84-3.146l-.476-2.649-4.935 2.468-.248 2.962z" style="--darkreader-inline-fill:#fffad6" class="colorCCC svgShape"/><path fill="#d8fff0" d="M491.481 85.47s2.502 5.302 10.902 7.267c0 0 2.621-2.86 3.753-1.072 1.132 1.787-1.609 4.944-1.609 4.944-.315 5.193-4.051 9.313-7.923 8.34-8.804-2.213-5.123-19.479-5.123-19.479z" style="--darkreader-inline-fill:#fff4d4" class="colorFFD8D9 svgShape"/><path fill="#304d42" d="m437.377 253.322 2.235 7.311-1.399 11.363-2.25.11-2.052-9.947-3.633 6.605c-.978 1.778-2.447 3.234-4.46 3.494-5.309.688-15.684.867-16.114-2.616-.442-3.58 9.615-3.734 12.552-7.67 2.844-3.812 6.263-8.798 6.263-8.798l8.858.148z" style="--darkreader-inline-fill:#fff0cd" class="color30334D svgShape"/><path fill="#c8e3d9" d="m488.489 167.375-7.37-22.125a4.281 4.281 0 0 0-3.741-2.201h-32.93c-3.097 0-5.168 3.187-3.91 6.017l8.564 19.268a4.605 4.605 0 0 0 4.209 2.735h32.515a2.807 2.807 0 0 0 2.663-3.694z" style="--darkreader-inline-fill:#fffbe3" class="colorC8CBE3 svgShape"/><circle cx="463.119" cy="158.529" r="3.125" fill="#ffffff" style="--darkreader-inline-fill:#fffffe" class="colorFFF svgShape"/><path fill="#b5ffe3" d="M647.224 148.787H772.47s7.367-4.899-9.297-7.094c-16.664-2.194-11.928-14.813-15.963-12.618-4.034 2.195-7.907 9.461-15.086-.255-10.349-14.009-18.945-24.707-24.383-9.894-5.438 14.813-11.73 11.727-14.559 8.418-5.087-5.949-13.858-9.601-18.419 0s-11.591-1.521-16.664-2.109c-4.736-.549-4.034 13.167-11.402 14.813-7.367 1.646-14.033 0-13.858 3.566.176 3.565 12.806 5.173 14.385 5.173z" style="--darkreader-inline-fill:#413e37" class="colorB5E1FF svgShape"/></svg>