<svg xmlns="http://www.w3.org/2000/svg" xmlns:xlink="http://www.w3.org/1999/xlink" width="500" zoomAndPan="magnify" viewBox="0 0 375 374.999991" height="500" preserveAspectRatio="xMidYMid meet" version="1.0"><defs><g/><clipPath id="018ff91e6f"><path d="M 2.648438 121 L 109 121 L 109 235.535156 L 2.648438 235.535156 Z M 2.648438 121 " clip-rule="nonzero"/></clipPath></defs><path fill="#1ed891" d="M 74.660156 163.609375 C 76.707031 165.632812 80.003906 165.617188 82.027344 163.578125 C 84.054688 161.539062 84.035156 158.25 81.992188 156.230469 C 69.765625 144.148438 49.964844 144.238281 37.851562 156.429688 C 25.734375 168.625 25.828125 188.371094 38.050781 200.453125 C 44.167969 206.492188 52.171875 209.492188 60.167969 209.457031 C 68.160156 209.417969 76.140625 206.347656 82.199219 200.253906 C 84.222656 198.214844 84.207031 194.925781 82.164062 192.90625 C 80.121094 190.886719 76.824219 190.902344 74.796875 192.9375 C 66.722656 201.058594 53.53125 201.117188 45.386719 193.070312 C 37.246094 185.023438 37.183594 171.867188 45.253906 163.742188 C 53.324219 155.625 66.515625 155.5625 74.660156 163.609375 Z M 74.660156 163.609375 " fill-opacity="1" fill-rule="nonzero"/><g clip-path="url(#018ff91e6f)"><path fill="#1ed891" d="M 108.277344 200.164062 C 108.246094 193.226562 105.503906 186.714844 100.5625 181.828125 C 98.523438 179.8125 98.507812 176.515625 100.53125 174.480469 C 110.636719 164.308594 110.5625 147.828125 100.359375 137.746094 C 77.914062 115.566406 41.554688 115.730469 19.3125 138.117188 C 8.539062 148.960938 2.644531 163.339844 2.714844 178.605469 C 2.785156 193.871094 8.8125 208.195312 19.683594 218.9375 C 30.910156 230.027344 45.609375 235.53125 60.285156 235.464844 C 74.960938 235.398438 89.609375 229.761719 100.730469 218.566406 C 105.628906 213.640625 108.308594 207.101562 108.277344 200.164062 Z M 93.332031 211.253906 C 75.132812 229.566406 45.386719 229.703125 27.019531 211.558594 C 18.125 202.765625 13.191406 191.046875 13.132812 178.554688 C 13.078125 166.066406 17.902344 154.304688 26.714844 145.429688 C 44.910156 127.117188 74.660156 126.980469 93.027344 145.125 C 99.148438 151.175781 99.195312 161.066406 93.125 167.167969 C 87.0625 173.269531 87.109375 183.160156 93.226562 189.210938 C 96.191406 192.140625 97.835938 196.046875 97.855469 200.210938 C 97.875 204.375 96.269531 208.296875 93.332031 211.253906 " fill-opacity="1" fill-rule="nonzero"/></g><path fill="#1ed891" d="M 59.265625 186.78125 C 58.710938 186.78125 58.160156 186.730469 57.613281 186.621094 C 57.070312 186.511719 56.539062 186.351562 56.027344 186.140625 C 55.511719 185.929688 55.023438 185.667969 54.5625 185.359375 C 54.101562 185.050781 53.671875 184.703125 53.28125 184.308594 C 52.886719 183.917969 52.535156 183.492188 52.226562 183.03125 C 51.917969 182.570312 51.65625 182.082031 51.445312 181.570312 C 51.234375 181.058594 51.070312 180.53125 50.964844 179.988281 C 50.855469 179.445312 50.800781 178.894531 50.800781 178.339844 C 50.800781 177.789062 50.855469 177.238281 50.964844 176.695312 C 51.070312 176.152344 51.234375 175.625 51.445312 175.109375 C 51.65625 174.597656 51.917969 174.113281 52.226562 173.652344 C 52.535156 173.191406 52.886719 172.765625 53.28125 172.371094 C 53.671875 171.980469 54.101562 171.632812 54.5625 171.324219 C 55.023438 171.015625 55.511719 170.753906 56.027344 170.542969 C 56.539062 170.332031 57.070312 170.171875 57.613281 170.0625 C 58.160156 169.953125 58.710938 169.898438 59.265625 169.898438 C 59.820312 169.898438 60.371094 169.953125 60.917969 170.0625 C 61.460938 170.171875 61.992188 170.332031 62.503906 170.542969 C 63.019531 170.753906 63.507812 171.015625 63.96875 171.324219 C 64.429688 171.632812 64.859375 171.980469 65.25 172.371094 C 65.644531 172.765625 65.996094 173.191406 66.304688 173.652344 C 66.613281 174.113281 66.875 174.597656 67.085938 175.109375 C 67.300781 175.625 67.460938 176.152344 67.566406 176.695312 C 67.675781 177.238281 67.730469 177.789062 67.730469 178.339844 C 67.730469 178.894531 67.675781 179.445312 67.566406 179.988281 C 67.460938 180.53125 67.300781 181.058594 67.085938 181.570312 C 66.875 182.082031 66.613281 182.570312 66.304688 183.03125 C 65.996094 183.492188 65.644531 183.917969 65.25 184.308594 C 64.859375 184.703125 64.429688 185.050781 63.96875 185.359375 C 63.507812 185.667969 63.019531 185.929688 62.503906 186.140625 C 61.992188 186.351562 61.460938 186.511719 60.917969 186.621094 C 60.371094 186.730469 59.820312 186.78125 59.265625 186.78125 Z M 59.265625 186.78125 " fill-opacity="1" fill-rule="nonzero"/><g fill="#ffffff" fill-opacity="1"><g transform="translate(130.335949, 199.88073)"><g><path d="M 27.859375 -36.046875 C 29.117188 -36.046875 30.132812 -36.429688 30.90625 -37.203125 C 31.675781 -37.972656 32.0625 -38.988281 32.0625 -40.25 L 32.0625 -42.703125 C 32.0625 -43.960938 31.675781 -44.976562 30.90625 -45.75 C 30.132812 -46.519531 29.117188 -46.90625 27.859375 -46.90625 L 4.90625 -46.828125 C 3.644531 -46.828125 2.628906 -46.441406 1.859375 -45.671875 C 1.085938 -44.898438 0.703125 -43.882812 0.703125 -42.625 L 0.703125 -4.203125 C 0.703125 -2.941406 1.085938 -1.925781 1.859375 -1.15625 C 2.628906 -0.382812 3.644531 0 4.90625 0 L 27.859375 0 C 29.117188 0 30.132812 -0.382812 30.90625 -1.15625 C 31.675781 -1.925781 32.0625 -2.941406 32.0625 -4.203125 L 32.0625 -6.578125 C 32.0625 -7.835938 31.675781 -8.851562 30.90625 -9.625 C 30.132812 -10.394531 29.117188 -10.78125 27.859375 -10.78125 L 11.96875 -10.78125 L 11.96875 -18.203125 L 27.859375 -18.265625 C 29.117188 -18.265625 30.132812 -18.648438 30.90625 -19.421875 C 31.675781 -20.191406 32.0625 -21.207031 32.0625 -22.46875 L 32.0625 -24.84375 C 32.0625 -26.101562 31.675781 -27.117188 30.90625 -27.890625 C 30.132812 -28.660156 29.117188 -29.046875 27.859375 -29.046875 L 11.96875 -28.984375 L 11.96875 -36.046875 Z M 27.859375 -36.046875 "/></g></g></g><g fill="#ffffff" fill-opacity="1"><g transform="translate(163.091369, 199.88073)"><g><path d="M 35.484375 0 C 36.742188 0 37.757812 -0.382812 38.53125 -1.15625 C 39.300781 -1.925781 39.6875 -2.941406 39.6875 -4.203125 L 39.6875 -6.578125 C 39.6875 -7.835938 39.300781 -8.851562 38.53125 -9.625 C 37.757812 -10.394531 36.742188 -10.78125 35.484375 -10.78125 L 19.53125 -10.78125 L 36.46875 -40.953125 C 37.125 -42.117188 37.453125 -43.117188 37.453125 -43.953125 C 37.453125 -44.984375 37.039062 -45.78125 36.21875 -46.34375 C 35.40625 -46.90625 34.273438 -47.1875 32.828125 -47.1875 L 7.5625 -47.25 C 6.300781 -47.25 5.285156 -46.863281 4.515625 -46.09375 C 3.742188 -45.320312 3.359375 -44.304688 3.359375 -43.046875 L 3.359375 -40.59375 C 3.359375 -39.332031 3.742188 -38.316406 4.515625 -37.546875 C 5.285156 -36.785156 6.300781 -36.40625 7.5625 -36.40625 L 21.140625 -36.40625 L 4.203125 -6.234375 C 3.546875 -5.066406 3.21875 -4.0625 3.21875 -3.21875 C 3.21875 -2.195312 3.625 -1.40625 4.4375 -0.84375 C 5.257812 -0.28125 6.414062 0 7.90625 0 Z M 35.484375 0 "/></g></g></g><g fill="#ffffff" fill-opacity="1"><g transform="translate(203.755686, 199.88073)"><g><path d="M 11.90625 -36.046875 C 13.113281 -36.003906 14.265625 -35.738281 15.359375 -35.25 C 16.460938 -34.757812 17.421875 -34.113281 18.234375 -33.3125 C 19.046875 -32.519531 19.675781 -31.585938 20.125 -30.515625 C 20.570312 -29.441406 20.796875 -28.320312 20.796875 -27.15625 C 20.796875 -25.945312 20.570312 -24.816406 20.125 -23.765625 C 19.675781 -22.710938 19.046875 -21.789062 18.234375 -21 C 17.421875 -20.207031 16.460938 -19.566406 15.359375 -19.078125 C 14.265625 -18.585938 13.113281 -18.316406 11.90625 -18.265625 Z M 32.0625 -27.15625 C 32.0625 -29.863281 31.546875 -32.382812 30.515625 -34.71875 C 29.441406 -37.101562 28 -39.179688 26.1875 -40.953125 C 24.269531 -42.816406 22.144531 -44.238281 19.8125 -45.21875 C 17.382812 -46.25 14.75 -46.8125 11.90625 -46.90625 L 4.90625 -46.90625 C 3.644531 -46.90625 2.628906 -46.519531 1.859375 -45.75 C 1.085938 -44.976562 0.703125 -43.960938 0.703125 -42.703125 L 0.703125 -4.203125 C 0.703125 -2.941406 1.085938 -1.925781 1.859375 -1.15625 C 2.628906 -0.382812 3.644531 0 4.90625 0 L 8.1875 0 C 9.3125 0 10.210938 -0.335938 10.890625 -1.015625 C 11.566406 -1.691406 11.90625 -2.613281 11.90625 -3.78125 L 11.90625 -7.484375 C 14.84375 -7.578125 17.476562 -8.113281 19.8125 -9.09375 C 22.28125 -10.164062 24.40625 -11.59375 26.1875 -13.375 C 28 -15.144531 29.441406 -17.21875 30.515625 -19.59375 C 31.546875 -21.832031 32.0625 -24.351562 32.0625 -27.15625 Z M 32.0625 -27.15625 "/></g></g></g><g fill="#ffffff" fill-opacity="1"><g transform="translate(236.511106, 199.88073)"><g><path d="M 30.9375 -2.734375 C 31.21875 -1.941406 31.71875 -1.285156 32.4375 -0.765625 C 33.164062 -0.253906 33.972656 0 34.859375 0 L 38.015625 0 C 39.410156 0 40.476562 -0.3125 41.21875 -0.9375 C 41.96875 -1.570312 42.34375 -2.445312 42.34375 -3.5625 C 42.34375 -4.082031 42.226562 -4.738281 42 -5.53125 L 28.984375 -44.03125 C 28.703125 -44.914062 28.195312 -45.613281 27.46875 -46.125 C 26.75 -46.644531 25.921875 -46.90625 24.984375 -46.90625 L 20.296875 -46.90625 C 19.410156 -46.90625 18.601562 -46.644531 17.875 -46.125 C 17.15625 -45.613281 16.65625 -44.9375 16.375 -44.09375 L 2.65625 -5.59375 C 2.375 -4.851562 2.234375 -4.175781 2.234375 -3.5625 C 2.234375 -2.445312 2.617188 -1.570312 3.390625 -0.9375 C 4.160156 -0.3125 5.25 0 6.65625 0 L 9.796875 0 C 10.679688 0 11.472656 -0.242188 12.171875 -0.734375 C 12.878906 -1.222656 13.394531 -1.863281 13.71875 -2.65625 L 16.171875 -9.03125 L 28.625 -9.03125 Z M 22.609375 -27.859375 L 25.90625 -19.3125 L 18.90625 -19.3125 Z M 22.609375 -27.859375 "/></g></g></g><g fill="#ffffff" fill-opacity="1"><g transform="translate(281.094882, 199.88073)"><g><path d="M 27.375 -14.5625 C 26.113281 -14.5625 25.097656 -14.945312 24.328125 -15.71875 C 23.554688 -16.488281 23.171875 -17.503906 23.171875 -18.765625 L 23.171875 -21.28125 C 23.171875 -22.539062 23.554688 -23.554688 24.328125 -24.328125 C 25.097656 -25.097656 26.113281 -25.484375 27.375 -25.484375 L 39.546875 -25.484375 C 40.804688 -25.484375 41.820312 -25.097656 42.59375 -24.328125 C 43.363281 -23.554688 43.75 -22.539062 43.75 -21.28125 L 43.75 -9.3125 C 43.75 -8.800781 43.617188 -8.253906 43.359375 -7.671875 C 43.109375 -7.085938 42.769531 -6.628906 42.34375 -6.296875 C 41.082031 -5.367188 39.738281 -4.492188 38.3125 -3.671875 C 36.894531 -2.859375 35.601562 -2.238281 34.4375 -1.8125 C 31.445312 -0.601562 28.320312 0 25.0625 0 C 22.070312 0 19.035156 -0.601562 15.953125 -1.8125 C 12.972656 -2.84375 10.269531 -4.523438 7.84375 -6.859375 C 5.507812 -9.285156 3.757812 -11.851562 2.59375 -14.5625 C 1.332031 -17.3125 0.703125 -20.273438 0.703125 -23.453125 C 0.703125 -26.710938 1.332031 -29.742188 2.59375 -32.546875 C 3.664062 -35.160156 5.414062 -37.679688 7.84375 -40.109375 C 10.269531 -42.441406 12.972656 -44.191406 15.953125 -45.359375 C 19.035156 -46.429688 22.117188 -46.96875 25.203125 -46.96875 C 28.273438 -46.96875 31.304688 -46.429688 34.296875 -45.359375 C 35.835938 -44.753906 37.378906 -43.9375 38.921875 -42.90625 C 40.085938 -42.164062 40.671875 -41.1875 40.671875 -39.96875 C 40.671875 -38.894531 40.179688 -37.890625 39.203125 -36.953125 L 36.46875 -34.296875 C 35.90625 -33.734375 35.253906 -33.453125 34.515625 -33.453125 C 33.859375 -33.453125 33.203125 -33.664062 32.546875 -34.09375 C 31.753906 -34.601562 30.960938 -35 30.171875 -35.28125 C 28.441406 -35.9375 26.785156 -36.265625 25.203125 -36.265625 C 23.472656 -36.265625 21.816406 -35.9375 20.234375 -35.28125 C 18.691406 -34.769531 17.242188 -33.835938 15.890625 -32.484375 C 14.492188 -31.265625 13.535156 -29.910156 13.015625 -28.421875 C 12.316406 -26.878906 11.96875 -25.222656 11.96875 -23.453125 C 11.96875 -21.816406 12.316406 -20.226562 13.015625 -18.6875 C 13.628906 -17.101562 14.585938 -15.726562 15.890625 -14.5625 C 17.242188 -13.207031 18.691406 -12.273438 20.234375 -11.765625 C 21.816406 -11.109375 23.472656 -10.78125 25.203125 -10.78125 C 26.785156 -10.78125 28.441406 -11.109375 30.171875 -11.765625 C 31.753906 -12.316406 33.222656 -13.25 34.578125 -14.5625 Z M 27.375 -14.5625 "/></g></g></g><g fill="#ffffff" fill-opacity="1"><g transform="translate(325.538682, 199.88073)"><g><path d="M 27.859375 -36.125 C 29.117188 -36.125 30.132812 -36.507812 30.90625 -37.28125 C 31.675781 -38.050781 32.0625 -39.0625 32.0625 -40.3125 L 32.0625 -42.703125 C 32.0625 -43.960938 31.675781 -44.976562 30.90625 -45.75 C 30.132812 -46.519531 29.117188 -46.90625 27.859375 -46.90625 L 4.90625 -46.765625 C 3.644531 -46.765625 2.628906 -46.378906 1.859375 -45.609375 C 1.085938 -44.835938 0.703125 -43.820312 0.703125 -42.5625 L 0.703125 -4.203125 C 0.703125 -2.941406 1.085938 -1.925781 1.859375 -1.15625 C 2.628906 -0.382812 3.644531 0 4.90625 0 L 27.859375 0 C 29.117188 0 30.132812 -0.382812 30.90625 -1.15625 C 31.675781 -1.925781 32.0625 -2.941406 32.0625 -4.203125 L 32.0625 -6.578125 C 32.0625 -7.835938 31.675781 -8.851562 30.90625 -9.625 C 30.132812 -10.394531 29.117188 -10.78125 27.859375 -10.78125 L 11.96875 -10.78125 L 11.96875 -18.265625 L 27.859375 -18.265625 C 29.117188 -18.265625 30.132812 -18.648438 30.90625 -19.421875 C 31.675781 -20.191406 32.0625 -21.207031 32.0625 -22.46875 L 32.0625 -24.84375 C 32.0625 -26.101562 31.675781 -27.117188 30.90625 -27.890625 C 30.132812 -28.660156 29.117188 -29.046875 27.859375 -29.046875 L 11.96875 -29.046875 L 11.96875 -36.125 Z M 27.859375 -36.125 "/></g></g></g></svg>