<svg xmlns="http://www.w3.org/2000/svg"
    xmlns:xlink="http://www.w3.org/1999/xlink" width="500" zoomAndPan="magnify" viewBox="0 0 375 374.999991" height="500" preserveAspectRatio="xMidYMid meet" version="1.0">
    <defs>
        <g/>
    </defs>
    <g fill="#CBD5E1" fill-opacity="1">
        <g transform="translate(82.0715, 213.489969)">
            <g>
                <path d="M 15.328125 -20.578125 L 19.828125 -26.328125 L 30.421875 -37.828125 L 42.0625 -37.828125 L 27.03125 -21.421875 L 42.96875 0 L 31.0625 0 L 20.171875 -15.328125 L 15.734375 -11.78125 L 15.734375 0 L 5.40625 0 L 5.40625 -52.65625 L 15.734375 -52.65625 L 15.734375 -29.171875 L 15.1875 -20.578125 Z M 15.328125 -20.578125 "/>
            </g>
        </g>
    </g>
    <g fill="#CBD5E1" fill-opacity="1">
        <g transform="translate(125.045531, 213.489969)">
            <g>
                <path d="M 4.96875 -47.609375 C 4.96875 -50.972656 6.84375 -52.65625 10.59375 -52.65625 C 14.332031 -52.65625 16.203125 -50.972656 16.203125 -47.609375 C 16.203125 -46.003906 15.734375 -44.753906 14.796875 -43.859375 C 13.867188 -42.972656 12.46875 -42.53125 10.59375 -42.53125 C 6.84375 -42.53125 4.96875 -44.222656 4.96875 -47.609375 Z M 15.734375 0 L 5.40625 0 L 5.40625 -37.828125 L 15.734375 -37.828125 Z M 15.734375 0 "/>
            </g>
        </g>
    </g>
    <g fill="#CBD5E1" fill-opacity="1">
        <g transform="translate(146.194179, 213.489969)">
            <g>
                <path d="M 36.515625 0 L 33.59375 -13.234375 L 29.671875 -29.9375 L 29.4375 -29.9375 L 22.53125 0 L 11.4375 0 L 0.671875 -37.828125 L 10.96875 -37.828125 L 15.328125 -21.078125 C 16.023438 -18.078125 16.734375 -13.9375 17.453125 -8.65625 L 17.65625 -8.65625 C 17.75 -10.375 18.144531 -13.09375 18.84375 -16.8125 L 19.390625 -19.6875 L 24.0625 -37.828125 L 35.421875 -37.828125 L 39.859375 -19.6875 C 39.953125 -19.195312 40.09375 -18.460938 40.28125 -17.484375 C 40.46875 -16.515625 40.648438 -15.484375 40.828125 -14.390625 C 41.015625 -13.296875 41.179688 -12.222656 41.328125 -11.171875 C 41.472656 -10.128906 41.554688 -9.289062 41.578125 -8.65625 L 41.78125 -8.65625 C 41.988281 -10.28125 42.351562 -12.507812 42.875 -15.34375 C 43.394531 -18.175781 43.765625 -20.085938 43.984375 -21.078125 L 48.515625 -37.828125 L 58.640625 -37.828125 L 47.75 0 Z M 36.515625 0 "/>
            </g>
        </g>
    </g>
    <g fill="#CBD5E1" fill-opacity="1">
        <g transform="translate(205.511887, 213.489969)">
            <g>
                <path d="M 4.96875 -47.609375 C 4.96875 -50.972656 6.84375 -52.65625 10.59375 -52.65625 C 14.332031 -52.65625 16.203125 -50.972656 16.203125 -47.609375 C 16.203125 -46.003906 15.734375 -44.753906 14.796875 -43.859375 C 13.867188 -42.972656 12.46875 -42.53125 10.59375 -42.53125 C 6.84375 -42.53125 4.96875 -44.222656 4.96875 -47.609375 Z M 15.734375 0 L 5.40625 0 L 5.40625 -37.828125 L 15.734375 -37.828125 Z M 15.734375 0 "/>
            </g>
        </g>
    </g>
    <g fill="#CBD5E1" fill-opacity="1">
        <g transform="translate(226.660534, 213.489969)">
            <g>
                <path d="M 26.328125 -30.078125 L 17.390625 -30.078125 L 17.390625 0 L 7.078125 0 L 7.078125 -30.078125 L 1.390625 -30.078125 L 1.390625 -35.046875 L 7.078125 -37.828125 L 7.078125 -40.609375 C 7.078125 -44.910156 8.132812 -48.050781 10.25 -50.03125 C 12.375 -52.019531 15.769531 -53.015625 20.4375 -53.015625 C 24 -53.015625 27.164062 -52.488281 29.9375 -51.4375 L 27.3125 -43.859375 C 25.226562 -44.503906 23.304688 -44.828125 21.546875 -44.828125 C 20.085938 -44.828125 19.03125 -44.394531 18.375 -43.53125 C 17.71875 -42.664062 17.390625 -41.554688 17.390625 -40.203125 L 17.390625 -37.828125 L 26.328125 -37.828125 Z M 26.328125 -30.078125 "/>
            </g>
        </g>
    </g>
    <g fill="#CBD5E1" fill-opacity="1">
        <g transform="translate(253.493935, 213.489969)">
            <g>
                <path d="M 0 -37.828125 L 11.296875 -37.828125 L 18.4375 -16.546875 C 19.050781 -14.691406 19.46875 -12.503906 19.6875 -9.984375 L 19.890625 -9.984375 C 20.140625 -12.304688 20.625 -14.492188 21.34375 -16.546875 L 28.359375 -37.828125 L 39.421875 -37.828125 L 23.421875 4.84375 C 21.953125 8.789062 19.859375 11.742188 17.140625 13.703125 C 14.421875 15.660156 11.242188 16.640625 7.609375 16.640625 C 5.828125 16.640625 4.082031 16.453125 2.375 16.078125 L 2.375 7.890625 C 3.613281 8.179688 4.960938 8.328125 6.421875 8.328125 C 8.253906 8.328125 9.851562 7.765625 11.21875 6.640625 C 12.582031 5.523438 13.648438 3.84375 14.421875 1.59375 L 15.015625 -0.265625 Z M 0 -37.828125 "/>
            </g>
        </g>
    </g>
</svg>