<?xml version="1.0" encoding="UTF-8" standalone="no"?>
<!-- Created with Inkscape (http://www.inkscape.org/) -->

<svg xmlns:dc="http://purl.org/dc/elements/1.1/"
  xmlns:cc="http://creativecommons.org/ns#"
  xmlns:rdf="http://www.w3.org/1999/02/22-rdf-syntax-ns#"
  xmlns:svg="http://www.w3.org/2000/svg"
  xmlns="http://www.w3.org/2000/svg"
  xmlns:sodipodi="http://sodipodi.sourceforge.net/DTD/sodipodi-0.dtd"
  xmlns:inkscape="http://www.inkscape.org/namespaces/inkscape" version="1.1" id="svg2" xml:space="preserve" width="700" height="700" viewBox="0 0 699.99998 700" sodipodi:docname="monetizze-logo.svg" inkscape:export-filename="G:\Users\suitedoalex\sites\monetizze-logo-4.png" inkscape:export-xdpi="68.019012" inkscape:export-ydpi="68.019012" inkscape:version="0.92.4 (5da689c313, 2019-01-14)">
  <metadata id="metadata8">
    <rdf:RDF>
      <cc:Work rdf:about="">
        <dc:format>image/svg+xml</dc:format>
        <dc:type rdf:resource="http://purl.org/dc/dcmitype/StillImage" />
        <dc:title></dc:title>
      </cc:Work>
    </rdf:RDF>
  </metadata>
  <defs id="defs6">
    <clipPath clipPathUnits="userSpaceOnUse" id="clipPath48">
      <path d="m 33,660.254 h 265 v 35.824 H 33 Z" id="path46" inkscape:connector-curvature="0" />
    </clipPath>
    <clipPath clipPathUnits="userSpaceOnUse" id="clipPath80">
      <path d="M 33.011,660.254 H 298 v 35.824 H 33.011 Z" id="path78" inkscape:connector-curvature="0" />
    </clipPath>
    <clipPath clipPathUnits="userSpaceOnUse" id="clipPath96">
      <path d="m 33,660.254 h 265 v 35.824 H 33 Z" id="path94" inkscape:connector-curvature="0" />
    </clipPath>
    <clipPath clipPathUnits="userSpaceOnUse" id="clipPath108">
      <path d="M 33.011,660.254 H 298 v 35.824 H 33.011 Z" id="path106" inkscape:connector-curvature="0" />
    </clipPath>
    <clipPath clipPathUnits="userSpaceOnUse" id="clipPath124">
      <path d="m 33,660.254 h 265 v 35.824 H 33 Z" id="path122" inkscape:connector-curvature="0" />
    </clipPath>
  </defs>
  <sodipodi:namedview pagecolor="#ffffff" bordercolor="#666666" borderopacity="1" objecttolerance="10" gridtolerance="10" guidetolerance="10" inkscape:pageopacity="0" inkscape:pageshadow="2" inkscape:window-width="1600" inkscape:window-height="837" id="namedview4" showgrid="false" inkscape:zoom="0.49166667" inkscape:cx="244.44285" inkscape:cy="359.59916" inkscape:window-x="-8" inkscape:window-y="-8" inkscape:window-maximized="1" inkscape:current-layer="g10" />
  <g id="g10" inkscape:groupmode="layer" inkscape:label="monetizze-logo" transform="matrix(1.3333333,0,0,-1.3333333,0,700)">
    <g id="g42" transform="matrix(1.5956194,0,0,1.5956194,-1.58378,-819.59565)">
      <g id="g44" clip-path="url(#clipPath48)">
        <g id="g50" transform="translate(202.992,695.3907)">
          <path d="m 0,0 h -28.627 c -0.27,0 -0.489,-0.219 -0.489,-0.488 v -5.318 c 0,-0.269 0.219,-0.488 0.489,-0.488 h 11.22 c 0.27,0 0.489,-0.219 0.489,-0.488 v -27.15 c 0,-0.27 0.219,-0.489 0.488,-0.489 h 5.514 c 0.27,0 0.488,0.219 0.488,0.489 v 27.15 c 0,0.269 0.219,0.488 0.489,0.488 H 0 c 0.27,0 0.489,0.219 0.489,0.488 v 5.318 C 0.489,-0.219 0.27,0 0,0" style="fill:#CBD5E1;fill-opacity:1;fill-rule:nonzero;stroke:none" id="path52" inkscape:connector-curvature="0" />
        </g>
        <g id="g54" transform="translate(213.425,695.3907)">
          <path d="m 0,0 h -5.27 c -0.384,0 -0.696,-0.312 -0.696,-0.696 v -33.25 c 0,-0.262 0.213,-0.475 0.475,-0.475 H 0 c 0.262,0 0.475,0.213 0.475,0.475 V -0.475 C 0.475,-0.213 0.262,0 0,0" style="fill:#CBD5E1;fill-opacity:1;fill-rule:nonzero;stroke:none" id="path56" inkscape:connector-curvature="0" />
        </g>
        <g id="g58" transform="translate(297.5053,695.3907)">
          <path d="m 0,0 h -19.796 c -0.273,0 -0.495,-0.221 -0.495,-0.495 v -33.431 c 0,-0.273 0.222,-0.495 0.495,-0.495 H 0 c 0.273,0 0.495,0.222 0.495,0.495 v 5.404 c 0,0.273 -0.222,0.494 -0.495,0.494 h -13.354 c -0.274,0 -0.495,0.222 -0.495,0.495 v 6.78 c 0,0.273 0.221,0.495 0.495,0.495 h 7.158 c 0.405,0 0.732,0.328 0.732,0.733 v 4.649 c 0,0.367 -0.297,0.665 -0.665,0.665 h -7.225 c -0.274,0 -0.495,0.222 -0.495,0.495 v 6.927 c 0,0.274 0.221,0.495 0.495,0.495 H 0 c 0.273,0 0.495,0.221 0.495,0.495 v 5.304 C 0.495,-0.221 0.273,0 0,0" style="fill:#CBD5E1;fill-opacity:1;fill-rule:nonzero;stroke:none" id="path60" inkscape:connector-curvature="0" />
        </g>
        <g id="g62" transform="translate(168.6835,695.3907)">
          <path d="m 0,0 h -19.801 c -0.272,0 -0.492,-0.22 -0.492,-0.492 v -33.436 c 0,-0.272 0.22,-0.493 0.492,-0.493 H 0 c 0.272,0 0.492,0.221 0.492,0.493 v 5.408 c 0,0.272 -0.22,0.492 -0.492,0.492 h -13.36 c -0.271,0 -0.492,0.221 -0.492,0.492 v 6.785 c 0,0.272 0.221,0.493 0.492,0.493 h 7.175 c 0.397,0 0.719,0.322 0.719,0.719 v 4.836 c 0,0.272 -0.22,0.492 -0.492,0.492 h -7.402 c -0.271,0 -0.492,0.22 -0.492,0.492 v 6.933 c 0,0.272 0.221,0.492 0.492,0.492 H 0 c 0.272,0 0.492,0.22 0.492,0.492 v 5.31 C 0.492,-0.22 0.272,0 0,0" style="fill:#CBD5E1;fill-opacity:1;fill-rule:nonzero;stroke:none" id="path64" inkscape:connector-curvature="0" />
        </g>
        <g id="g66" transform="translate(271.738,690.0167)">
          <path d="m 0,0 c 1.071,1.513 1.646,3.32 1.646,5.172 0,0.112 -0.091,0.202 -0.203,0.202 h -26.05 c -0.111,0 -0.203,-0.09 -0.203,-0.202 v -5.89 c 0,-0.112 0.092,-0.202 0.203,-0.202 h 16.419 c 0.164,0 0.26,-0.186 0.164,-0.319 l -5.438,-7.598 h 3.234 c 0.171,0 0.212,-0.232 0.05,-0.287 -1.599,-0.547 -4.839,-1.973 -7.119,-5.079 -0.016,-0.024 -0.031,-0.036 -0.048,-0.059 l -5.849,-8.172 c -1.339,-1.869 -2.058,-4.111 -2.058,-6.411 0,-0.111 0.091,-0.202 0.203,-0.202 H 1.443 c 0.112,0 0.203,0.091 0.203,0.202 v 5.743 c 0,0.111 -0.091,0.202 -0.203,0.202 h -17.257 c -0.164,0 -0.259,0.184 -0.164,0.318 z" style="fill:#CBD5E1;fill-opacity:1;fill-rule:nonzero;stroke:none" id="path68" inkscape:connector-curvature="0" />
        </g>
        <g id="g70" transform="translate(242.813,689.6592)">
          <path d="m 0,0 c 1.146,1.617 1.759,3.55 1.759,5.531 0,0.111 -0.089,0.201 -0.201,0.201 h -26.052 c -0.111,0 -0.201,-0.09 -0.201,-0.201 v -5.893 c 0,-0.111 0.09,-0.2 0.201,-0.2 h 16.421 c 0.164,0 0.259,-0.185 0.164,-0.318 l -5.44,-7.599 h 3.208 c 0.171,0 0.214,-0.233 0.052,-0.288 -1.567,-0.536 -4.701,-1.925 -6.971,-4.9 l -6.018,-8.408 c -1.34,-1.871 -2.06,-4.113 -2.06,-6.413 0,-0.111 0.09,-0.201 0.201,-0.201 H 1.558 c 0.112,0 0.201,0.09 0.201,0.201 v 5.742 c 0,0.112 -0.091,0.202 -0.202,0.201 l -17.254,-0.19 c -0.164,-0.001 -0.261,0.183 -0.166,0.317 z" style="fill:#CBD5E1;fill-opacity:1;fill-rule:nonzero;stroke:none" id="path72" inkscape:connector-curvature="0" />
        </g>
      </g>
    </g>
    <g id="g74" transform="matrix(1.5956194,0,0,1.5956194,-1.58378,-819.59565)">
      <g id="g76" clip-path="url(#clipPath80)">
        <g id="g82" transform="translate(81.2717,683.1422)">
          <path d="m 0,0 c 1.44,3.878 4.728,7.036 10.386,7.036 5.234,0 8.481,-2.723 10.088,-6.213 l 5.034,2.27 c 0.372,0.168 0.538,0.62 0.348,0.981 -2.686,5.095 -7.814,8.863 -15.47,8.863 -8.192,0 -13.54,-4.347 -16.03,-10.003 -0.165,-0.376 0.028,-0.809 0.412,-0.954 z" style="fill:#CBD5E1;fill-opacity:1;fill-rule:nonzero;stroke:none" id="path84" inkscape:connector-curvature="0" />
        </g>
        <g id="g86" transform="translate(107.6746,683.7184)">
          <path d="m 0,0 -5.07,-2.286 c 0.274,-1.188 0.393,-2.407 0.362,-3.596 -0.14,-5.387 -2.916,-11.127 -10.192,-11.659 v -5.2 c 0,-0.415 0.358,-0.754 0.772,-0.72 10.792,0.859 15.813,9.114 15.813,17.676 0,1.798 -0.232,3.597 -0.694,5.327 C 0.873,-0.015 0.418,0.188 0,0" style="fill:#CBD5E1;fill-opacity:1;fill-rule:nonzero;stroke:none" id="path88" inkscape:connector-curvature="0" />
        </g>
      </g>
    </g>
    <g id="g90" transform="matrix(1.5956194,0,0,1.5956194,-1.58378,-819.59565)">
      <g id="g92" clip-path="url(#clipPath96)">
        <g id="g98" transform="translate(80.3976,677.8851)">
          <path d="m 0,0 c -0.015,0.882 0.049,1.779 0.193,2.668 l -5.259,1.99 C -5.497,4.821 -5.94,4.588 -6.028,4.135 -6.285,2.808 -6.408,1.453 -6.393,0.099 c 0.092,-8.305 4.854,-16.604 15.318,-17.678 0.418,-0.043 0.789,0.298 0.789,0.719 v 5.184 c 0,0.003 -0.002,0.005 -0.002,0.005 C 2.756,-10.941 0.092,-5.278 0,0" style="fill:#CBD5E1;fill-opacity:1;fill-rule:nonzero;stroke:none" id="path100" inkscape:connector-curvature="0" />
        </g>
      </g>
    </g>
    <g id="g102" transform="matrix(1.5956194,0,0,1.5956194,-1.58378,-819.59565)">
      <g id="g104" clip-path="url(#clipPath108)">
        <g id="g110" transform="translate(142.731,695.4395)">
          <path d="m 0,0 h -5.49 c -0.276,0 -0.5,-0.224 -0.5,-0.501 v -17.166 c 0.181,-2.674 0.898,-3.691 1.372,-5.076 0.056,-0.165 -0.157,-0.276 -0.264,-0.138 l -3.526,4.55 -14.298,18.092 c -0.094,0.12 -0.239,0.19 -0.392,0.19 h -4.519 c -0.276,0 -0.501,-0.224 -0.501,-0.501 v -33.419 c 0,-0.276 0.225,-0.5 0.501,-0.5 h 5.489 c 0.277,0 0.501,0.224 0.501,0.5 v 16.528 c -0.028,0.276 -0.045,0.583 -0.041,0.952 0.042,3.929 -0.861,5.024 -1.419,6.656 -0.056,0.164 0.157,0.276 0.264,0.138 l 5.047,-6.513 v -0.002 l 14.245,-18.308 v 0.049 H 0 c 0.277,0 0.501,0.224 0.501,0.5 V -0.501 C 0.501,-0.224 0.277,0 0,0" style="fill:#CBD5E1;fill-opacity:1;fill-rule:nonzero;stroke:none" id="path112" inkscape:connector-curvature="0" />
        </g>
        <g id="g114" transform="translate(68.9346,695.3418)">
          <path d="m 0,0 h -6.668 c -0.16,0 -0.311,-0.077 -0.406,-0.206 l -10.2,-14.021 c -0.207,-0.284 -0.629,-0.284 -0.836,0 l -10.2,14.021 C -28.405,-0.077 -28.556,0 -28.716,0 h -6.717 c -0.277,0 -0.502,-0.224 -0.502,-0.502 v -33.417 c 0,-0.277 0.225,-0.501 0.502,-0.501 h 5.487 c 0.277,0 0.502,0.224 0.502,0.501 v 18.099 c -0.014,0.257 -0.016,0.546 -0.001,0.879 0.001,0.031 0,0.054 0.001,0.085 v 1.584 c -0.105,2.61 -0.775,3.646 -1.197,5.03 -0.051,0.167 0.166,0.271 0.268,0.13 l 1.283,-1.775 c 0.005,-0.006 0.012,-0.006 0.017,-0.013 l 10.594,-14.49 h 0.016 c 0.155,-0.176 0.375,-0.292 0.628,-0.292 0.253,0 0.473,0.116 0.628,0.292 h 0.007 l 9.384,12.513 2.721,3.765 c 0.102,0.141 0.319,0.037 0.268,-0.13 -0.387,-1.268 -0.984,-2.24 -1.162,-4.4 v -21.277 c 0,-0.277 0.224,-0.501 0.502,-0.501 H 0 c 0.277,0 0.502,0.224 0.502,0.501 V -0.502 C 0.502,-0.224 0.277,0 0,0" style="fill:#CBD5E1;fill-opacity:1;fill-rule:nonzero;stroke:none" id="path116" inkscape:connector-curvature="0" />
        </g>
      </g>
    </g>
    <g id="g118" transform="matrix(1.5956194,0,0,1.5956194,-1.58378,-819.59565)">
      <g id="g120" clip-path="url(#clipPath124)">
        <g id="g126" transform="translate(93.3292,668.4212)">
          <path d="m 0,0 v 1.748 c 0,0.111 0.084,0.2 0.194,0.211 2.597,0.259 4.919,1.888 4.919,4.73 0,3.796 -3.366,4.358 -6.516,4.747 -1.812,0.216 -3.517,0.474 -3.517,1.899 0,1.509 1.64,2.027 3.431,2.027 1.408,0 2.911,-0.636 3.545,-1.489 0.063,-0.084 0.171,-0.118 0.266,-0.074 l 1.96,0.908 c 0.112,0.051 0.16,0.189 0.101,0.297 -0.891,1.655 -2.307,2.353 -3.881,2.664 -0.893,0.176 -1.973,0.082 -1.973,0.082 -0.048,0.001 -0.059,0.095 -0.013,0.117 C -1.073,18.065 0,18.356 0,18.802 v 0.617 c 0,0.119 -0.096,0.215 -0.215,0.215 h -2.311 c -0.118,0 -0.215,-0.096 -0.215,-0.215 v -1.476 c 0,-0.107 -0.078,-0.196 -0.184,-0.211 -2.44,-0.343 -4.82,-1.642 -4.82,-4.397 0,-3.582 3.019,-4.121 6.105,-4.468 2.006,-0.237 3.797,-0.755 3.797,-2.178 0,-1.683 -1.791,-2.352 -3.732,-2.352 -1.71,0 -3.537,0.807 -4.206,2.082 -0.053,0.101 -0.17,0.149 -0.275,0.104 L -8.21,5.611 C -8.322,5.564 -8.375,5.431 -8.323,5.321 -7.341,3.24 -5.379,2.186 -3.217,1.89 -2.591,1.804 -1.319,1.828 -1.319,1.828 -1.271,1.827 -1.257,1.723 -1.305,1.709 -1.751,1.575 -2.741,1.117 -2.741,0.811 V 0 c 0,-0.118 0.097,-0.215 0.215,-0.215 h 2.311 C -0.096,-0.215 0,-0.118 0,0" style="fill:#CBD5E1;fill-opacity:1;fill-rule:nonzero;stroke:none" id="path128" inkscape:connector-curvature="0" />
        </g>
      </g>
    </g>
  </g>
</svg>