<svg xmlns="http://www.w3.org/2000/svg" xmlns:xlink="http://www.w3.org/1999/xlink" data-name="Layer 1" viewBox="0 0 622 560"><defs><linearGradient id="b" x1="278.12" x2="430.64" y1="129.55" y2="129.55" gradientUnits="userSpaceOnUse"><stop offset="0" stop-color="#28fdac" class="stopColorfd4428 svgShape"/><stop offset="1" stop-color="#3bfdb3" class="stopColorfd7e3b svgShape"/></linearGradient><linearGradient id="a" x1="378.74" x2="387.23" y1="122.16" y2="122.16" gradientUnits="userSpaceOnUse"><stop offset="0" stop-color="#018b56" class="stopColor011b8b svgShape"/><stop offset="1" stop-color="#05d384" class="stopColor0573d3 svgShape"/></linearGradient><linearGradient id="i" x1="379.63" x2="388.12" y1="105.06" y2="105.06" xlink:href="#a"/><linearGradient id="j" x1="402.11" x2="410.6" y1="138.43" y2="138.43" xlink:href="#a"/><linearGradient id="k" x1="336.37" x2="344.86" y1="156.04" y2="156.04" xlink:href="#a"/><linearGradient id="l" x1="333.94" x2="347.87" y1="138.92" y2="138.92" xlink:href="#b"/><linearGradient id="m" x1="376.97" x2="390.89" y1="155.18" y2="155.18" xlink:href="#b"/><linearGradient id="n" x1="396.07" x2="408.72" y1="156.42" y2="156.42" xlink:href="#a"/><linearGradient id="o" x1="355.09" x2="368.33" y1="122.16" y2="122.16" xlink:href="#b"/><linearGradient id="p" x1="401.02" x2="414.26" y1="88.46" y2="88.46" xlink:href="#b"/><linearGradient id="c" x1="389.27" x2="408.41" y1="57.2" y2="57.2" gradientUnits="userSpaceOnUse"><stop offset="0" stop-color="#e3e9e7" class="stopColore9e8e3 svgShape"/><stop offset="1" stop-color="#a8b7b1" class="stopColora8aeb7 svgShape"/></linearGradient><linearGradient id="q" x1="397.7" x2="417.13" y1="57.19" y2="57.19" xlink:href="#c"/><linearGradient id="r" x1="285.07" x2="304.2" y1="57.2" y2="57.2" xlink:href="#c"/><linearGradient id="s" x1="293.49" x2="312.93" y1="57.19" y2="57.19" xlink:href="#c"/><linearGradient id="t" x1="208.32" x2="210.39" y1="176.72" y2="176.72" xlink:href="#b"/><linearGradient id="u" x1="212.68" x2="214.75" y1="176.72" y2="176.72" xlink:href="#a"/><linearGradient id="v" x1="69.53" x2="216.22" y1="209.31" y2="209.31" xlink:href="#b"/><linearGradient id="w" x1="146.64" x2="154.44" y1="196.2" y2="196.2" xlink:href="#a"/><linearGradient id="x" x1="116.38" x2="124.4" y1="220.82" y2="220.82" xlink:href="#a"/><linearGradient id="y" x1="94.3" x2="102.46" y1="217.29" y2="217.29" xlink:href="#a"/><linearGradient id="z" x1="171.51" x2="179.16" y1="204.67" y2="204.67" xlink:href="#a"/><linearGradient id="A" x1="69.53" x2="220.17" y1="224.34" y2="224.34" xlink:href="#a"/><linearGradient id="B" x1="152.33" x2="160.33" y1="212.35" y2="212.35" xlink:href="#b"/><linearGradient id="C" x1="118.08" x2="126.28" y1="232.41" y2="232.41" xlink:href="#b"/><linearGradient id="D" x1="96.59" x2="104.89" y1="225.55" y2="225.55" xlink:href="#b"/><linearGradient id="E" x1="176.11" x2="184" y1="224.6" y2="224.6" xlink:href="#b"/><linearGradient id="F" x1="80.76" x2="93.41" y1="265.98" y2="265.98" xlink:href="#b"/><linearGradient id="G" x1="102.28" x2="114.94" y1="257.69" y2="257.69" xlink:href="#a"/><linearGradient id="H" x1="126.28" x2="138.93" y1="261.31" y2="261.31" xlink:href="#b"/><linearGradient id="I" x1="150.27" x2="162.93" y1="251.45" y2="251.45" xlink:href="#a"/><linearGradient id="J" x1="174.27" x2="186.93" y1="256.03" y2="256.03" xlink:href="#b"/><linearGradient id="K" x1="198.27" x2="210.92" y1="250.33" y2="250.33" xlink:href="#a"/><linearGradient id="L" x1="425.42" x2="452.01" y1="388.9" y2="388.9" xlink:href="#b"/><linearGradient id="d" x1="452.42" x2="506.33" y1="452.71" y2="452.71" gradientUnits="userSpaceOnUse"><stop offset="0" stop-color="#008e58" class="stopColor007d8e svgShape"/><stop offset="1" stop-color="#1ed891" class="stopColor05bbd0 svgShape"/></linearGradient><linearGradient id="M" x1="500.32" x2="526.97" y1="447.39" y2="447.39" xlink:href="#d"/><linearGradient id="N" x1="474.93" x2="527.22" y1="501.75" y2="501.75" xlink:href="#c"/><linearGradient id="O" x1="396.35" x2="398.26" y1="217.56" y2="217.56" xlink:href="#b"/><linearGradient id="P" x1="392.33" x2="394.23" y1="217.56" y2="217.56" xlink:href="#a"/><linearGradient id="R" x1="436.07" x2="545.57" y1="376.03" y2="376.03" xlink:href="#a"/><linearGradient id="S" x1="464.75" x2="403.25" y1="421.29" y2="297.79" xlink:href="#d"/><linearGradient id="T" x1="435.76" x2="458.65" y1="334.03" y2="334.03" xlink:href="#b"/><linearGradient id="U" x1="485" x2="423.5" y1="411.21" y2="287.71" xlink:href="#d"/><linearGradient id="V" x1="508.74" x2="447.24" y1="399.39" y2="275.89" xlink:href="#d"/><linearGradient id="W" x1="135.04" x2="356.53" y1="416.61" y2="416.61" gradientUnits="userSpaceOnUse"><stop offset="0" stop-color="#24fdaa" class="stopColorfda024 svgShape"/><stop offset="1" stop-color="#45fdb7" class="stopColorfdb245 svgShape"/></linearGradient><linearGradient id="X" x1="317.71" x2="372.74" y1="502.52" y2="502.52" xlink:href="#a"/><linearGradient id="Y" x1="374.75" x2="303.25" y1="465.74" y2="361.24" xlink:href="#d"/><linearGradient id="Z" x1="376.25" x2="304.75" y1="464.72" y2="360.21" xlink:href="#d"/><linearGradient id="aa" x1="338.38" x2="266.88" y1="490.63" y2="386.13" xlink:href="#d"/><linearGradient id="ab" x1="276.16" x2="320.97" y1="324.14" y2="324.14" xlink:href="#a"/><linearGradient id="ac" x1="271.49" x2="270.49" y1="400.23" y2="273.23" xlink:href="#a"/><linearGradient id="ad" x1="231.15" x2="230.15" y1="400.55" y2="273.55" xlink:href="#a"/><linearGradient id="al" x1="297.47" x2="402.26" y1="352.45" y2="352.45" xlink:href="#c"/><linearGradient id="am" x1="262.18" x2="317.22" y1="502.52" y2="502.52" xlink:href="#a"/><linearGradient id="an" x1="337.71" x2="266.21" y1="491.08" y2="386.58" xlink:href="#d"/><linearGradient id="ao" x1="252.29" x2="267.92" y1="244.97" y2="244.97" xlink:href="#b"/><linearGradient id="ap" x1="258.19" x2="296.53" y1="231.71" y2="231.71" xlink:href="#c"/><clipPath id="g"><path fill="none" d="M97.44 379.92c-21-71.24-28.58-250.82 141.56-326C403.77-19 328.77 155 475.77 245s60.67 248-71.33 271-273.44-22.31-307-136.08Z"/></clipPath><clipPath id="h"><path fill="none" d="M99.96 51.43h266.55v336.45H99.96z" transform="rotate(180 233.235 219.65)"/></clipPath><clipPath id="Q"><path fill="none" d="M392.81 213h128.08a5.73 5.73 0 0 1 5.73 5.73v120.63a3.94 3.94 0 0 1-3.94 3.94H391a3.94 3.94 0 0 1-3.94-3.94V218.73a5.73 5.73 0 0 1 5.75-5.73Z" transform="rotate(180 456.855 278.15)"/></clipPath><clipPath id="ae"><path fill="none" d="M321.8 383.75h6.88a.7.7 0 0 1 .71.7v.55h-7.9v-.94a.31.31 0 0 1 .31-.31Z"/></clipPath><clipPath id="af"><path fill="none" d="M331.31 383.75h6.89a.7.7 0 0 1 .7.71v.54H331v-.93a.31.31 0 0 1 .31-.32Z"/></clipPath><clipPath id="ag"><path fill="none" d="M340.83 383.74h6.88a.7.7 0 0 1 .71.7v.56h-7.9v-.94a.31.31 0 0 1 .31-.32Z"/></clipPath><clipPath id="ah"><path fill="none" d="M350.34 383.73h6.89a.7.7 0 0 1 .7.7v.57H350v-1a.31.31 0 0 1 .34-.27Z"/></clipPath><clipPath id="ai"><path fill="none" d="M361.54 383.72h3.61a.71.71 0 0 1 .7.71v.57h-4.62v-1a.31.31 0 0 1 .31-.28Z"/></clipPath><clipPath id="aj"><path fill="none" d="M367.15 383.72h3.6a.7.7 0 0 1 .71.7v.58h-4.62v-1a.31.31 0 0 1 .31-.28Z"/></clipPath><clipPath id="ak"><path fill="none" d="M372.43 383.72H376a.71.71 0 0 1 .7.71v.57h-4.62v-1a.31.31 0 0 1 .35-.28Z"/></clipPath><radialGradient id="e" cx="319.58" cy="279.15" r="237.89" gradientUnits="userSpaceOnUse"><stop offset="0" stop-color="#a3ffdc" class="stopColora3d6ff svgShape"/><stop offset="1" stop-color="#e1fff4" stop-opacity=".5" class="stopColore1f1ff svgShape"/></radialGradient><radialGradient id="f" cx="480.71" cy="130.28" r="79.56" xlink:href="#e"/></defs><path fill="url(#e)" d="M97.44 379.92c-21-71.24-28.58-250.82 141.56-326C403.77-19 328.77 155 475.77 245s60.67 248-71.33 271-273.44-22.31-307-136.08Z" opacity=".7"/><path fill="url(#f)" d="M510.31 213c-61.26-17.09-102-74.73-100-132.86s69-47.14 91 21.86 95 135 9 111Z" opacity=".7"/><g clip-path="url(#g)" fill="#000000" class="color000 svgShape"><path fill="#ffffff" d="M368.73 72.03h261.18v.94H368.73zM368.73 42.5h261.18v.95H368.73z" class="colorfff svgShape"/><path fill="#ffffff" d="M575.46 43.65h.78v28.84h-.78zM510.02 43.65h.78v28.84h-.78zM444.58 43.65h.77v28.84h-.77zM379.14 43.65h.78v28.84h-.78zM361.64 101.27h.78v.47h-.78zM368.73 101.27h261.18v.94H368.73z" class="colorfff svgShape"/><path fill="#ffffff" d="M557.96 72.89h.77v28.84h-.77zM492.52 72.89h.77v28.84h-.77zM427.08 72.89h.77v28.84h-.77zM361.64 101.27h.78v.47h-.78zM368.73 130.5h261.18v.95H368.73z" class="colorfff svgShape"/><path fill="#ffffff" d="M575.46 102.13h.78v28.84h-.78zM510.02 102.13h.78v28.84h-.78zM444.58 102.13h.77v28.84h-.77zM379.14 102.13h.78v28.84h-.78zM361.64 159.74h.78v.48h-.78zM368.73 159.74h261.18v.95H368.73z" class="colorfff svgShape"/><path fill="#ffffff" d="M557.96 131.37h.77v28.84h-.77zM492.52 131.37h.77v28.84h-.77zM427.08 131.37h.77v28.84h-.77zM361.64 159.74h.78v.48h-.78zM368.73 188.98h261.18v.95H368.73z" class="colorfff svgShape"/><path fill="#ffffff" d="M575.46 160.61h.78v28.84h-.78zM510.02 160.61h.78v28.84h-.78zM444.58 160.61h.77v28.84h-.77zM379.14 160.61h.78v28.84h-.78zM361.64 218.22h.78v.47h-.78zM368.73 218.22h261.18v.95H368.73z" class="colorfff svgShape"/><path fill="#ffffff" d="M557.96 189.85h.77v28.84h-.77zM492.52 189.85h.77v28.84h-.77zM427.08 189.85h.77v28.84h-.77zM361.64 218.22h.78v.47h-.78zM361.64 248.33h.78v.08h-.78zM368.73 247.46h261.18v.95H368.73z" class="colorfff svgShape"/><path fill="#ffffff" d="M575.46 219.09h.78v28.84h-.78zM510.02 219.09h.78v28.84h-.78zM444.58 219.09h.77v28.84h-.77zM379.14 219.09h.78v28.84h-.78zM361.64 276.7h.78v.47h-.78zM368.73 276.7h261.18v.95H368.73z" class="colorfff svgShape"/><path fill="#ffffff" d="M557.96 248.33h.77v28.84h-.77zM492.52 248.33h.77v28.84h-.77zM427.08 248.33h.77v28.84h-.77zM361.64 248.33h.78v.08h-.78zM361.64 276.7h.78v.47h-.78zM361.64 306.29h.78v.07h-.78zM368.73 305.42h261.18v.94H368.73z" class="colorfff svgShape"/><path fill="#ffffff" d="M575.46 277.05h.78v28.84h-.78zM510.02 277.05h.78v28.84h-.78zM444.58 277.05h.77v28.84h-.77zM379.14 277.05h.78v28.84h-.78zM94.15 334.66h535.76v.94H94.15z" class="colorfff svgShape"/><path fill="#ffffff" d="M557.96 306.29h.77v28.84h-.77zM492.52 306.29h.77v28.84h-.77zM427.08 306.29h.77v28.84h-.77zM361.64 306.29h.78v.07h-.78zM361.64 324.31h.78v10.82h-.78zM296.2 324.31h.78v10.82h-.78zM230.76 334.66h.78v.47h-.78zM165.32 324.31h.78v10.82h-.78zM94.14 363.9H629.9v.94H94.14z" class="colorfff svgShape"/><path fill="#ffffff" d="M575.46 335.52h.78v28.84h-.78zM510.02 335.52h.78v28.84h-.78zM444.58 335.52h.77v28.84h-.77zM379.14 335.52h.78v28.84h-.78zM313.7 335.52h.77v28.84h-.77zM248.26 335.52h.77v28.84h-.77zM182.82 335.52h.77v28.84h-.77zM117.38 335.52h.77v28.84h-.77zM94.14 393.14H629.9v.94H94.14z" class="colorfff svgShape"/><path fill="#ffffff" d="M557.96 364.76h.77v28.84h-.77zM492.52 364.76h.77v28.84h-.77zM427.08 364.76h.77v28.84h-.77zM361.64 364.76h.77v28.84h-.77zM296.2 364.76h.77v28.84h-.77zM230.76 364.76h.77v28.84h-.77zM165.32 364.76h.77v28.84h-.77zM94.14 422.37H629.9v.95H94.14z" class="colorfff svgShape"/><path fill="#ffffff" d="M575.46 394h.78v28.84h-.78zM510.02 394h.78v28.84h-.78zM444.58 394h.77v28.84h-.77zM379.14 394h.78v28.84h-.78zM313.7 394h.77v28.84h-.77zM248.26 394h.77v28.84h-.77zM182.82 394h.77v28.84h-.77zM117.38 394h.77v28.84h-.77zM94.14 451.61H629.9v.94H94.14z" class="colorfff svgShape"/><path fill="#ffffff" d="M557.96 423.24h.77v28.84h-.77zM492.52 423.24h.77v28.84h-.77zM427.08 423.24h.77v28.84h-.77zM361.64 423.24h.77v28.84h-.77zM296.2 423.24h.77v28.84h-.77zM230.76 423.24h.77v28.84h-.77zM165.32 423.24h.77v28.84h-.77zM94.14 480.85H629.9v.94H94.14z" class="colorfff svgShape"/><path fill="#ffffff" d="M575.46 452.48h.78v28.84h-.78zM510.02 452.48h.78v28.84h-.78zM444.58 452.48h.77v28.84h-.77zM379.14 452.48h.78v28.84h-.78zM313.7 452.48h.77v28.84h-.77zM248.26 452.48h.77v28.84h-.77zM182.82 452.48h.77v28.84h-.77zM117.38 452.48h.77v28.84h-.77zM94.14 510.09H629.9v.95H94.14z" class="colorfff svgShape"/><path fill="#ffffff" d="M557.96 481.72h.77v28.84h-.77zM492.52 481.72h.77v28.84h-.77zM427.08 481.72h.77v28.84h-.77zM361.64 481.72h.77v28.84h-.77zM296.2 481.72h.77v28.84h-.77zM230.76 481.72h.77v28.84h-.77zM165.32 481.72h.77v28.84h-.77z" class="colorfff svgShape"/><path fill="#ffffff" d="M99.96 51.43h266.55v271.15H99.96z" opacity=".5" transform="rotate(180 233.235 187)" class="colorfff svgShape"/><g clip-path="url(#h)" fill="#000000" class="color000 svgShape"><path fill="#b6f5dd" d="M431.75 439.09H178.14l109.62-217.52 13.59-26.95c1.64-3.27 5.54-3.27 7.18 0l18.52 36.74Z" class="colorb6e3f5 svgShape"/><path fill="#a3dcc6" d="m321.57 226.44-6.66-6c-.76-.68-1.85-.21-2.08.91-1.16 5.66-4.16 20.3-6 29.23a1.3 1.3 0 0 1-2.6-.14c-1.07-8.28-2.67-21.25-3.39-27.11-.16-1.29-1.44-1.82-2.22-.93l-7.42 8.46c-.77.88-2 .37-2.22-.9l-1.12-7.82A1.9 1.9 0 0 1 288 221l13.32-26.42c1.64-3.27 5.54-3.27 7.18 0l15 29.67c.75 1.56-.76 3.25-1.93 2.19ZM516 535.41H246.8c-3.06 0-5.11-3.86-3.84-7.26L339 271.4l38.56-103.12c1.5-4 6.18-4 7.68 0l44.67 119.52 89.88 240.35c1.28 3.4-.79 7.26-3.79 7.26Z" class="colora3cadc svgShape"/><path fill="#b6f5dd" d="M424.66 281.21c-.82-1-2.25-.32-2.25 1.11v26.05c0 1.79-2.05 2.22-2.54.52l-25.12-87.33a1.23 1.23 0 0 0-2.34-.33l-14.05 26.87a1.21 1.21 0 0 1-2.28-.16l-4.8-12.06a1.2 1.2 0 0 0-2.09-.45l-25.21 30c-1 1.23-2.7-.2-2.1-1.8l35.66-95.36c1.5-4 6.18-4 7.68 0l41.57 111.16c.6 1.63-1.11 3.06-2.13 1.78Z" class="colorb6e3f5 svgShape"/><path fill="#a3dcc6" d="M379.62 535.41H47.7L183.24 173l26.58-71.07c1.5-4 6.18-4 7.68 0l36 96.37Z" class="colora3cadc svgShape"/><path fill="#b6f5dd" d="m243.94 182-10.1-17.15a1.45 1.45 0 0 0-2.49-.19l-14.29 18.71a1.45 1.45 0 0 1-2.55-.32l-5.34-10.64a1.48 1.48 0 0 0-2.8.13l-17 40c-.74 1.74-2.88 1.24-3-.7l-3.09-38.35a2.47 2.47 0 0 1 .13-1l26.4-70.59c1.5-4 6.18-4 7.68 0l29.22 78.1c.81 2.19-1.64 3.92-2.77 2Z" class="colorb6e3f5 svgShape"/></g><path fill="#ffffff" d="M368.41 115.59h-.15a30.38 30.38 0 0 0-28.53-5.68c.94-3 2.43-5.84 1.11-9.06s-5-5.2-8.22-6.1c-5.88-1.65-12.22-.87-16.83 2.76-1.67-8-8.4-14.69-17.1-14.3-9.19.42-15.57 8.7-15.81 17.34-4.83-1.32-10.17-1.85-14.94-.22-4.12 1.4-5.24 5.54-8.28 6.88-4.12 1.81-8.87-1.38-12.52 2.52a5.55 5.55 0 0 0-1.43 5.58 12.05 12.05 0 0 0 3.34 3.89h118a1.85 1.85 0 0 0 2.3-.32 1.81 1.81 0 0 0-.94-3.29ZM159.37 198.39h-.12a24.47 24.47 0 0 0-23-4.57c.76-2.43 2-4.7.9-7.29s-4-4.19-6.62-4.92c-4.74-1.32-9.84-.69-13.55 2.23-1.35-6.4-6.77-11.83-13.77-11.51-7.4.33-12.54 7-12.72 14-3.89-1.07-8.2-1.49-12-.18-3.32 1.13-4.22 4.46-6.67 5.54-3.32 1.46-7.14-1.11-10.08 2a4.46 4.46 0 0 0-1.15 4.49 9.79 9.79 0 0 0 2.68 3.13h95a1.49 1.49 0 0 0 1.85-.26 1.46 1.46 0 0 0-.75-2.66Z" class="colorfff svgShape"/><path fill="#b6f5dd" d="M85.69 388.29a172.36 172.36 0 0 0 6.85 16.29h280.65V44c-3.69-.58-7.42-1.22-11.16-2v122.33h-87.22V28.64a51.46 51.46 0 0 0-12.81-.18v135.87h-77.47V81H171.9v83.34h-59q-2.1 6.21-3.86 12.86h62.86v101.6H91.48q.13 6.36.54 12.86h79.88v96.63Zm189.12-96.63H362v96.63h-87.19Zm0-114.47H362V278.8h-87.19ZM262 278.8h-77.47V177.19H262Zm0 109.49h-77.47v-96.63H262Z" class="colorb6e3f5 svgShape"/><path fill="#a3dcc6" d="M465 167.56c-16.91-12.74-26.94-24.35-31-29.52V58.37h-4.27V138c-4.07 5.17-14.11 16.78-31 29.52h24.64a8.33 8.33 0 0 0 16.65 0h25Z" class="colora3cadc svgShape"/></g><path fill="#0e1a15" d="M108.12 522.48h422.93v1.02H108.12zM435.5 186.66a4.94 4.94 0 0 1-.07.87 6.76 6.76 0 0 1-3.53 4.94 6.42 6.42 0 0 1-2.28.73 5.85 5.85 0 0 1-.73 0H280l-.58-119.15-.05-9.47a5.27 5.27 0 0 1 5.14-4.83h145.87A4.54 4.54 0 0 1 435 64.4l.23 59.9.11 30.53v7.53Z" class="color1a120e svgShape"/><path fill="url(#b)" d="M430.64 65.64v.14l-.09 10.61-.35 44-.3 37.36-.05 6.12-.2 25.73-.01 1.46-.02 2.14v.26h-151.5l1.31-117.33.02-2.04.1-8.45h151.09z"/><path fill="#ffffff" d="M422.95 67.5v.11l-.07 9.19-.81 101.37H282.12l1.13-101.59.1-9.08h139.6z" class="colorfff svgShape"/><path d="M299.07 170.85h-9.89a1.39 1.39 0 0 0-1.38 1.36 1.33 1.33 0 0 0 1.34 1.35H299a1.37 1.37 0 0 0 1.37-1.35 1.32 1.32 0 0 0-1.3-1.36ZM318 170.85h-9.89a1.38 1.38 0 0 0-1.37 1.36 1.32 1.32 0 0 0 1.33 1.35h9.89a1.38 1.38 0 0 0 1.38-1.35 1.34 1.34 0 0 0-1.34-1.36ZM336.88 170.85H327a1.39 1.39 0 0 0-1.38 1.36 1.33 1.33 0 0 0 1.33 1.35h9.89a1.38 1.38 0 0 0 1.38-1.35 1.33 1.33 0 0 0-1.34-1.36ZM355.78 170.85h-9.89a1.39 1.39 0 0 0-1.38 1.36 1.33 1.33 0 0 0 1.34 1.35h9.89a1.38 1.38 0 0 0 1.38-1.35 1.34 1.34 0 0 0-1.34-1.36ZM374.69 170.85h-9.89a1.39 1.39 0 0 0-1.38 1.36 1.32 1.32 0 0 0 1.33 1.35h9.89a1.38 1.38 0 0 0 1.38-1.35 1.33 1.33 0 0 0-1.33-1.36ZM393.59 170.85h-9.89a1.39 1.39 0 0 0-1.38 1.36 1.33 1.33 0 0 0 1.34 1.35h9.89a1.37 1.37 0 0 0 1.37-1.35 1.32 1.32 0 0 0-1.33-1.36ZM412.5 170.85h-9.9a1.38 1.38 0 0 0-1.37 1.36 1.32 1.32 0 0 0 1.33 1.35h9.89a1.38 1.38 0 0 0 1.38-1.35 1.34 1.34 0 0 0-1.33-1.36Z" fill="#000000" class="color000 svgShape"/><path fill="url(#a)" d="m384.29 120.83-1.25-2.95-1.35 2.95-2.95.32 2.29 2.02-.76 3.26 2.66-1.7 2.59 1.7-.64-3.26 2.35-2.02-2.94-.32z"/><path fill="url(#i)" d="m385.19 103.74-1.26-2.95-1.35 2.95-2.95.32 2.29 2.01-.75 3.27 2.65-1.7 2.59 1.7-.64-3.27 2.35-2.01-2.93-.32z"/><path fill="url(#j)" d="m407.66 137.1-1.25-2.94-1.35 2.94-2.95.32 2.29 2.02-.76 3.26 2.66-1.69 2.59 1.69-.64-3.26 2.35-2.02-2.94-.32z"/><path fill="url(#k)" d="m341.93 154.71-1.26-2.95-1.35 2.95-2.95.32 2.29 2.02-.75 3.26 2.65-1.69 2.59 1.69-.64-3.26 2.35-2.02-2.93-.32z"/><path d="M329.73 168.44h.62l1.46-88.59-.62-.06-1.46 88.65zM350.85 168.44h.62l1.47-88.59-.63-.06-1.46 88.65zM371.97 168.44h.62l1.47-88.59-.62-.06-1.47 88.65zM393.09 168.44h.62l1.47-88.59-.62-.06-1.47 88.65z" fill="#000000" class="color000 svgShape"/><path d="M288.59 114.11h127.54l-.04-.62H288.55l.04.62zM289.32 96.86H416.8l-.04-.62H289.28l.04.62zM288.32 131.07h127.54l-.05-.62H288.27l.05.62zM288.04 148.02h127.54l-.04-.62H288l.04.62zM287.77 164.97h127.54l-.05-.62H287.72l.05.62zM368.13 104.62h-10a.94.94 0 0 0-.94.91.91.91 0 0 0 .91.92h10a.94.94 0 0 0 .93-.92.9.9 0 0 0-.9-.91ZM367.5 153.85h-10.74a.46.46 0 0 0-.45.44.43.43 0 0 0 .44.44h10.74a.45.45 0 0 0 .45-.44.44.44 0 0 0-.44-.44ZM367.47 156h-10.74a.45.45 0 0 0-.45.44.42.42 0 0 0 .43.44h10.75a.44.44 0 0 0 .44-.44.43.43 0 0 0-.43-.44ZM367.43 158.23h-10.74a.46.46 0 0 0-.45.44.44.44 0 0 0 .44.44h10.74a.45.45 0 0 0 .45-.44.44.44 0 0 0-.44-.44ZM323.47 117.16h-23.74c-.22 0-.4.32-.41.72s.17.73.39.73h23.74c.22 0 .41-.33.41-.73s-.17-.72-.39-.72ZM307.26 120.16h-7.58c-.22 0-.4.33-.41.73s.17.72.39.72h7.57c.22 0 .41-.32.42-.72s-.17-.73-.39-.73ZM319.71 120.16H308.8c-.22 0-.41.33-.41.73s.16.72.38.72h10.92c.22 0 .41-.32.41-.72s-.17-.73-.39-.73ZM322.25 137H298.5c-.22 0-.4.32-.41.72s.17.73.39.73h23.74c.22 0 .41-.33.41-.73s-.17-.72-.38-.72ZM296.5 140h-4.15c-.22 0-.41.33-.41.73s.16.72.39.72h4.15c.22 0 .4-.32.41-.72s-.17-.73-.39-.73ZM306 140h-7.58c-.22 0-.4.33-.41.73s.17.72.39.72h7.6c.22 0 .41-.32.41-.72s-.16-.73-.41-.73ZM318.48 140h-10.91c-.22 0-.41.33-.41.73s.16.72.39.72h10.91c.22 0 .41-.32.41-.72s-.17-.73-.39-.73ZM297.68 123.16h-4.15c-.22 0-.4.33-.41.73s.17.73.39.73h4.15c.22 0 .4-.33.41-.73s-.17-.73-.39-.73ZM321 123.16h-21.47a.31.31 0 0 0-.3.3v.86a.29.29 0 0 0 .29.3H321a.31.31 0 0 0 .3-.3v-.86a.3.3 0 0 0-.3-.3ZM297.63 126.17h-4.15c-.22 0-.4.32-.41.72s.17.73.39.73h4.15c.22 0 .4-.32.41-.73s-.17-.72-.39-.72ZM309.43 126.17h-9.84c-.22 0-.41.32-.42.72s.17.73.39.73h9.84c.23 0 .41-.32.42-.73s-.17-.72-.39-.72ZM314.67 126.17h-3.91c-.22 0-.4.32-.41.72s.17.73.39.73h3.9c.22 0 .41-.32.41-.73s-.16-.72-.38-.72ZM308.27 102.06h-7.57c-.22 0-.41.33-.41.73s.16.73.39.73h7.57c.22 0 .4-.33.41-.73s-.17-.73-.39-.73ZM320.73 102.06h-10.92c-.22 0-.4.33-.41.73s.17.73.39.73h10.92c.22 0 .4-.33.41-.73s-.12-.73-.39-.73ZM298.7 105.06h-4.15c-.22 0-.41.33-.41.73s.16.73.38.73h4.15c.22 0 .41-.33.41-.73s-.16-.73-.38-.73ZM322 105.06h-21.45a.31.31 0 0 0-.3.3v.86a.3.3 0 0 0 .3.3H322a.31.31 0 0 0 .31-.3v-.86a.29.29 0 0 0-.31-.3ZM298.65 108.07h-4.15c-.22 0-.41.32-.41.73s.16.72.38.72h4.15c.22 0 .41-.32.42-.72s-.17-.73-.39-.73ZM310.44 108.07h-9.84c-.22 0-.4.32-.41.73s.17.72.39.72h9.84c.22 0 .41-.32.41-.72s-.17-.73-.39-.73ZM315.68 108.07h-3.9c-.22 0-.41.32-.41.73s.16.72.39.72h3.9c.22 0 .4-.32.41-.72s-.17-.73-.39-.73ZM308.65 84.73h-7.58c-.22 0-.4.33-.41.73s.17.73.39.73h7.57c.23 0 .41-.33.42-.73s-.17-.73-.39-.73ZM321.11 84.73h-10.92c-.22 0-.41.33-.41.73s.17.73.39.73h10.91c.22 0 .41-.33.41-.73s-.16-.73-.38-.73ZM299.07 87.74h-4.15c-.22 0-.4.32-.41.72s.17.73.39.73h4.15c.22 0 .4-.32.41-.73s-.17-.72-.39-.72ZM322.4 87.74h-21.47a.3.3 0 0 0-.31.3v.85a.29.29 0 0 0 .29.3h21.48a.31.31 0 0 0 .31-.3V88a.29.29 0 0 0-.3-.26ZM299 90.74h-4.15c-.22 0-.4.33-.41.73s.17.72.39.72H299c.22 0 .4-.32.41-.72s-.17-.73-.41-.73ZM310.82 90.74H301c-.22 0-.41.33-.41.73s.16.72.38.72h9.85c.22 0 .4-.32.41-.72s-.23-.73-.41-.73ZM316.06 90.74h-3.9c-.23 0-.41.33-.42.73s.17.72.39.72H316c.22 0 .41-.32.42-.72s-.14-.73-.36-.73ZM306.79 153.19h-7.57c-.22 0-.41.33-.41.73s.16.73.38.73h7.58c.22 0 .4-.33.41-.73s-.18-.73-.39-.73ZM319.25 153.19h-10.92c-.22 0-.4.33-.41.73s.17.73.39.73h10.91c.22 0 .41-.33.41-.73s-.16-.73-.38-.73ZM297.22 156.2h-4.16c-.22 0-.4.32-.41.72s.17.73.39.73h4.15c.22 0 .41-.33.41-.73s-.16-.72-.38-.72ZM320.55 156.2h-21.48a.31.31 0 0 0-.31.3v.85a.29.29 0 0 0 .29.3h21.48a.31.31 0 0 0 .31-.3v-.85a.29.29 0 0 0-.29-.3ZM297.17 159.2H293c-.22 0-.41.32-.42.73s.17.72.39.72h4.15c.22 0 .41-.32.41-.72s-.14-.73-.36-.73ZM309 159.2h-9.84c-.22 0-.4.32-.41.73s.17.72.39.72h9.84c.22 0 .4-.32.41-.72s-.21-.73-.39-.73ZM314.2 159.2h-3.9c-.22 0-.41.32-.41.73s.16.72.38.72h3.91c.22 0 .4-.32.41-.72s-.17-.73-.39-.73ZM296.45 142.76h-4.15c-.22 0-.4.33-.41.73s.17.73.39.73h4.15c.22 0 .41-.33.41-.73s-.16-.73-.39-.73ZM308.25 142.76h-9.84c-.22 0-.41.33-.41.73s.16.73.38.73h9.85c.22 0 .4-.33.41-.73s-.17-.73-.39-.73ZM313.49 142.76h-3.9c-.22 0-.41.33-.42.73s.17.73.39.73h3.91c.22 0 .4-.33.41-.73s-.17-.73-.39-.73ZM327.12 134.27H315a.34.34 0 0 0-.34.33v.78a.32.32 0 0 0 .33.34h12.11a.34.34 0 0 0 .34-.34v-.78a.34.34 0 0 0-.32-.33ZM308.39 134.27h-9.84c-.22 0-.41.32-.42.72s.17.73.39.73h9.84c.23 0 .41-.32.42-.73s-.17-.72-.39-.72ZM313.63 134.27h-3.91c-.22 0-.4.32-.41.72s.17.73.39.73h3.9c.22 0 .41-.32.41-.73s-.16-.72-.38-.72Z" fill="#000000" class="color000 svgShape"/><path fill="url(#l)" d="m339.72 142.08-.4.43c-.14.14-.13.09-.2.12a.25.25 0 0 1-.25-.1l-2.65-4-.1-.13a1.26 1.26 0 0 0-1.76-.21 1.2 1.2 0 0 0-.09 1.74l1.65 1.94.82 1 .42.49.22.25a2.28 2.28 0 0 0 .42.4 2.09 2.09 0 0 0 2.09.23 1.86 1.86 0 0 0 .72-.61l.34-.49 1.39-1.93 5.53-7.73-6.52 6.9Z"/><path fill="url(#m)" d="m382.75 158.33-.41.44c-.14.14-.12.09-.19.12a.27.27 0 0 1-.25-.11l-2.66-4a.45.45 0 0 0-.1-.14 1.27 1.27 0 0 0-1.76-.21 1.23 1.23 0 0 0-.09 1.75l1.65 1.94.83 1 .41.48.22.26a2.66 2.66 0 0 0 .43.39 2.08 2.08 0 0 0 2.08.24 1.88 1.88 0 0 0 .72-.62l.35-.48 1.38-1.93 5.53-7.74-6.51 6.91Z"/><path fill="url(#n)" d="m396.07 160.47 10.28 2.21 2.37-10.3-10.28-2.21-2.37 10.3z"/><path d="M403 152a.61.61 0 0 0-.61.59.58.58 0 0 0 .58.59.61.61 0 0 0 .61-.59.59.59 0 0 0-.58-.59Z" fill="#000000" class="color000 svgShape"/><path fill="url(#o)" d="m355.09 118.11 3.12 10.3 10.12-2.2-3.13-10.31-10.11 2.21z"/><path d="M360.76 117.68a.54.54 0 0 0-.54.6.67.67 0 0 0 .65.59.54.54 0 0 0 .54-.6.66.66 0 0 0-.65-.59Z" fill="#000000" class="color000 svgShape"/><path fill="url(#p)" d="m401.02 84.42 3.12 10.3 10.12-2.21-3.12-10.3-10.12 2.21z"/><path d="M406.7 84a.53.53 0 0 0-.54.59.66.66 0 0 0 .65.59.53.53 0 0 0 .54-.59.65.65 0 0 0-.65-.59ZM393.58 61.38a3.44 3.44 0 0 0-3.18 2.82 2.57 2.57 0 0 0 .5 2.11 2.25 2.25 0 0 0 1.78.8 3.43 3.43 0 0 0 3.18-2.81 2.61 2.61 0 0 0-.5-2.11 2.26 2.26 0 0 0-1.78-.81ZM402.05 61.38a3.44 3.44 0 0 0-3.18 2.82 2.61 2.61 0 0 0 .5 2.11 2.25 2.25 0 0 0 1.78.8 3.43 3.43 0 0 0 3.18-2.81 2.57 2.57 0 0 0-.5-2.11 2.26 2.26 0 0 0-1.78-.81Z" fill="#000000" class="color000 svgShape"/><path fill="url(#c)" d="M408.36 56.51c0-.19-.05-.37-.08-.55a7.22 7.22 0 0 0-.35-1 8.88 8.88 0 0 0-.44-.94 8.74 8.74 0 0 0-.61-1l-.1-.12c-.15-.2-.31-.4-.49-.6a5.9 5.9 0 0 0-.49-.51l-.22-.2-.41-.35L405 51c-.21-.16-.44-.32-.67-.47l-.49-.28a9.94 9.94 0 0 0-12.62 2.57 9.33 9.33 0 0 0-.45 10.62 4.35 4.35 0 0 0 1.68 1.77 1.5 1.5 0 0 0 1.74-.43c.56-.74.12-1.42-.47-2.17a6 6 0 0 1-1.08-2.12 6.76 6.76 0 0 1 4.22-8.12 6.87 6.87 0 0 1 5.15.19 6.3 6.3 0 0 1 1.47.9 4.48 4.48 0 0 1 .5.47l.09.09a3.73 3.73 0 0 1 .36.43l.11.15a3.88 3.88 0 0 1 .3.48l.09.15a5.37 5.37 0 0 1 .31.69 7.43 7.43 0 0 1-.17 3.83h3.09a9.55 9.55 0 0 0 .2-3.24Z"/><path fill="url(#q)" d="M416.67 56a9.15 9.15 0 0 0-4-5.4 9.93 9.93 0 0 0-13.1 2.3 9.29 9.29 0 0 0-.45 10.62 4.28 4.28 0 0 0 1.68 1.77 1.48 1.48 0 0 0 1.73-.43c.56-.74.12-1.42-.46-2.17a6.2 6.2 0 0 1-1.07-2.16 6.47 6.47 0 0 1 .61-5 4.94 4.94 0 0 0 .51-.64 6.47 6.47 0 0 1 1.3-1.36c.14-.1.27-.2.41-.28a6.31 6.31 0 0 1 2.45-.95 6.84 6.84 0 0 1 7.87 7.52h2.93a9.53 9.53 0 0 0-.41-3.82Z"/><path d="M289.38 61.38a3.44 3.44 0 0 0-3.19 2.82 2.64 2.64 0 0 0 .5 2.11 2.26 2.26 0 0 0 1.78.8 3.43 3.43 0 0 0 3.19-2.81 2.64 2.64 0 0 0-.5-2.11 2.29 2.29 0 0 0-1.78-.81ZM297.85 61.38a3.44 3.44 0 0 0-3.18 2.82 2.57 2.57 0 0 0 .5 2.11 2.25 2.25 0 0 0 1.78.8 3.43 3.43 0 0 0 3.18-2.81 2.57 2.57 0 0 0-.5-2.11 2.26 2.26 0 0 0-1.78-.81Z" fill="#000000" class="color000 svgShape"/><path fill="url(#r)" d="M304.16 56.51c0-.19-.06-.37-.08-.55a9.26 9.26 0 0 0-2-3.68c-.16-.18-.33-.35-.5-.52l-.2-.18-.42-.36-.23-.18c-.21-.16-.42-.31-.65-.46l-.45-.26A9.94 9.94 0 0 0 287 52.86a9.29 9.29 0 0 0-.45 10.62 4.35 4.35 0 0 0 1.68 1.77 1.5 1.5 0 0 0 1.74-.43c.56-.74.11-1.42-.47-2.17a6.2 6.2 0 0 1-1.09-2.12 6.76 6.76 0 0 1 4.22-8.12 6.89 6.89 0 0 1 5.16.19 6.52 6.52 0 0 1 1.47.9c.17.14.33.29.49.44l.11.12a4.12 4.12 0 0 1 .33.4 1.33 1.33 0 0 1 .14.19c.09.13.18.27.26.41l.13.21c.1.19.18.39.27.6v.08a7.43 7.43 0 0 1-.17 3.83h3.08a9.32 9.32 0 0 0 .26-3.27Z"/><path fill="url(#s)" d="M312.47 56a9.13 9.13 0 0 0-4-5.4 9.92 9.92 0 0 0-13.1 2.3 9.29 9.29 0 0 0-.37 10.58 4.28 4.28 0 0 0 1.68 1.77 1.49 1.49 0 0 0 1.73-.43c.56-.74.12-1.42-.47-2.17a6.18 6.18 0 0 1-1.08-2.12 6.38 6.38 0 0 1 .61-5 5.69 5.69 0 0 0 .5-.64 6.06 6.06 0 0 1 1.31-1.36c.14-.1.27-.2.41-.28a6.31 6.31 0 0 1 2.45-.95 6.84 6.84 0 0 1 7.86 7.49h2.93a9.53 9.53 0 0 0-.46-3.79Z"/><path fill="#ffffff" d="M214.22 278.83H75.59a6.21 6.21 0 0 1-6.2-6.21v-96.57a4.26 4.26 0 0 1 4.26-4.26h142.52a4.26 4.26 0 0 1 4.26 4.26v96.57a6.21 6.21 0 0 1-6.21 6.21Z" class="colorfff svgShape"/><path fill="#45fdb7" d="M214.22 279.33H75.59a6.72 6.72 0 0 1-6.7-6.71v-96.57a4.76 4.76 0 0 1 4.76-4.76h142.52a4.77 4.77 0 0 1 4.76 4.76v96.57a6.72 6.72 0 0 1-6.71 6.71Zm-140.57-107a3.77 3.77 0 0 0-3.76 3.76v96.57a5.71 5.71 0 0 0 5.7 5.71h138.63a5.71 5.71 0 0 0 5.71-5.71v-96.61a3.77 3.77 0 0 0-3.76-3.76Z" class="colorfd6645 svgShape"/><path fill="#ffffff" d="M216.11 171.79H73.83a4.32 4.32 0 0 0-4.32 4.32v5h150.92v-5a4.33 4.33 0 0 0-4.32-4.32Z" class="colorfff svgShape"/><path fill="#45fdb7" d="M220.93 181.65H69v-5.54a4.82 4.82 0 0 1 4.82-4.82h142.29a4.82 4.82 0 0 1 4.82 4.82Zm-150.93-1h149.93v-4.54a3.83 3.83 0 0 0-3.82-3.82H73.83a3.83 3.83 0 0 0-3.83 3.82Z" class="colorfd6645 svgShape"/><path d="M205 175.69a1 1 0 1 0 0 2.07 1 1 0 0 0 0-2.07Z" fill="#000000" class="color000 svgShape"/><path fill="url(#t)" d="M209.36 175.69a1 1 0 1 0 0 2.07 1 1 0 0 0 0-2.07Z"/><path fill="url(#u)" d="M213.72 175.69a1 1 0 1 0 0 2.07 1 1 0 0 0 0-2.07Z"/><path fill="url(#v)" d="m213.54 181.42-38.36 22.8-24.76-8.84-30.26 24.9-22.19-3.93-28.44 19.1v1.74l28.89-19.25 22.11 3.9 30.14-24.83 24.68 8.79 40.87-24.38h-2.68z"/><path fill="url(#w)" d="M146.65 196.5a4 4 0 0 1 3.74-4.08 3.67 3.67 0 0 1 4 3.47 4 4 0 0 1-3.69 4.11 3.66 3.66 0 0 1-4.05-3.5Z"/><path fill="url(#x)" d="M116.38 221.17a4.22 4.22 0 0 1 3.88-4.22 3.71 3.71 0 0 1 4.14 3.52 4.2 4.2 0 0 1-3.87 4.22 3.7 3.7 0 0 1-4.15-3.52Z"/><path fill="url(#y)" d="M94.3 217.64a4.27 4.27 0 0 1 4-4.24 3.74 3.74 0 0 1 4.19 3.54 4.27 4.27 0 0 1-3.95 4.25 3.75 3.75 0 0 1-4.24-3.55Z"/><path fill="url(#z)" d="M171.51 205a4 4 0 0 1 3.66-4.07 3.63 3.63 0 0 1 4 3.44 4 4 0 0 1-3.64 4.08 3.65 3.65 0 0 1-4.02-3.45Z"/><path fill="url(#A)" d="m220.17 207.96-40.2 16.16-23.63-12.6-34.31 20.32-21.55-7.29-30.95 14.56v1.6l31.15-14.51 21.47 7.25 34.18-20.27 23.56 12.56 40.28-16.27v-1.51z"/><path fill="url(#B)" d="M152.36 212.07a4.12 4.12 0 0 1 4.41-3.53 3.7 3.7 0 0 1 3.53 4.09 4.11 4.11 0 0 1-4.4 3.53 3.7 3.7 0 0 1-3.54-4.09Z"/><path fill="url(#C)" d="M118.11 232.15a4.28 4.28 0 0 1 4.54-3.62 3.73 3.73 0 0 1 3.6 4.14 4.29 4.29 0 0 1-4.54 3.63 3.73 3.73 0 0 1-3.6-4.15Z"/><path fill="url(#D)" d="M96.62 225.28a4.36 4.36 0 0 1 4.62-3.63 3.75 3.75 0 0 1 3.62 4.17 4.35 4.35 0 0 1-4.6 3.64 3.76 3.76 0 0 1-3.64-4.18Z"/><path fill="url(#E)" d="M176.13 224.34a4.09 4.09 0 0 1 4.35-3.54 3.68 3.68 0 0 1 3.5 4.06 4.07 4.07 0 0 1-4.33 3.54 3.69 3.69 0 0 1-3.52-4.06Z"/><rect width="12.66" height="13.04" x="80.76" y="259.46" fill="url(#F)" rx=".8"/><rect width="12.66" height="29.61" x="102.28" y="242.89" fill="url(#G)" rx=".8"/><rect width="12.66" height="22.38" x="126.28" y="250.12" fill="url(#H)" rx=".8"/><rect width="12.66" height="42.09" x="150.27" y="230.41" fill="url(#I)" rx=".8"/><rect width="12.66" height="32.95" x="174.27" y="239.55" fill="url(#J)" rx=".8"/><rect width="12.66" height="44.34" x="198.27" y="228.16" fill="url(#K)" rx=".8"/><path fill="#0e1a15" d="M390.55 414.45h127.86v107.6H390.55Zm126 1.85H392.4v103.9h124.16Z" class="color1a120e svgShape"/><path fill="#0e1a15" d="M339 414.45h124.92v107.6H339Zm123.06 1.85h-121.2v103.9h121.2Z" class="color1a120e svgShape"/><path fill="#e6e6e6" d="M330.3 407.62h195.27v6.94H330.3z" transform="rotate(180 427.94 411.085)" class="colore6e6e6 svgShape"/><path fill="#0e1a15" d="M526 414.93H330v-7.69h196Zm-195.27-.75h194.48V408H330.68Z" class="color1a120e svgShape"/><path fill="#0e1a15" d="M454.44 407.62h71.14v6.94h-71.14z" class="color1a120e svgShape"/><path fill="url(#L)" d="M427.73 407.34h21.97l2.31-36.88h-26.58l2.3 36.88z"/><path fill="#ffffff" d="M425.76 366.69h25.92a1.14 1.14 0 0 1 .91.45l1.12 1.48a1.15 1.15 0 0 1-.92 1.84h-28.14a1.15 1.15 0 0 1-.92-1.84l1.11-1.48a1.18 1.18 0 0 1 .92-.45Z" class="colorfff svgShape"/><path fill="#0e1a15" d="M452.79 370.75h-28.14a1.43 1.43 0 0 1-1.29-.8 1.41 1.41 0 0 1 .14-1.5l1.11-1.48a1.47 1.47 0 0 1 1.15-.57h25.92a1.46 1.46 0 0 1 1.14.57l1.11 1.48a1.44 1.44 0 0 1-1.14 2.3Zm-27-3.78a.86.86 0 0 0-.69.35l-1.1 1.47a.86.86 0 0 0-.09.91.85.85 0 0 0 .78.47h28.14a.84.84 0 0 0 .77-.47.86.86 0 0 0-.08-.91l-1.12-1.47a.85.85 0 0 0-.68-.35Z" class="color1a120e svgShape"/><path fill="#ffffff" d="M430.78 389.69a5.94 5.94 0 1 0 5.94-5.94 5.94 5.94 0 0 0-5.94 5.94Z" class="colorfff svgShape"/><path fill="#0e1a15" d="M436.72 395.92a6.23 6.23 0 1 1 6.23-6.23 6.24 6.24 0 0 1-6.23 6.23Zm0-11.88a5.65 5.65 0 1 0 5.65 5.65 5.66 5.66 0 0 0-5.65-5.69Z" class="color1a120e svgShape"/><path fill="#0e1a15" d="M436.72 397.85a8.16 8.16 0 1 1 8.16-8.16 8.16 8.16 0 0 1-8.16 8.16Zm0-15.31a7.15 7.15 0 1 0 7.15 7.15 7.16 7.16 0 0 0-7.15-7.15Z" class="color1a120e svgShape"/><path fill="url(#d)" d="M456.69 428.07C479.22 407.42 509 460.9 506.14 482h-11.25c-10.89-5.25-56.44-37.22-38.2-53.93Z"/><path fill="#0e1a15" d="M500.27 482.21c-16.69-30.54-43.64-53.52-43.91-53.75l.66-.79c.27.23 27.37 23.35 44.15 54.05Z" class="color1a120e svgShape"/><path fill="#0e1a15" d="M487 461.29c-.8-.08-19.65-2.06-25.38-4.21l.36-1c5.61 2.1 24.93 4.13 25.12 4.15ZM473.34 443.3l-.95-.38c2.62-6.53 3.14-17 3.15-17.14l1 .05c0 .44-.54 10.79-3.2 17.47ZM496.18 447.49c6.9 12.1 11.11 26 10 34.53-15.77-13.72-12.49-32.27-10-34.53Z" class="color1a120e svgShape"/><path fill="url(#M)" d="M514.46 413.68c20-8.31 14 41.59-3.59 68.34h-8.19c-4.09-6.68-4.41-61.62 11.78-68.34Z"/><path fill="#0e1a15" d="m506.64 482.12-1-.21c3.14-14.81 11.66-62.58 11.75-63.06l1 .18c-.07.48-8.6 48.27-11.75 63.09Z" class="color1a120e svgShape"/><path fill="#0e1a15" d="M508.05 460.59h12.38v1.03h-12.38z" transform="rotate(-45.11 514.299 461.13)" class="color1a120e svgShape"/><path fill="#0e1a15" d="M507.31 436.27h1.03v12.16h-1.03z" transform="rotate(-54.94 507.827 442.347)" class="color1a120e svgShape"/><path fill="url(#N)" d="M474.93 482.09V489a54.12 54.12 0 0 0 4.72 22.32l1.23 2.71 8.24 7.4h23.41l8.74-7.4 1.23-2.71a54.28 54.28 0 0 0 4.72-22.32v-6.88Z"/><path fill="#0e1a15" d="M475.25 498.89h38.95v1.03h-38.95zM507.56 513.41h13.94v1.03h-13.94z" class="color1a120e svgShape"/><path fill="#ffffff" d="M392.81 343.3h128.08a5.74 5.74 0 0 0 5.74-5.73V216.94a3.94 3.94 0 0 0-3.94-3.94H391a3.93 3.93 0 0 0-3.94 3.94v120.63a5.74 5.74 0 0 0 5.75 5.73Z" class="colorfff svgShape"/><path fill="#45fdb7" d="M520.89 343.8H392.81a6.24 6.24 0 0 1-6.23-6.23V216.94a4.44 4.44 0 0 1 4.42-4.44h131.69a4.44 4.44 0 0 1 4.44 4.44v120.63a6.25 6.25 0 0 1-6.24 6.23ZM391 213.5a3.44 3.44 0 0 0-3.44 3.44v120.63a5.24 5.24 0 0 0 5.23 5.23h128.1a5.24 5.24 0 0 0 5.24-5.23V216.94a3.45 3.45 0 0 0-3.44-3.44Z" class="colorfd6645 svgShape"/><path fill="#ffffff" d="M391.07 213h131.45a4 4 0 0 1 4 4v4.66H387.08V217a4 4 0 0 1 3.99-4Z" class="colorfff svgShape"/><path fill="#45fdb7" d="M527 222.15H386.58V217a4.5 4.5 0 0 1 4.49-4.49h131.45A4.5 4.5 0 0 1 527 217Zm-139.44-1H526V217a3.5 3.5 0 0 0-3.5-3.49H391.07a3.5 3.5 0 0 0-3.49 3.49Z" class="colorfd6645 svgShape"/><path d="M401.34 216.6a1 1 0 1 1-1 1 1 1 0 0 1 1-1Z" fill="#000000" class="color000 svgShape"/><path fill="url(#O)" d="M397.31 216.6a1 1 0 1 1-1 1 1 1 0 0 1 1-1Z"/><path fill="url(#P)" d="M393.28 216.6a1 1 0 1 1-.95 1 1 1 0 0 1 .95-1Z"/><g clip-path="url(#Q)" fill="#000000" class="color000 svgShape"><path fill="#ddf0e9" d="M386.24 443.67h-7.83s-21.55-3.41-16.56-45a14.29 14.29 0 0 1 9.26-11.73 198.17 198.17 0 0 1 66.73-11.21 7.12 7.12 0 0 1 .82.12 196.19 196.19 0 0 0-59.72 11.09 14.28 14.28 0 0 0-9.26 11.73c-4.99 41.59 16.56 45 16.56 45ZM455.14 396.76c-6.58 19.76-13.33 36.46-13.33 36.46s-3.21 10.45-16.22 10.45h-7.83c13 0 16.23-10.45 16.23-10.45s6.74-16.7 13.32-36.46c5.67-17-5.46-20.32-8.65-20.91q3.43-.12 7-.12s16.07 1.27 9.48 21.03Z" class="colorf0e3dd svgShape"/><path fill="#ffffff" d="M386.14 444.54c-.91-.14-22.34-4-17.3-46a15.11 15.11 0 0 1 9.83-12.46 199.26 199.26 0 0 1 67-11.27h.07c.26 0 6.4.56 9.77 5.67 2.65 4 2.81 9.55.48 16.53-6.52 19.56-13.28 36.35-13.32 36.45s-3.57 11.06-17.08 11.06h-39.45Zm-6.86-56.76a13.3 13.3 0 0 0-8.67 11c-4.7 39.09 14.56 43.75 15.76 44h39.26c12.17 0 15.25-9.41 15.4-9.88.07-.17 6.81-16.9 13.31-36.41 2.14-6.42 2.05-11.46-.26-15-2.78-4.22-8-4.85-8.41-4.9a197.44 197.44 0 0 0-66.39 11.19ZM452 527.94a2.59 2.59 0 0 0 2.8-2.3V441h-5.61v84.63a2.6 2.6 0 0 0 2.81 2.31Z" class="colorfff svgShape"/><path d="M450.22 441.98h.89v82.79h-.89z" fill="#000000" class="color000 svgShape"/><path fill="#0e1a15" d="M423.5 536.34h.89v-7.87a8.9 8.9 0 0 1 8.88-8.88h37.24a8.89 8.89 0 0 1 8.88 8.88v6.59h.89v-6.59a9.78 9.78 0 0 0-9.77-9.76h-37.24a9.78 9.78 0 0 0-9.77 9.76Z" class="color1a120e svgShape"/><path fill="#0e1a15" d="M409.18 536.34h.89v-7.87a8.9 8.9 0 0 1 8.88-8.88h65.88a8.89 8.89 0 0 1 8.88 8.88v6.59h.89v-6.59a9.78 9.78 0 0 0-9.77-9.76H419a9.78 9.78 0 0 0-9.77 9.76Z" class="color1a120e svgShape"/><path fill="#0e1a15" d="M419.3 535a4.67 4.67 0 1 0 4.7-4.7 4.66 4.66 0 0 0-4.7 4.7ZM405.22 535a4.67 4.67 0 1 0 4.67-4.67 4.67 4.67 0 0 0-4.67 4.67ZM489.58 535a4.67 4.67 0 1 0 4.66-4.67 4.66 4.66 0 0 0-4.66 4.67ZM474.89 535a4.66 4.66 0 1 0 4.66-4.67 4.66 4.66 0 0 0-4.66 4.67Z" class="color1a120e svgShape"/><path fill="url(#R)" d="M508 443.14h-71.93c3.25-.63 19.64-6.12 15.43-52.64-2.5-27.74 14.35-70.28 19.56-81.59h74.47c.21 1.31-.32 3.3-2.88 6.18-5.78 6.51-18.07 56.86-19.76 71.31-1.64 14.06 11.74 47.36-14.89 56.74Z"/><path fill="#0e1a15" d="M436.07 443.59h72.07c20.2-7.1 17.78-28.08 16-43.39-.63-5.46-1.18-10.18-.76-13.71 1.76-15.09 14-64.7 19.64-71.07 2.27-2.55 3.27-4.75 3-6.55l-.06-.38h-33v.9h32.27c0 1.45-.93 3.32-2.81 5.44-6.06 6.81-18.3 58.13-19.87 71.55-.42 3.64.13 8.4.77 13.92 1.83 15.83 4.11 35.54-15.34 42.43h-71.91Z" class="color1a120e svgShape"/><path fill="#0e1a15" d="M485.11 336.21h49.87v.89h-49.87zM482.28 345.65h49.87v.89h-49.87zM478.51 355.08h49.87v.89h-49.87zM359.38 443.5h151.17v-4.21H359.38c-1.9 0-3.44.94-3.44 2.1 0 1.17 1.54 2.11 3.44 2.11Z" class="color1a120e svgShape"/><path fill="#ffffff" d="M353.15 404.53c1.15 1.16 7.89 1.43 11.48-.34a20 20 0 0 1 5.3-1.57c.18.11.39 0 .61-.13 1.2-.26 2-.56 2.14-1.31a.46.46 0 0 0-.25-.5c.83-.72 1.9-1.6 2.6-2.09 1-.71 4.11-3.68 5-5.56a1.17 1.17 0 0 0 .1-.43c12.2-4 34.83-4.18 44.56-13.25 13.58-12.67-6.11-21.78-9.59-20.89-9.64 2.46-41.17 21.77-48.29 26.18-5.53 2.65-17.58 9.57-17.12 11.6.5 2.27 1.51 6.32 3.46 8.29Zm14.85-6.06c-.07-1.39 1.78-2.14 3.94-2.79a28.21 28.21 0 0 0-2.19 4.36c-.91-.23-1.69-.63-1.75-1.57Z" class="colorfff svgShape"/><path fill="#0e1a15" d="M352.92 404.76c-1.89-1.9-2.9-5.51-3.57-8.44-.61-2.69 14.49-10.63 17.26-12 6.37-3.94 38.67-23.73 48.39-26.22 2.18-.56 10.53 2.62 13.59 8.22 1.61 2.95 2.28 7.65-3.7 13.23-6.56 6.12-19 8.27-29.95 10.16a119 119 0 0 0-14.53 3.09 1.26 1.26 0 0 1-.1.33c-.88 1.89-4 4.92-5.09 5.69-.64.45-1.58 1.21-2.31 1.84a.7.7 0 0 1 .09.53c-.17 1-1.23 1.32-2.32 1.56a.84.84 0 0 1-.8.17h-.17a19.17 19.17 0 0 0-4.93 1.49 10.46 10.46 0 0 1-1.71.65c-3.83 1.17-9.07.79-10.15-.3Zm16.66-2.41.41-.08.11.07s.11 0 .25-.11v-.05h.07c1.32-.29 1.8-.56 1.89-1.05 0-.05 0-.09-.11-.17l-.35-.24.32-.28c.77-.67 1.88-1.59 2.62-2.11 1-.72 4.05-3.66 4.87-5.43a.58.58 0 0 0 .07-.3v-.23l.22-.07a116.88 116.88 0 0 1 14.83-3.18c10.87-1.89 23.2-4 29.62-10 4.55-4.25 5.75-8.43 3.56-12.44-2.95-5.39-11-8.36-12.85-7.89-9.65 2.46-41.85 22.21-48.23 26.15-6.94 3.34-17.29 9.7-16.94 11.24.38 1.67 1.4 6.12 3.39 8.13 1 1 7.5 1.37 11.11-.41a15.27 15.27 0 0 1 2.5-.95c.99-.28 1.86-.45 2.64-.6Zm.1-2c-.83-.21-1.94-.63-2-1.87-.08-1.7 2.12-2.5 4.18-3.13l.78-.23-.72 1.27a23.61 23.61 0 0 0-1.85 3.74l-.1.29Zm-1.34-1.9c0 .56.39.93 1.21 1.18a25.74 25.74 0 0 1 1.71-3.4c-1.63.56-2.97 1.22-2.92 2.23Z" class="color1a120e svgShape"/><path fill="#0e1a15" d="m364.48 403.94-3.55-8.69s1.31 5.95 3.55 8.69ZM357.17 405.66l-4.43-8.28s1.92 5.79 4.43 8.28ZM361.25 405.28l-5.37-9.67s2.79 7.15 5.37 9.67Z" class="color1a120e svgShape"/><path fill="url(#S)" d="M452.58 325.09c-.71 12.38-1.45 37.61-10.75 55.73 0 0-33.54.77-44.84-20.53 0 0 17.44-49.84 23.31-59.65s32.99 12.08 32.28 24.45Z"/><path fill="#0e1a15" d="m397 360.29-25.94 15.07 15.45 17.4s34.14-4.24 41.52-14.56l-12.26-24.43Z" class="color1a120e svgShape"/><path fill="#ffffff" d="m404.65 505.51-17.63 7.45-14.13-21 22.09-9.34 9.67 22.89z" class="colorfff svgShape"/><path fill="#0e1a15" d="m372.4 491.81 22.75-9.62 9.93 23.49-18.18 7.69Zm22.4-8.76-21.41 9.05 13.75 20.46 17.09-7.23Z" class="color1a120e svgShape"/><path fill="#ffffff" d="M381.4 506.43s4-3.4 10.18-.37 7-1.55 8.05-2.67a6.82 6.82 0 0 1 5.15-2.17s5.7 21.74 4.09 38.66h-58.61s-1.81-5.89 3.25-8.61 27.26-9.14 30.21-14.88-2.32-9.96-2.32-9.96Z" class="colorfff svgShape"/><path fill="#0e1a15" d="M350 540c0-.06-1.84-6.19 3.4-9a86.23 86.23 0 0 1 8.07-3.28c8.44-3.18 20-7.53 22-11.46 2.79-5.43-2-9.39-2.22-9.56l-.31-.24.3-.26s4.21-3.51 10.53-.41c4.75 2.32 6 .05 7-1.6a5.08 5.08 0 0 1 .68-1 7.1 7.1 0 0 1 5.31-2.28h.24l.06.24c.06.22 5.69 22 4.09 38.78v.3H350Zm54.58-38.43a6.45 6.45 0 0 0-4.66 2.07 5 5 0 0 0-.58.88c-1 1.66-2.56 4.45-7.85 1.86-5-2.47-8.51-.6-9.52.09 1.11 1.06 4.69 5 2.09 10.09-2.14 4.16-13.82 8.56-22.36 11.77-3.49 1.32-6.51 2.45-8 3.25-4.26 2.29-3.42 6.9-3.15 8h58.06c1.39-15.69-3.47-35.58-4.08-38.03Z" class="color1a120e svgShape"/><path fill="#0e1a15" d="M397.62 535.72h.89c0-10.79 9.42-14.24 9.82-14.38l-.29-.84c-.1.04-10.42 3.79-10.42 15.22Z" class="color1a120e svgShape"/><path fill="#0e1a15" d="M409.23 534.52c.06 2.1-.3 4-.36 5.36h-58.61a8.79 8.79 0 0 1 .23-5.36ZM378.41 526.74h.1c.54-.1 13.29-2.53 14.63-8.19s-3.26-11-3.45-11.24l-.68.58c.05.05 4.48 5.31 3.26 10.46-1.15 4.85-12.63 7.26-13.82 7.5l-6.78-1.85-.23.86Z" class="color1a120e svgShape"/><path fill="#0e1a15" d="M381.18 518.54h.89v6.47h-.89z" transform="rotate(-71.11 381.65 521.783)" class="color1a120e svgShape"/><path fill="#0e1a15" d="M386.22 514.86h.89v6.47h-.89z" transform="rotate(-71.05 386.678 518.097)" class="color1a120e svgShape"/><path fill="#0e1a15" d="M338.83 424.11c1.37 11.18 20.34 97 20.34 97s31.89-.26 49.24-21.44c0 0-18.55-60.08-22.38-73.09s-49.65-22.49-47.2-2.47Z" class="color1a120e svgShape"/><path fill="#0e1a15" d="M437.19 434c-10 6.17-73 20.84-91.6 6.39-10-7.75-10.74-32.54 7.3-40.3 11.82-5.07 66.28-15.62 78.13-14.51S466.3 416 437.19 434Z" class="color1a120e svgShape"/><path fill="#ffffff" d="m402.12 505 .84-.3-1.32-3.7c-9.49-26.42-22.48-62.6-17.74-72a3.67 3.67 0 0 1 2.26-2c10.78-3.22 49.56-15.19 49.95-15.31l-.26-.85c-.39.12-39.16 12.09-49.94 15.3a4.61 4.61 0 0 0-2.8 2.47c-4.92 9.73 7.62 44.64 17.69 72.69ZM360.31 518.31c.05-.42 4.95-42 4.39-56.57h-.89c.56 14.53-4.33 56-4.38 56.43Z" class="colorfff svgShape"/><path fill="#0e1a15" d="M472.12 438c-11.94 1.6-70.34 15.75-88-.54-9.49-8.74-8.26-30.17 11.4-36 12.88-3.83 56.08-19.94 92.36-6.63 23.74 8.72 11.88 39.5-15.76 43.17Z" class="color1a120e svgShape"/><path fill="#ffffff" d="m458.66 505.51-17.64 7.45-14.13-21 22.09-9.34 9.68 22.89z" class="colorfff svgShape"/><path fill="#0e1a15" d="m426.4 491.81 22.75-9.62 9.93 23.49-18.18 7.69Zm22.41-8.76-21.42 9.05 13.75 20.46 17.09-7.23Z" class="color1a120e svgShape"/><path fill="#ffffff" d="M435.4 506.43s4-3.4 10.18-.37 7-1.55 8.06-2.67a6.8 6.8 0 0 1 5.15-2.17s5.69 21.74 4.08 38.66h-58.61s-1.81-5.89 3.25-8.61 27.26-9.14 30.21-14.88-2.32-9.96-2.32-9.96Z" class="colorfff svgShape"/><path fill="#0e1a15" d="M404 540c0-.06-1.83-6.19 3.4-9 1.52-.81 4.56-2 8.07-3.28 8.44-3.18 20-7.53 22-11.46 2.78-5.43-2-9.39-2.23-9.56l-.31-.24.3-.26s4.21-3.51 10.53-.41c4.75 2.32 6 .05 7-1.6a5.08 5.08 0 0 1 .67-1 7.1 7.1 0 0 1 5.31-2.28h.26l.06.24c.06.22 5.69 22 4.09 38.78v.3H404Zm54.58-38.43a6.47 6.47 0 0 0-4.66 2.07 5.57 5.57 0 0 0-.58.88c-1 1.66-2.56 4.45-7.85 1.86-5-2.47-8.51-.6-9.52.09 1.11 1.06 4.69 5 2.09 10.09-2.13 4.16-13.82 8.56-22.36 11.77-3.49 1.32-6.51 2.45-8 3.25-4.26 2.29-3.42 6.9-3.15 8h58.06c1.39-15.69-3.47-35.58-4.08-38.03Z" class="color1a120e svgShape"/><path fill="#0e1a15" d="M451.62 535.72h.89c0-10.79 9.43-14.24 9.83-14.38l-.3-.84c-.1.04-10.42 3.79-10.42 15.22Z" class="color1a120e svgShape"/><path fill="#0e1a15" d="M463.24 534.52c.06 2.1-.31 4-.37 5.36h-58.61a8.84 8.84 0 0 1 .24-5.36ZM432.41 526.74h.1c.54-.1 13.29-2.53 14.63-8.19s-3.25-11-3.45-11.24l-.68.58c.05.05 4.48 5.31 3.26 10.46-1.14 4.85-12.63 7.26-13.82 7.5l-6.77-1.85-.24.86Z" class="color1a120e svgShape"/><path fill="#0e1a15" d="M435.18 518.54h.89v6.47h-.89z" transform="rotate(-71.11 435.587 521.766)" class="color1a120e svgShape"/><path fill="#0e1a15" d="M440.22 514.86h.89v6.47h-.89z" transform="rotate(-71.11 440.632 518.079)" class="color1a120e svgShape"/><path fill="#0e1a15" d="M379.3 428.5c2.11 11.07 27.17 95.53 27.17 95.53s33.32-2.29 50.16-24.53c0 0-23.05-58.79-27.85-71.53s-53.26-19.3-49.48.53Z" class="color1a120e svgShape"/><path fill="#ffffff" d="m452.58 505 .84-.3c-1.22-3.38-2.51-6.94-3.84-10.58-9.12-25-20.47-56.12-16.22-64.58a3.56 3.56 0 0 1 2.2-1.95c3.31-1 8.4.19 14.3 1.55 12.72 2.94 30.14 7 40.67-10l-.76-.47c-10.19 16.4-26.56 12.61-39.71 9.57-6-1.39-11.22-2.59-14.75-1.54a4.49 4.49 0 0 0-2.75 2.41c-4.42 8.8 6.53 38.81 16.18 65.28 1.33 3.69 2.63 7.24 3.84 10.61ZM435.51 465.62l.74-.5c-.08-.11-7.6-11.2-15.93-18.36l-.58.67c8.26 7.08 15.7 18.08 15.77 18.19Z" class="colorfff svgShape"/><path fill="#ffffff" d="M417.78 309.64c-4.3 19.68-2 70.47-7.82 78.8 0 0 1.09 3.28 8 3.28 25.62 0 58.7 58.68 74.28 38.21 14.47-19 15.15-125.12-4.85-138.37-20.39-13.56-61.8-17.63-69.61 18.08Z" class="colorfff svgShape"/><path fill="#0e1a15" d="M484.27 434.57c-8.23 0-18.6-9.46-29.56-19.47C442.28 403.76 429.43 392 418 392c-7.09 0-8.29-3.35-8.33-3.49l-.05-.15.09-.13c3.16-4.55 3.91-22.77 4.64-40.4.59-14.51 1.21-29.51 3.13-38.28 2.66-12.2 9.62-20.9 20.1-25.15 16.13-6.55 37.38-1.5 50 6.87 6.77 4.49 10.47 18.86 12.38 30.12 6.53 38.56 2.63 95.45-7.45 108.7a10.29 10.29 0 0 1-7.34 4.41c-.28.06-.59.07-.9.07Zm-74-46.1c.3.58 1.88 2.94 7.69 2.94 11.67 0 24.61 11.81 37.12 23.23 11.28 10.29 21.93 20 30 19.27a9.57 9.57 0 0 0 6.89-4.17c10-13.14 13.84-69.78 7.33-108.21-2.7-16-6.89-26.26-12.11-29.71-12.5-8.28-33.5-13.28-49.44-6.82-10.28 4.18-17.1 12.72-19.73 24.71l-.3-.07.3.07c-1.9 8.72-2.52 23.69-3.11 38.17-.7 18.35-1.41 35.68-4.6 40.59Z" class="color1a120e svgShape"/><path fill="url(#T)" d="m454.03 291.23-18.27 68.51 5.8 17.09 12.73-17.82 4.36-67.05-4.62-.73z"/><path fill="#0e1a15" d="m465.87 294.9-6.79 1-3.81-3.09-3.94 2.38s-4.91-3.14-5-5.46l1.16-5.58 2.17.48s1.83 7.22 7.95 7.16 13.26-5.39 13.26-5.39Z" opacity=".25" class="color1a120e svgShape"/><path fill="#ffffff" d="m466.46 293.4-6.8 1-3.81-3.09-3.94 2.38s-4.91-3.14-5-5.46l1.16-5.58 2.18.48s1.83 7.22 7.94 7.16 13.27-5.39 13.27-5.39Z" class="colorfff svgShape"/><path fill="url(#U)" d="M405.86 388.11c5.79-8.32 7.43-58.63 11.73-78.3 4-18.08 16.61-26.3 30.7-27.92a184.29 184.29 0 0 0-4.06 55.92s17.7-38.38 27.6-53.39c5.8 1.74 15.22 5.34 19.63 8.26 20 13.24 21.48 119.37 16.73 142.78-20.42 10.38-52.82-21.74-77.4-34.07l1.55-26.56S415.62 394 415.12 394c-7.35-.08-9.26-5.89-9.26-5.89Z"/><path fill="#0e1a15" d="M412.87 378a132 132 0 0 0 1.89-22.27c-.25-10.12 3.34-41.84 3.38-42.16l-.88-.1c0 .32-3.64 32.1-3.39 42.28a130.85 130.85 0 0 1-1.87 22.06Z" class="color1a120e svgShape"/><path fill="#99ffd8" d="m448.94 269.16 2 16.52c.81 1.54 5.15 9.57 20.73-1.24l-3.81-24a173.66 173.66 0 0 1-18.92 8.72Z" class="colorffb099 svgShape"/><path fill="#0e1a15" d="M455.84 290.06a7.9 7.9 0 0 1-5.23-4.23l-2-16.88.23-.09a175.68 175.68 0 0 0 18.85-8.69l.41-.23 3.9 24.65-.17.12c-5.38 3.74-10 5.62-13.69 5.62a9.45 9.45 0 0 1-2.3-.27ZM467.57 261a184.2 184.2 0 0 1-18.28 8.4l1.93 16.21a7.18 7.18 0 0 0 4.78 3.84c3.83.94 9-.79 15.28-5.13Z" class="color1a120e svgShape"/><path fill="#61ffc3" d="M449.3 282s15.35 1.63 19.36-8.28c0 0-.42-7-.46-7-11.61 8.07-16.46 7.98-18.9 15.28Z" class="colorff7761 svgShape"/><path fill="#99ffd8" d="M449.57 280c5.41.93 16.56-4.67 19.62-9.22 1.09-1.62 1.62-6.34 1.31-8.73-1-7.47-1.62-14.2-6.77-17.12-2.17-1.22-8.12-1.56-10.33-1.5-7.28.22-9.67 5.61-11 12.77-1.47 7.98-2.35 22.12 7.17 23.8Z" class="colorffb099 svgShape"/><path fill="#0e1a15" d="M443.83 276.68c-4-5.67-2.54-16.29-1.74-20.59 1.22-6.63 3.44-12.8 11.3-13 1.9-.05 8.17.23 10.51 1.55 5.06 2.87 5.86 9.13 6.8 16.38l.13 1c.29 2.29-.16 7.17-1.37 9-3 4.52-14.27 10.32-19.94 9.35a7 7 0 0 1-.69-.14 8.37 8.37 0 0 1-5-3.55Zm5.8 2.95c5.36.92 16.41-4.8 19.29-9.08 1-1.51 1.57-6.07 1.26-8.5l-.13-1c-.91-7.08-1.7-13.19-6.48-15.9-2.09-1.18-8-1.51-10.16-1.45-7.4.22-9.5 6.14-10.68 12.5-.78 4.22-2.18 14.63 1.63 20.09a7.84 7.84 0 0 0 5.27 3.33Z" class="color1a120e svgShape"/><path fill="#0e1a15" d="m448.12 267.31.38-.8c-1-.48-2.54-1.46-2.63-2.05a.26.26 0 0 1 .12-.25c3-2.62 2.88-6.81 2.88-7v-.11l-.05-.1a4.72 4.72 0 0 0-4.79-2.16l.13.88a3.79 3.79 0 0 1 3.83 1.62c0 .66-.19 4.07-2.58 6.18a1.13 1.13 0 0 0-.41 1c.17 1.34 2.63 2.56 3.12 2.79Z" class="color1a120e svgShape"/><path fill="#99ffd8" d="M466.4 262a5.12 5.12 0 1 0 6-4.15 5.13 5.13 0 0 0-6 4.15Z" class="colorffb099 svgShape"/><path fill="#0e1a15" d="M467 266a5.4 5.4 0 0 1-.9-4.07 5.49 5.49 0 0 1 2.25-3.52 5.45 5.45 0 1 1 2.16 9.84l-.36-.08A5.34 5.34 0 0 1 467 266Zm5.31-7.84a4.81 4.81 0 0 0-3.59.79 4.73 4.73 0 0 0-2 3.09 4.8 4.8 0 1 0 5.87-3.81Z" class="color1a120e svgShape"/><path fill="#0e1a15" d="M471.38 266.56a2.87 2.87 0 0 0 2-.42l-.46-.76s-1.14.64-1.58.15c-.08-.09 0-.25.31-.72s.9-1.29.3-2.09a4.21 4.21 0 0 0-.5-.54c-.24-.23-.58-.55-.57-.74s.13-.24.33-.38a2 2 0 0 1 2.09-.07l.47-.75a2.85 2.85 0 0 0-3.07.09 1.4 1.4 0 0 0-.7 1 1.94 1.94 0 0 0 .84 1.46 3.1 3.1 0 0 1 .4.42c.18.25.08.48-.32 1.05s-.81 1.18-.24 1.82a1.4 1.4 0 0 0 .7.48ZM447 270.07a11.74 11.74 0 0 0 5.45.17l-.2-.87c-3.58.84-7.45-1-7.49-1l-.39.8a15.19 15.19 0 0 0 2.63.9ZM458.64 258.88l.54-.71c-4.46-3.41-6.37-1.3-6.45-1.21l.68.58-.34-.29.33.3s1.5-1.55 5.24 1.33Z" class="color1a120e svgShape"/><path fill="#0e1a15" d="m465.85 256 .32 6.1a6.66 6.66 0 0 0 1.94.24c1.07-6 5.88-4 5.88-4 5.76-6.18 1.51-18.85-3.82-19.35 0 0-3-7.8-14.61-6.61s-11.77 8.23-11.77 8.23-3.33.74-3.83 6.13 2.1 11.63 2.1 11.63l.82-4.67s11 .47 17.89-5.3c.4 6.2 5.08 7.6 5.08 7.6Z" class="color1a120e svgShape"/><path fill="#ffffff" d="m383.63 450 .86-.22c-.06-.23-5.89-23.55-5.74-26.72V422c0-3.7.09-10.58 10.19-14.67l-.33-.82c-10.61 4.29-10.7 11.84-10.73 15.49v1c-.17 3.31 5.51 26 5.75 27Z" class="colorfff svgShape"/><path fill="#0e1a15" d="m445.72 349.45-.73-.48 14.84-22.56-1.32-12.85 11.63-4.24 4.92-20.86.85.19-5.02 21.33-11.44 4.17 1.28 12.48-.08.13-14.93 22.69zM438.51 347.91l-5.76-24.29 5.4-9.61-1.94-9.66 6.72-18.99.82.29-6.63 18.76 1.95 9.75-.08.14-5.31 9.45 5.68 23.96-.85.2z" class="color1a120e svgShape"/><path fill="#ffffff" d="M402.76 364.31c-5 0-6.17-3.85-6.19-3.9l.84-.25c.06.2 1.51 4.71 8.45 2.81l.23.85a12.88 12.88 0 0 1-3.33.49ZM415.64 411.54s47.83-25.2 61.47-38.85c0 0-2.88-10.26-20.64-16.95L400 399.23Z" class="colorfff svgShape"/><path fill="#0e1a15" d="m415.59 412-16.23-12.81 57-44 .22.08c17.75 6.69 20.77 16.8 20.89 17.23l.06.23-.17.17c-13.52 13.54-61.09 38.68-61.57 38.93Zm-14.88-12.8 15 11.81c3.66-1.94 47.78-25.48 60.95-38.47-.56-1.53-4.4-10.39-20.09-16.37Z" class="color1a120e svgShape"/><path fill="#ffffff" d="M385.09 409.14s1.11-2.85 2-4.69 1.91-2.76 5.26-3.41 9.13-4.37 12.19-3 13.13 6.17 10.31 15-15.76 16.65-15.73 10.68c0 0-4.77 3.49-6-2.17 0 0-6.43 1.29-5.33-4.2-.02.03-8.74.92-2.7-8.21Z" class="colorfff svgShape"/><path fill="#0e1a15" d="M401 426.26a3.88 3.88 0 0 1-.48 0 2.06 2.06 0 0 1-1.79-1.76 4.68 4.68 0 0 1-3.73.5 4 4 0 0 1-2.24-3c-.94.12-3.31.28-4.64-1.05a3.62 3.62 0 0 1-.87-3.18c-1 0-3.32-.15-4.29-1.76s-.36-3.94 1.74-7.11c.14-.36 1.16-3 2-4.67.89-1.88 2-3 5.55-3.65a25.66 25.66 0 0 0 4-1.39c2.94-1.2 6.27-2.55 8.45-1.56 11.18 5.07 11.9 11.24 10.54 15.52-2.24 6.99-10.38 13.11-14.24 13.11Zm-1.5-3.33v.82c0 1.31.66 1.57 1.16 1.65 3.25.53 11.59-5.68 13.75-12.45 1.82-5.68-1.67-10.7-10.08-14.51-1.86-.84-5 .44-7.79 1.57a25.11 25.11 0 0 1-4.15 1.43c-3.25.64-4.16 1.5-5 3.19s-2 4.63-2 4.66v.08c-1.9 2.86-2.5 5-1.75 6.26 1 1.62 4 1.33 4 1.33l.56-.06-.11.56a3.11 3.11 0 0 0 .55 3c1.34 1.34 4.25.77 4.28.76l.41-.08.08.4c.33 1.5.94 2.43 1.81 2.76 1.55.59 3.53-.82 3.55-.84Z" class="color1a120e svgShape"/><path fill="#0e1a15" d="M387.77 417.38a15.33 15.33 0 0 1 1.74-3.34 15.52 15.52 0 0 1 2.44-2.89 15 15 0 0 1-1.75 3.35 15.47 15.47 0 0 1-2.43 2.88ZM393.11 421.59a35.84 35.84 0 0 1 2.62-4.31c1-1.37 1.93-2.71 3-4a12.75 12.75 0 0 1-1 2.33 22.66 22.66 0 0 1-1.32 2.16 21.9 21.9 0 0 1-3.3 3.82ZM399.11 423.82c.78-.92 1.56-1.71 2.32-2.55.39-.41.76-.83 1.14-1.26s.76-.85 1.19-1.28a7 7 0 0 1-1.72 3.1 8.78 8.78 0 0 1-1.34 1.17 5.71 5.71 0 0 1-1.59.82ZM430 403.11l.51.91c9-5 34.77-20.77 35-20.93l-.55-.89c-.26.16-25.96 15.94-34.96 20.91Z" class="color1a120e svgShape"/><path fill="#0e1a15" d="M473.38 381.42s-28.25 18.17-48 29.79c0 0-16.15-11.67-22.94-26.42l54.49-30.17s21.31 10.23 21.85 15.36-5.4 11.44-5.4 11.44Z" class="color1a120e svgShape"/><path fill="url(#V)" d="M466.94 301.65c-5.17 7.17-10.78 25-17.58 57.14 0 .07 12 26.29 24 22.63l.48-.15a.39.39 0 0 1 .08-.1c5.1-5.93 11.27-11.68 16.6-23.62 13.59-30.5 14.18-42.43 8-57.33-3.76-8.96-17.93-17.49-31.58 1.43Z"/><path fill="#0e1a15" d="m452 344.43 1 .21c0-.18 3.65-17.9 6.66-23.69l-.93-.48c-3.04 5.91-6.58 23.23-6.73 23.96Z" class="color1a120e svgShape"/><path fill="#ffffff" d="m414.8 411.55 1.1-.64.66-2.91s-2.26-5.13-4.31-7.13-8.61-3.86-8.61-3.86a16.93 16.93 0 0 1-4 1.81c-2 .56-.2 8.05-.2 8.05l10.1 7.13Z" class="colorfff svgShape"/><path fill="#0e1a15" d="M425.8 364.06c-.64 0-1.27 0-1.9-.05l-20.5-1.07v-.88l20.5 1.08a35.83 35.83 0 0 0 16.9-3.26c16.85-7.78 40.53-23.71 40.77-23.87l.48.72c-.23.16-24 16.14-40.88 23.95a36.87 36.87 0 0 1-15.37 3.38ZM454 260.67a1.36 1.36 0 1 0 1.36-1.35 1.36 1.36 0 0 0-1.36 1.35ZM443.73 258.76a1.36 1.36 0 1 0 1.35-1.36 1.35 1.35 0 0 0-1.35 1.36Z" class="color1a120e svgShape"/><path fill="#e6e6e6" d="M465.78 443.67H458s-21.55-3.41-16.56-45a14.3 14.3 0 0 1 9.25-11.73 198.29 198.29 0 0 1 66.74-11.21 7.12 7.12 0 0 1 .82.12 196.19 196.19 0 0 0-59.72 11.09 14.28 14.28 0 0 0-9.26 11.73c-5.04 41.59 16.51 45 16.51 45Z" class="colore6e6e6 svgShape"/><path fill="#0e1a15" d="M457.9 444c-.22 0-21.81-3.94-16.84-45.36a14.55 14.55 0 0 1 9.47-12 199.17 199.17 0 0 1 66.87-11.24s.33 0 .86.13l2.93.55-3 .1a196 196 0 0 0-59.62 11.07 13.88 13.88 0 0 0-9 11.46c-4.89 40.75 16.08 44.6 16.29 44.63l-.05.65Zm-9-45.36a14.53 14.53 0 0 1 9.46-12 192.56 192.56 0 0 1 45.56-10.14 194.43 194.43 0 0 0-53.16 10.76 13.91 13.91 0 0 0-9.05 11.46c-4.89 40.75 16.08 44.6 16.24 44.63h5.72c-5.33-2.18-18.81-11.07-14.77-44.72Z" class="color1a120e svgShape"/><path fill="#e6e6e6" d="M534.68 396.76c-6.59 19.76-13.33 36.46-13.33 36.46s-3.21 10.45-16.22 10.45h-7.83c13 0 16.23-10.45 16.23-10.45s6.74-16.7 13.32-36.46c5.67-17-5.46-20.32-8.65-20.91q3.43-.12 7-.12s16.07 1.27 9.48 21.03Z" class="colore6e6e6 svgShape"/><path fill="#0e1a15" d="M497.3 443.34c12.6 0 15.88-10.11 15.92-10.24s6.82-16.92 13.32-36.44c2.11-6.34 2.09-11.4-.06-15-2.35-4-6.62-5.13-8.34-5.45l-2.94-.54 3-.11c2.2-.08 4.58-.11 7.05-.12.25 0 6.13.54 9.35 5.42 2.54 3.84 2.68 9.24.41 16-6.51 19.54-13.27 36.32-13.33 36.46S518.23 444 505.13 444h-7.83Zm23.14-67.23a12.17 12.17 0 0 1 6.6 5.18c2.26 3.81 2.29 9 .12 15.57-6.51 19.54-13.26 36.32-13.32 36.46a16.4 16.4 0 0 1-11.24 10h2.53c12.6 0 15.87-10.11 15.91-10.24s6.82-16.92 13.33-36.44c2.2-6.61 2.09-11.81-.33-15.47-3-4.61-8.8-5.13-8.83-5.14-1.64.02-3.21.04-4.77.08Z" class="color1a120e svgShape"/><path fill="#0e1a15" d="M465.68 444.54c-.91-.14-22.34-4-17.3-46a15.08 15.08 0 0 1 9.83-12.46 199.26 199.26 0 0 1 67-11.27h.07c.26 0 6.4.56 9.77 5.67 2.65 4 2.81 9.55.48 16.53-6.52 19.56-13.28 36.35-13.33 36.45s-3.56 11.06-17.07 11.06h-39.45Zm-6.86-56.76a13.33 13.33 0 0 0-8.68 11c-4.69 39.09 14.57 43.75 15.76 44h39.27c12.16 0 15.25-9.41 15.4-9.88.06-.17 6.81-16.9 13.31-36.41 2.14-6.42 2-11.46-.26-15-2.78-4.22-8-4.85-8.42-4.9a197.42 197.42 0 0 0-66.38 11.19Z" class="color1a120e svgShape"/></g><path fill="url(#W)" d="M187 326.65c18.34-25.63 38.71-12.4 43.9-5.12C278.16 387.81 349 401.1 356 442.44c3.79 22.37-12.5 78.4-110.25 79.2C143.78 522.47 120 454 143.27 410.28s25.39-57.96 43.73-83.63Z"/><path fill="#1b1b1b" d="M195.72 374.24c4.46-40 26.8-34.92 58.83-7.13s41.61 41.41 62.64 42.47 21.23 15.08 17.44 18.63c-20.91 19.54-77.75 22.72-114.72 16-19.12-3.47-37.43-28.36-52-26.62.09.03 24.2-10.96 27.81-43.35Z" opacity=".3" class="color1b1b1b svgShape"/><path d="M235.57 519.54c16.82 0 28.48-13 33.78-25.22 6.78-15.58 5-31.4-4.61-40.31-8.19-7.61-18.59-8.85-28.64-10.05-15.46-1.84-30-3.59-38.25-26.16-13.63-37.53 8.08-99.72 8.3-100.35l-.85-.26c-.22.62-22 63.09-8.3 100.89 8.38 23.06 23.94 24.92 39 26.71 9.91 1.19 20.16 2.41 28.13 9.83 9.32 8.66 11.06 24.12 4.42 39.38-5.2 11.94-16.58 24.7-33 24.7Z" fill="#000000" class="color000 svgShape"/><path d="M317.33 504.06c16.25-5.57 23.3-25.72 23-42.08-.28-14.17-5.94-30.93-21-35.5-10.37-3.14-18.25-3.25-25.2-3.35-12.59-.18-23.45-.34-44.21-17.8-32-26.91-32.27-86.3-32.26-86.89h-.9c0 .6.28 60.35 32.57 87.52 21 17.67 32 17.83 44.78 18 7.23.1 14.7.21 24.94 3.31 14.61 4.43 20.1 20.84 20.38 34.72.32 16.07-6.55 35.84-22.39 41.27ZM221.34 517.44a100.8 100.8 0 0 1-12.82-2.37 120.45 120.45 0 0 1-12.42-3.82 93.59 93.59 0 0 1-22.72-11.92 66.8 66.8 0 0 1-17.24-18.18 62.16 62.16 0 0 1-8.64-23c-.15-1-.35-2-.46-3l-.34-3.06c-.13-2-.28-4.08-.27-6.13s.07-4.09.13-6.14.28-4.08.57-6.12a119.23 119.23 0 0 1 2.11-12.13c.95-4 2-8 3.25-11.92a202.22 202.22 0 0 1 9-23.12c3.42-7.57 7.22-15 11.27-22.25-4.18 7.21-8.12 14.56-11.67 22.08a202.24 202.24 0 0 0-9.22 23.11 127.81 127.81 0 0 0-5.51 24.15c-.29 2-.41 4.1-.59 6.16s-.21 4.12-.15 6.19.13 4.13.25 6.19l.33 3.09c.11 1 .31 2 .46 3.07a63 63 0 0 0 8.82 23.22 66.32 66.32 0 0 0 17.52 18.3 93.86 93.86 0 0 0 23 11.79 117 117 0 0 0 12.51 3.63 100.1 100.1 0 0 0 12.83 2.18Z" fill="#000000" class="color000 svgShape"/><path fill="#99ffd8" d="m351.41 475.95-13.13 19.52-16.39-6.93 8.99-21.27 20.53 8.68z" class="colorffb099 svgShape"/><path fill="url(#X)" d="M326.55 486.58c1 1 1.73 5.3 7.49 2.47s9.46.35 9.46.35-4.89 3.92-2.15 9.25 23.37 11.31 28.08 13.83 3 8 3 8H318c-1.5-15.72 3.8-35.93 3.8-35.93a6.3 6.3 0 0 1 4.75 2.03Z"/><path d="M328.53 516.62h-1a14.14 14.14 0 0 0-9.06-13.27l.34-1c.06.07 9.72 3.57 9.72 14.27Z" fill="#000000" class="color000 svgShape"/><path fill="#ffffff" d="M372.44 520.48H318c-.05-1.3-.39-3-.34-5h54.6a8.18 8.18 0 0 1 .18 5Z" class="colorfff svgShape"/><path fill="#0e1a15" d="M372.66 520.77h-55v-.27c0-.46-.08-1-.14-1.55a24.26 24.26 0 0 1-.2-3.46v-.28h55.07l.07.18a8.47 8.47 0 0 1 .23 5.18Zm-54.41-.57h54a7.94 7.94 0 0 0-.19-4.41h-54.14a24.23 24.23 0 0 0 .2 3.1c.05.46.1.9.13 1.31Z" class="color1a120e svgShape"/><path d="M336.5 490.8c0 .05-4.12 4.9-3 9.63 1 4.42 11.53 6.65 12.74 6.89l6.27-1.72.28 1-6.51 1.79h-.11c-.51-.1-12.42-2.37-13.67-7.69s3-10.33 3.22-10.54Z" fill="#000000" class="color000 svgShape"/><path d="M340.29 503.14h6.01v1.03h-6.01z" transform="rotate(-18.91 343.217 503.587)" fill="#000000" class="color000 svgShape"/><path d="M335.61 499.72h6.01v1.03h-6.01z" transform="rotate(-18.92 338.688 500.323)" fill="#000000" class="color000 svgShape"/><path fill="url(#Y)" d="M396 411.4c2.81 10.37-38.45 85.45-38.45 85.45s-12.37 1.27-35.11-20.59c0 0 17.41-47.8 21.62-62.12S390.2 390 396 411.4Z"/><path fill="url(#Z)" d="M299.85 377.44c13-1.22 67.67 1.9 80.68 7.49 19.86 8.53 19 35.81 8 44.34-20.44 15.9-89.79-.24-100.8-7-32-19.77-.92-43.6 12.12-44.83Z"/><path d="M343.91 414.64c-11.86-3.54-54.53-16.72-55-16.85l.3-1c.43.14 43.09 13.31 55 16.85a5.91 5.91 0 0 1 3.78 3.17c3.53 7.18-3 24.16-11.24 45.66-2.44 6.35-5 12.92-7.37 19.64l-1-.35c2.42-6.73 4.94-13.3 7.38-19.65 7.84-20.43 14.61-38.07 11.27-44.84a4.85 4.85 0 0 0-3.12-2.63ZM369.43 460.67c-8.8 13.35-16 31.31-16.1 31.49l-.95-.38c.07-.18 7.33-18.24 16.19-31.68Z" fill="#000000" class="color000 svgShape"/><path fill="url(#aa)" d="M240.44 387.84c37.2-17 67.56-8.38 81.32-5 21 5.11 23.66 28.56 14.27 38.8-17.51 19.08-74.38 15.94-87 15-29.24-2.26-32.97-37.64-8.59-48.8Z"/><path fill="#9bfbd6" d="M344.85 374.75s10.91 2 12.88-4.86c2.12-7.39 16.11-17.85 16.11-17.85S367.47 347 356 353.9s-17.47 6.94-17.47 6.94Z" class="colorfba19b svgShape"/><path fill="#9bfbd6" d="M373.33 351.63a176.87 176.87 0 0 1 14.94 14.75c.86 1-.93 2.63-2.16 2.15-4.77-1.88-13.06-12-13.06-12s6.25 10.89 5.24 12.15c-.57.72-4.35 2.91-7.48 4.66-2.23 1.25-2.48.5-4.15-1.44-2.13-2.46-4.18-4-4.65-4-.95.09-6 4.37-7.38 4.9 0 0-1.13-12.88 1.45-15.94 2.92-3.51 17.25-5.23 17.25-5.23Z" class="colorfba19b svgShape"/><path fill="#0e1a15" d="m372 372.74-6.6-10.32a93.65 93.65 0 0 1 6.6 10.32ZM375.2 370.87l-6.84-12.76s5.22 8.49 6.84 12.76Z" class="color1a120e svgShape"/><path fill="#9bfbd6" d="m341.13 361.28 4.63 13.31c-11.16 1.76-36.93 2.16-49.57-7.8-7.17-5.64-10.87-14.18-9.19-17.69 4.09-8.54 14.72-7.31 24.86-4.21 1.41.44 29.27 16.39 29.27 16.39Z" class="colorfba19b svgShape"/><path fill="#0e1a15" d="M271 221.25c1.53-6.29 16.19-9.54 25.46 5 13.21 20.72-5.56 110.4-4.63 115.65 0 0-32.55.87-37.78-13.19.04.01 6.72-65.34 16.95-107.46Z" class="color1a120e svgShape"/><path fill="url(#ab)" d="M302.7 286.48c5.89 10.33 14 44.43 18.27 64.34-7 3-11.45 18.64-24 19.37-8.64-8.88-18.44-28.36-20.5-42.5-2.56-17.87 9.98-69.69 26.23-41.21Z"/><path fill="url(#ac)" d="M282 276.69c-6.46.17-19.56-.17-24.42 1.22-22.05 6.31-20.7 22.09-19.58 39.27 2.22 35.66-8.69 80.61-8.69 80.61s38.36 8.76 75.58-20.58c0 0-12.92-22 3.69-46.82 12.6-18.82-5-35.65-7-46.67-1.46-7.28-16.15-7.12-19.58-7.03Z"/><path fill="#0e1a15" d="m235.9 400 .24-1.06c-3.1-.7-5.28-1.28-6.21-1.54 1-3.78 10.59-47.76 8.57-80.27l-.06-.84c-1-15.53-1.81-28.94 13.85-35.91l-.44-1c-16.35 7.27-15.45 21.7-14.49 37v.84c2.19 35.15-8.6 80.18-8.67 80.43l-.15.52.52.15s2.61.73 6.84 1.68ZM301.9 370.11l1.05-.28c-2.59-9.88-3.64-24.69 6-39.14 7.07-10.56 4.51-20.42 2-26.92l-1 .4c2.45 6.27 4.94 15.78-1.85 25.92-9.92 14.78-8.85 29.91-6.2 40.02Z" class="color1a120e svgShape"/><path fill="#0e1a15" d="M294.19 335.38h.26c6.09-.05 11.07-1.59 14.37-4.46l-.71-.82c-3.06 2.66-7.92 4.15-13.67 4.19h-.32ZM278.65 334.35c7.78-8.59 4.71-20.1 4.67-20.21l-1 .29c0 .11 2.94 11.06-4.44 19.19Z" class="color1a120e svgShape"/><path fill="url(#ad)" d="M199.16 361.21c.46-11.1 16.93-50.56 38.41-71.49 20.43-19.9 29.22 13.09 22 26.85-4.84 9.27-30.07 47.82-37.22 53.05-10.23 7.5-23.44-2.42-23.19-8.41Z"/><path fill="#0e1a15" d="M199.93 359.88c2.91-22.24 18.83-43.89 19-44.11l-.88-.65c-.16.22-16.24 22.1-19.19 44.62ZM236.15 353.57c5.71-7.56 12.22-22.74 12.29-22.89l-1-.43c-.07.15-6.53 15.21-12.16 22.66Z" class="color1a120e svgShape"/><path fill="#99ffd8" d="M308.12 368.87c.11-1.48-5.05-2.82-8-9.75s-4.8-3.28-11.12-5.12-7.51-3.29-12.68 1.64-7 5.17-10.44 4.23-38-10.85-49.74-12.6-22.79 15.87-8.49 25.63h72.08s6.1-.82 7.51-5.93 7.34-2.53 8.51-.06 0 5.69 2.58 5.58 2.59-4.05 2.59-4.05 7.01 2.9 7.2.43Z" class="colorffb099 svgShape"/><path fill="#0e1a15" d="M207.63 373.14h-.09l-.07-.05c-6.17-4.2-8.37-10.48-5.9-16.77s8.71-10.26 14.59-9.38c7 1.05 23.12 5.12 47.89 12.08l1.88.53c3.21.89 5 .75 10.18-4.16 4.58-4.38 6.24-3.85 10.65-2.43.69.22 1.45.47 2.3.72a15.63 15.63 0 0 0 5.1.62c2.64 0 4.24 0 6.24 4.71a18.39 18.39 0 0 0 6.25 7.77c1.09.85 1.8 1.41 1.75 2.11a1.18 1.18 0 0 1-.57 1c-1.45.89-5.36-.52-6.67-1-.08 1.07-.51 3.81-2.83 3.91-1.87.06-2.07-1.47-2.24-3a8.29 8.29 0 0 0-.62-2.76 5.72 5.72 0 0 0-5.08-2.7 3.25 3.25 0 0 0-2.89 2.66c-1.44 5.23-7.69 6.13-7.75 6.14Zm.09-.57h72s5.89-.86 7.23-5.72a3.8 3.8 0 0 1 3.4-3.14 6.34 6.34 0 0 1 5.65 3 9.14 9.14 0 0 1 .68 2.94c.18 1.71.31 2.53 1.63 2.47 2.28-.11 2.31-3.73 2.31-3.76V368l.4.17c1.41.59 5.33 2 6.51 1.23a.59.59 0 0 0 .31-.52c0-.39-.66-.92-1.53-1.61a19 19 0 0 1-6.43-8c-1.85-4.37-3.12-4.4-5.71-4.36a16.88 16.88 0 0 1-5.26-.65c-.86-.25-1.63-.5-2.32-.72-4.4-1.42-5.73-1.85-10.08 2.3-5.08 4.85-7 5.31-10.72 4.29l-1.88-.52c-24.75-7-40.84-11-47.82-12.07-5.63-.84-11.63 3-14 9s-.24 11.98 5.63 16.03Z" class="color1a120e svgShape"/><path fill="#e6e6e6" d="M316.84 387.69a.47.47 0 0 1-.46.46l-79.59.06a.92.92 0 0 1-.92-.92v-2.23l81-.06Z" class="colore6e6e6 svgShape"/><path fill="#0e1a15" d="M236.79 388.68a1.4 1.4 0 0 1-1.4-1.39v-2.71h.48l81.45-.05v3.16a.93.93 0 0 1-.94.93Zm-.44-3.14v1.75a.44.44 0 0 0 .44.44l79.57-.06v-2.19Z" class="color1a120e svgShape"/><path fill="#0e1a15" d="M246.26 384.12v.93h-2.85v-1.25H246a.31.31 0 0 1 .26.32ZM249.56 384.12v.93h-2.84v-1.24h2.53a.31.31 0 0 1 .31.31ZM252.86 384.11v.94H250v-1.24h2.53a.31.31 0 0 1 .33.3ZM266.59 384.1v.9h-2.84v-1.25h2.53a.31.31 0 0 1 .31.35ZM269.89 384.1v.9h-2.84v-1.25h2.53a.31.31 0 0 1 .31.35ZM308.58 384.07v.93h-2.84v-1.24h2.53a.31.31 0 0 1 .31.31ZM311.88 384.07v.93H309v-1.25h2.53a.31.31 0 0 1 .35.32ZM263.2 384.11v.89h-9.77v-1.2h9.46a.31.31 0 0 1 .31.31ZM322.58 384.06v.94h-9.77v-1.25h9.46a.31.31 0 0 1 .31.31ZM305 384.07v.93h-33.92v-1.25h33.61a.29.29 0 0 1 .31.32Z" class="color1a120e svgShape"/><path fill="#e6e6e6" d="M310.21 325.57a6 6 0 0 1 5.64-4.45l-18.3 66.67a3.63 3.63 0 0 1-2.28-4.44c.73-2.84 11.41-44.2 14.94-57.78Z" class="colore6e6e6 svgShape"/><path fill="#0e1a15" d="m297.87 388.4-.47-.16a4.06 4.06 0 0 1-2.6-5c.32-1.34 3.17-12.45 14.95-57.79a6.45 6.45 0 0 1 6-4.8h.69Zm12.8-62.71c-11.77 45.34-14.62 56.44-14.94 57.77a3.09 3.09 0 0 0 1.51 3.66l18-65.48a5.52 5.52 0 0 0-4.54 4.05Z" class="color1a120e svgShape"/><path fill="url(#al)" d="m315.67 320.53 84.77-.06a1.82 1.82 0 0 1 1.76 2.26l-15.55 61.65-89.18.06 15.71-62a2.58 2.58 0 0 1 2.49-1.91Z"/><path fill="#0e1a15" d="m296.86 384.92 15.86-62.56a3 3 0 0 1 2.95-2.31l84.77-.06a2.31 2.31 0 0 1 2.23 2.86l-15.65 62h-.37ZM315.67 321a2.1 2.1 0 0 0-2 1.58L298.08 384l88.19-.06 15.47-61.28a1.37 1.37 0 0 0-.24-1.16 1.33 1.33 0 0 0-1.06-.51Z" class="color1a120e svgShape"/><path fill="#ffffff" d="M387 387.64a.47.47 0 0 1-.46.46l-87.46.06a.93.93 0 0 1-.93-.92l.08-3.27 88.85-.07Z" class="colorfff svgShape"/><path fill="#0e1a15" d="M299.11 388.45a1.2 1.2 0 0 1-.85-.36 1.17 1.17 0 0 1-.35-.85l.08-3.56h.28l89.15-.06-.09 4a.77.77 0 0 1-.22.53.74.74 0 0 1-.53.21l-87.46.07Zm-.56-4.2-.07 3a.63.63 0 0 0 .19.44.6.6 0 0 0 .44.18l87.47-.06a.17.17 0 0 0 .12-.05.15.15 0 0 0 .05-.12l.08-3.44Z" class="color1a120e svgShape"/><path fill="#0e1a15" d="m235.87 385.64 62.23-.09 12.28-48.16-1.12-.28-12.05 47.29-61.34.09v1.15z" class="color1a120e svgShape"/><path fill="#99ffd8" d="M257.6 277.91c1.41-.22 2.79-.42 4.14-.58l-1.5-25.11a181.28 181.28 0 0 0 20.63 6.36l1.07 17.86c3.9.15 6.37.43 6.91.44 5.58.14 6.93 5.23 6.17 10.76-1.84 13.47-31.29 11.46-45.33-6.56a24.08 24.08 0 0 1 7.91-3.17Z" class="colorffb099 svgShape"/><path fill="#61ffc3" d="m281.2 268.67.23 3.86c-10.68.86-19.62-16.73-20.55-18.63 0 0-.67-1.37-.62-1.34 12.74 6.62 19.45 16.36 20.94 16.11Z" class="colorff7761 svgShape"/><path fill="#99ffd8" d="M279.13 268.35c-5.77-.7-15.41-9.77-17.15-15.32-.61-2 .39-6.81.68-9.34 1-9.12 6.6-13.88 12.72-15.29 2.57-.58 10.49.5 12.72 1.23 7.33 2.43 6.37 9 5.54 16.7-.93 8.61-4.33 23.26-14.51 22.02Z" class="colorffb099 svgShape"/><path fill="#0e1a15" d="M270.43 217.9c-7.75-1.09-13.17 5.11-16.82 11.41-15 25.94-10.09 68.37-13.2 70.2a30.12 30.12 0 0 0 7 4.93c.55.28 2.49-9.69 2.49-9.69s1.84 11.49 3.26 11.81a17.51 17.51 0 0 0 11.51-1.22s-6.07-56.74 2-65.14c3.75-3.91 15.88-20.59 3.76-22.3ZM284.55 255.26c.57-.09 3.47-.59 4.06-1.87a1.28 1.28 0 0 0-.11-1.25c-1.75-2.82-.94-6.27-.74-7a4 4 0 0 1 4.29-.46l.46-1a5 5 0 0 0-5.61.77l-.09.09v.12c-.06.18-1.42 4.45.8 8 .09.13.06.18.05.22-.25.53-2 1.06-3.24 1.24Z" class="color1a120e svgShape"/><path fill="#0e1a15" d="M294.37 238.58c1.65-2.59 1.33-8.31-5.43-13.08-8.28-5.84-14.87-1.66-16.83 4.23 6.39-1.73 15.96 8.99 22.26 8.85Z" class="color1a120e svgShape"/><path fill="#ffffff" d="M267.35 245a5.43 5.43 0 1 1-4.78-6 5.43 5.43 0 0 1 4.78 6Z" class="colorfff svgShape"/><path fill="#0e1a15" d="M262 250.12h-.65a5.72 5.72 0 1 1 5.13-9.25 5.66 5.66 0 0 1 1.2 4.21 5.73 5.73 0 0 1-5.68 5.04Zm0-10.87a5.13 5.13 0 0 0-5.1 4.56 5.15 5.15 0 1 0 5.69-4.53 5.83 5.83 0 0 0-.65-.03Z" class="color1a120e svgShape"/><path fill="#0e1a15" d="M262.21 248.35a1.94 1.94 0 0 0 .59 0 1.45 1.45 0 0 0 1-.62 1.39 1.39 0 0 0-.14-1.8 1.25 1.25 0 0 1-.29-1.27 3.36 3.36 0 0 1 .82-1.28c.51-.57 1.28-1.44 0-2.58-1.7-1.55-4.54.76-4.86 1l.7.83c.62-.52 2.58-1.83 3.43-1.06.46.42.45.43-.11 1.06a4.45 4.45 0 0 0-1.05 1.68 2.3 2.3 0 0 0 .45 2.23c.26.36.25.36.14.53a.35.35 0 0 1-.27.17 2.07 2.07 0 0 1-1.24-.49l-.67.86a3.73 3.73 0 0 0 1.5.74ZM276.11 243.45c4.6-1.75 5.63.18 5.64.2l1-.45c-.05-.12-1.39-2.91-7-.77ZM277.83 258.24l.4-.78s3.63 2.88 7.76 2v.88c-4.26 1.29-7.99-2.01-8.16-2.1ZM277.46 246a1.44 1.44 0 0 0 1.17 1.67 1.45 1.45 0 1 0-1.17-1.67ZM288.74 247.13a1.45 1.45 0 1 0 1.67-1.17 1.45 1.45 0 0 0-1.67 1.17Z" class="color1a120e svgShape"/><path fill="#99ffd8" d="m295.88 475.95-13.13 19.52-16.38-6.93 8.99-21.27 20.52 8.68z" class="colorffb099 svgShape"/><path fill="url(#am)" d="M271 486.58c1 1 1.72 5.3 7.49 2.47s9.46.35 9.46.35-4.89 3.92-2.15 9.25 23.4 11.35 28.1 13.83 3 8 3 8h-54.45c-1.5-15.72 3.8-35.93 3.8-35.93a6.3 6.3 0 0 1 4.75 2.03Z"/><path d="M273 516.62h-1a14.14 14.14 0 0 0-9.06-13.27l.34-1c.07.07 9.72 3.57 9.72 14.27Z" fill="#000000" class="color000 svgShape"/><path fill="#ffffff" d="M316.92 520.48h-54.47c-.06-1.3-.4-3-.34-5h54.59a8.14 8.14 0 0 1 .22 5Z" class="colorfff svgShape"/><path fill="#0e1a15" d="M317.13 520.77h-54.95v-.27c0-.46-.07-1-.14-1.55a25.82 25.82 0 0 1-.2-3.46v-.28h55.06l.08.18a8.47 8.47 0 0 1 .23 5.18Zm-54.41-.57h54a7.94 7.94 0 0 0-.19-4.41h-54.14a24.13 24.13 0 0 0 .21 3.1c.05.46.09.9.12 1.31Z" class="color1a120e svgShape"/><path d="M281 490.8c0 .05-4.13 4.89-3 9.63 1 4.42 11.53 6.65 12.75 6.89l6.25-1.72.27 1-6.5 1.79h-.11c-.51-.1-12.42-2.37-13.68-7.69s3-10.33 3.23-10.54Z" fill="#000000" class="color000 svgShape"/><path d="M284.77 503.14h6.01v1.03h-6.01z" transform="rotate(-18.91 287.71 503.57)" fill="#000000" class="color000 svgShape"/><path d="M280.08 499.72h6.01v1.03h-6.01z" transform="rotate(-18.92 283.144 500.32)" fill="#000000" class="color000 svgShape"/><path fill="url(#an)" d="M340.48 411.4c-1.5 12.31-34.24 85.37-34.24 85.37s-18.47 2.48-39.32-20.51c0 0 17.41-47.8 21.62-62.12s54.63-24.77 51.94-2.74Z"/><path d="M289.84 400a5.4 5.4 0 0 1 3.32 2.92c5.34 10.56-7.76 47.09-18.3 76.44l-1 2.8-1-.35 1-2.8c10.46-29.16 23.48-65.46 18.34-75.63a4.37 4.37 0 0 0-2.69-2.39c-11.69-3.49-46.72 12.77-47.07 12.94L242 413c1.5-.73 35.79-16.62 47.84-13ZM311.62 444.79l.67.78c-9.07 7.78-17.27 19.89-17.35 20l-.86-.58c.08-.11 8.36-12.33 17.54-20.2ZM340.57 404.22c-.27-4.06-.77-11.61-11.61-15.41l.34-1c11.48 4 12 12.32 12.3 16.31 0 .42 0 .8.09 1.13.37 3.61-8 28.18-8.3 29.22l-1-.32c.08-.25 8.61-25.32 8.25-28.8-.01-.35-.04-.7-.07-1.13Z" fill="#000000" class="color000 svgShape"/><path fill="#0e1a15" d="M281.91 261.63a2.31 2.31 0 1 1-1 3.12 2.31 2.31 0 0 1 1-3.12Z" class="color1a120e svgShape"/><path fill="url(#ao)" d="M257.25 237.7a7.81 7.81 0 1 1-4.42 10.12 7.8 7.8 0 0 1 4.42-10.12Z"/><path fill="#0e1a15" d="M258.47 240.81a4.47 4.47 0 1 1-2.53 5.79 4.47 4.47 0 0 1 2.53-5.79Z" class="color1a120e svgShape"/><path fill="#0e1a15" d="m259.88 247.5 13.34 16.06a5 5 0 0 0 6.18 1.22l3.26-1.73a.7.7 0 1 1 .66 1.23l-3.26 1.72a6.42 6.42 0 0 1-7.92-1.56L258.8 248.4a.72.72 0 0 1 .09-1 .71.71 0 0 1 .99.1Z" class="color1a120e svgShape"/><path fill="url(#ap)" d="M260.09 246.46h-.34a1.9 1.9 0 0 1-1.54-2.2c2.2-12.42 9.45-22 19.4-25.73 11.17-4.14 18 1.39 18.24 1.63a1.9 1.9 0 0 1-2.43 2.92c-.24-.2-5.5-4.32-14.49-1-8.67 3.22-15 11.75-17 22.83a1.89 1.89 0 0 1-1.84 1.55Z"/></svg>