<svg xmlns="http://www.w3.org/2000/svg" xmlns:xlink="http://www.w3.org/1999/xlink" width="500" zoomAndPan="magnify" viewBox="0 0 375 374.999991" height="500" preserveAspectRatio="xMidYMid meet" version="1.0"><defs><g/></defs><g fill="#CBD5E1" fill-opacity="1"><g transform="translate(80.249999, 223.124985)"><g><path d="M 28.65625 -10.125 C 31.070312 -10.125 33.976562 -10.65625 37.375 -11.71875 L 37.375 -1.40625 C 33.925781 0.132812 29.6875 0.90625 24.65625 0.90625 C 19.113281 0.90625 15.078125 -0.492188 12.546875 -3.296875 C 10.023438 -6.097656 8.765625 -10.296875 8.765625 -15.890625 L 8.765625 -40.375 L 2.140625 -40.375 L 2.140625 -46.234375 L 9.765625 -50.859375 L 13.765625 -61.578125 L 22.609375 -61.578125 L 22.609375 -50.765625 L 36.828125 -50.765625 L 36.828125 -40.375 L 22.609375 -40.375 L 22.609375 -15.890625 C 22.609375 -13.921875 23.160156 -12.46875 24.265625 -11.53125 C 25.367188 -10.59375 26.832031 -10.125 28.65625 -10.125 Z M 28.65625 -10.125 "/></g></g></g><g fill="#CBD5E1" fill-opacity="1"><g transform="translate(120.614544, 223.124985)"><g><path d="M 6.671875 -63.890625 C 6.671875 -68.398438 9.1875 -70.65625 14.21875 -70.65625 C 19.238281 -70.65625 21.75 -68.398438 21.75 -63.890625 C 21.75 -61.742188 21.117188 -60.070312 19.859375 -58.875 C 18.609375 -57.675781 16.726562 -57.078125 14.21875 -57.078125 C 9.1875 -57.078125 6.671875 -59.347656 6.671875 -63.890625 Z M 21.109375 0 L 7.265625 0 L 7.265625 -50.765625 L 21.109375 -50.765625 Z M 21.109375 0 "/></g></g></g><g fill="#CBD5E1" fill-opacity="1"><g transform="translate(148.992319, 223.124985)"><g><path d="M 27.875 0.90625 C 12.070312 0.90625 4.171875 -7.765625 4.171875 -25.109375 C 4.171875 -33.734375 6.320312 -40.320312 10.625 -44.875 C 14.925781 -49.4375 21.085938 -51.71875 29.109375 -51.71875 C 34.984375 -51.71875 40.25 -50.566406 44.90625 -48.265625 L 40.828125 -37.546875 C 38.640625 -38.429688 36.609375 -39.148438 34.734375 -39.703125 C 32.859375 -40.265625 30.984375 -40.546875 29.109375 -40.546875 C 21.898438 -40.546875 18.296875 -35.429688 18.296875 -25.203125 C 18.296875 -15.273438 21.898438 -10.3125 29.109375 -10.3125 C 31.773438 -10.3125 34.242188 -10.664062 36.515625 -11.375 C 38.785156 -12.082031 41.054688 -13.195312 43.328125 -14.71875 L 43.328125 -2.859375 C 41.085938 -1.441406 38.820312 -0.460938 36.53125 0.078125 C 34.25 0.628906 31.363281 0.90625 27.875 0.90625 Z M 27.875 0.90625 "/></g></g></g><g fill="#CBD5E1" fill-opacity="1"><g transform="translate(196.803191, 223.124985)"><g><path d="M 28.65625 -10.125 C 31.070312 -10.125 33.976562 -10.65625 37.375 -11.71875 L 37.375 -1.40625 C 33.925781 0.132812 29.6875 0.90625 24.65625 0.90625 C 19.113281 0.90625 15.078125 -0.492188 12.546875 -3.296875 C 10.023438 -6.097656 8.765625 -10.296875 8.765625 -15.890625 L 8.765625 -40.375 L 2.140625 -40.375 L 2.140625 -46.234375 L 9.765625 -50.859375 L 13.765625 -61.578125 L 22.609375 -61.578125 L 22.609375 -50.765625 L 36.828125 -50.765625 L 36.828125 -40.375 L 22.609375 -40.375 L 22.609375 -15.890625 C 22.609375 -13.921875 23.160156 -12.46875 24.265625 -11.53125 C 25.367188 -10.59375 26.832031 -10.125 28.65625 -10.125 Z M 28.65625 -10.125 "/></g></g></g><g fill="#CBD5E1" fill-opacity="1"><g transform="translate(237.167736, 223.124985)"><g><path d="M 18.296875 -25.46875 C 18.296875 -20.445312 19.117188 -16.648438 20.765625 -14.078125 C 22.421875 -11.503906 25.109375 -10.21875 28.828125 -10.21875 C 32.523438 -10.21875 35.179688 -11.492188 36.796875 -14.046875 C 38.421875 -16.609375 39.234375 -20.414062 39.234375 -25.46875 C 39.234375 -30.5 38.414062 -34.269531 36.78125 -36.78125 C 35.144531 -39.289062 32.46875 -40.546875 28.75 -40.546875 C 25.050781 -40.546875 22.382812 -39.296875 20.75 -36.796875 C 19.113281 -34.304688 18.296875 -30.53125 18.296875 -25.46875 Z M 53.40625 -25.46875 C 53.40625 -17.207031 51.222656 -10.742188 46.859375 -6.078125 C 42.503906 -1.421875 36.4375 0.90625 28.65625 0.90625 C 23.78125 0.90625 19.476562 -0.160156 15.75 -2.296875 C 12.03125 -4.429688 9.171875 -7.492188 7.171875 -11.484375 C 5.171875 -15.484375 4.171875 -20.144531 4.171875 -25.46875 C 4.171875 -33.769531 6.335938 -40.21875 10.671875 -44.8125 C 15.003906 -49.414062 21.085938 -51.71875 28.921875 -51.71875 C 33.796875 -51.71875 38.09375 -50.65625 41.8125 -48.53125 C 45.539062 -46.414062 48.40625 -43.375 50.40625 -39.40625 C 52.40625 -35.445312 53.40625 -30.800781 53.40625 -25.46875 Z M 53.40625 -25.46875 "/></g></g></g></svg>