<svg xmlns="http://www.w3.org/2000/svg" viewBox="0 0 2528.45 2469.85"><defs><pattern id="a" width="2636.99" height="2118.11" data-name="Unnamed Pattern" patternTransform="rotate(-177.28 -458.657 1436.162)" patternUnits="userSpaceOnUse"><path fill="none" d="M0 0h2636.99v2118.11H0z"/><path fill="#66ffc5" d="M2107.74 411q-27.07-23.52-53-48.29C1922 235.83 1340.43-278.3 1099.2 199.49 826 740.58 642.22 765.25 420.42 793.82s-549.45 310.85-104 816.1 1036.37 537.08 1288.41 473.7c382-96 1048.26-384.33 969.46-878.58-66.9-419.6-375-714.55-466.55-794.04Z" class="colorff7f66 svgShape"/><circle cx="728.95" cy="466.47" r="115.88" fill="#66ffc5" class="colorff7f66 svgShape"/><circle cx="526.08" cy="603.54" r="53.11" fill="none" stroke="#66ffc5" stroke-miterlimit="10" stroke-width="6" class="colorStrokeff7f66 svgStroke"/><path fill="none" stroke="#000000" stroke-miterlimit="10" stroke-width="6" d="M1962.56 185.91S3236.84 1111 2274.43 1928.14" class="colorStroke000 svgStroke"/><circle cx="2164.01" cy="2057.56" r="60.54" fill="#000000" class="color000 svgShape"/><circle cx="2346.38" cy="2006.6" r="33.71" fill="#000000" class="color000 svgShape"/><path fill="none" stroke="#000000" stroke-miterlimit="10" stroke-width="6" d="M1586.72 1808.17h571.8M1583.72 1387.11h571.8M1583.72 1018.58h571.8" class="colorStroke000 svgStroke"/><path fill="#ffffff" stroke="#000000" stroke-miterlimit="10" stroke-width="6" d="M1434.92 1060.13s7-40.66 0-74 41-35.77 45.86-33.94-5.2 10.71-2.75 15.9 24.86 18.65 33.83 3.67 9.27-26.6 13.55-33 43.72 28.13 42.2 38.22-31.2 61-52.29 81c-16.43 15.57-30.87 37.3-31.79 37.3s-48.61-35.15-48.61-35.15Z" class="colorfff svgShape colorStroke000 svgStroke"/><path d="M1325.44 1896.25c-46.3 60.68-230.52 3.42-461.34-131.33-99.1-57.82-206.72-129.92-315.73-213.1-158.84-121.19-294.24-245.82-390.76-354.91C33.55 1056.68-26.27 942.08 11 893.3c41.93-55 197-13.17 397.32 95.29 115.82 62.7 246.78 147.68 379.75 249.14C929 1345.27 1051.45 1455.5 1144.7 1555.2c146.9 157.07 221.22 288 180.74 341.05Z" fill="#000000" class="color000 svgShape"/><path fill="#ffffff" stroke="#000000" stroke-miterlimit="10" stroke-width="6" d="M1505 615.76s-2.41 77.24-8.9 107.24c0 0-.36 5.93 10.36 12s30.78 15.9 18.1 27.49-44.19 14-46.16 21-27.16 76.43-73.25 65.08-68.4-36.53-68.4-36.53-83.29 111.46-109 123.47-128.65-72.21-91-169.48l102.14-57.5 139.57-118Z" class="colorfff svgShape colorStroke000 svgStroke"/><ellipse cx="1470.95" cy="711.16" fill="#1ed891" rx="10.12" ry="7.29" transform="rotate(-84.27 1470.945 711.158)" class="color191919 svgShape"/><path fill="none" stroke="#000000" stroke-linecap="round" stroke-miterlimit="10" stroke-width="6" d="M1358.15 678.37s-4.43-11.59-3.34-18.75M1365.25 656.08c-.08-.71-14.66-.66-20.48 14.53" class="colorStroke000 svgStroke"/><path d="M1337.19 807.74s-19.45-16.49-31.43-30.56a3.64 3.64 0 0 0-6.39 2.69c1.72 20.21 1.36 57.85-17.37 97.56 0 0 44.26-54.71 55.19-69.69Z" fill="#000000" class="color000 svgShape"/><path fill="none" stroke="#000000" stroke-linecap="round" stroke-miterlimit="10" stroke-width="6" d="M1489 685s-5.83-15.2-26.48-14.78" class="colorStroke000 svgStroke"/><path fill="#ffffff" stroke="#000000" stroke-miterlimit="10" stroke-width="6" d="M1467.62 807.22s-25.55-9-61.32-10.8" class="colorfff svgShape colorStroke000 svgStroke"/><path d="M1482.59 626.79c23.78 12.18 51.48-7.51 48.67-34.09-1.18-11.16-5.13-22.86-15.48-29.05 0 0-18.35-11.46-35.77-3.44-14.47 6.66 12.38-55.87-34.4-62s-51.67 15.29-48.91 27.83-24.51 14.06-34.12-5.51-35.9-37.91-65.86-29.35-34.24 33.33-23.85 47.09 16.77 15.59 9.13 24.45-32.06-7.33-67.22 11.32-8.25 51.05 5.2 55.64 14.07 25.06 7.57 36.19c-9.4 16.09-5.73 52.78 22.09 49.72s71.54-15 75.82-22.62-10.09-43.72 23.85-53.81 35.18 17.89 41.88 19.33c17.51 3.77 66.42-45.56 90-32.48.44.28.92.53 1.4.78Z" fill="#000000" class="color000 svgShape"/><path fill="#effef8" d="M1523.12 1067.74c-2.52 8-97.14 426.38-378.42 482.46a329.84 329.84 0 0 1-85.69 5.49s-48.15-5.51-83.92-34.4c0 0-103.32 195.29-111 238.63C765 1702.1 657.38 1630 548.37 1546.82 389.53 1425.63 254.13 1301 157.61 1191.91a12.71 12.71 0 0 1 1.63-2.19s99.63-103.67 249-206.13c86.15-59.08 188.85-117.76 298.54-155.92 299.92-104.34 451.54-72.82 451.54-72.82s-14 104.74 82.3 172.13c0 0 41.24 103.15-35.8 298.51 0 0 153.63-121.52 213.25-194 0 0 7.69-9.63 11.18-12.84s30.55 36.23 82.37 42.19c.03.02 14.25-1.84 11.5 6.9Z" class="colorfef7ef svgShape"/><path fill="none" stroke="#000000" stroke-miterlimit="10" stroke-width="6" d="M1523.12 1067.74c-2.52 8-97.14 426.38-378.42 482.46a329.84 329.84 0 0 1-85.69 5.49s-48.15-5.51-83.92-34.4c0 0-103.32 195.29-111 238.63C765 1702.1 657.38 1630 548.37 1546.82 389.53 1425.63 254.13 1301 157.61 1191.91a12.71 12.71 0 0 1 1.63-2.19s99.63-103.67 249-206.13c86.15-59.08 188.85-117.76 298.54-155.92 299.92-104.34 451.54-72.82 451.54-72.82s-14 104.74 82.3 172.13c0 0 41.24 103.15-35.8 298.51 0 0 153.63-121.52 213.25-194 0 0 7.69-9.63 11.18-12.84s30.55 36.23 82.37 42.19c.03.02 14.25-1.84 11.5 6.9Z" class="colorStroke000 svgStroke"/><path fill="none" stroke="#66ffc5" stroke-miterlimit="10" stroke-width="6" d="M1228.24 1074.48s-427.66-77.43-633.77 488.15M1240.56 1016.62S807.91 935.73 514 1501.46M1169.59 963.55S794.25 898 436.71 1429.29M1108.34 891.71c-31.56-20.84-473.58-29.39-752.68 457.6" class="colorStrokeff7f66 svgStroke"/><path fill="none" stroke="#66ffc5" stroke-miterlimit="10" stroke-width="6" d="M1084.52 823.52c-57.57-24.22-502.32-10-842.93 457.38M1034.07 1169.62s-41.4 424.86 330.37-32M1406.3 1162.68s-372.23 586-463.95 42.86" class="colorStrokeff7f66 svgStroke"/><path fill="none" stroke="#66ffc5" stroke-miterlimit="10" stroke-width="6" d="M1450.48 1169.62c-22.13 96.38-414.57 668.67-577.48 87.58M786.43 1357.68s-96.33 124.74-123.38 214.62M807.91 1418.21S730.16 1546.06 695 1652.74M840.54 1514.24s-48.43 80.14-81.54 181M872.95 1593.66l-65.04 132.49" class="colorStrokeff7f66 svgStroke"/><path d="M976 1518.46S821 1356 822.38 1257.2c0 0-35.57 109.38 4.81 145.46 61.22 54.7 14.39 82.33 58.47 147.9 26.83 39.89 13 122.09 13 122.09ZM1204.39 1228.62s-72.6 61.91-101.35 43.57 90.34-72 137.52-164.75c0 0-20.12 89.56-36.17 121.18Z" fill="#000000" class="color000 svgShape"/><path fill="none" stroke="#effef8" stroke-miterlimit="10" stroke-width="6" d="M860.9 1753.94s78.42-194.21 115.1-235.48" class="colorStrokefef7ef svgStroke"/><path d="m1480.78 952.2 36-56.53a6.16 6.16 0 0 1 8.1-2.13l18.23 9.73a6.15 6.15 0 0 1 2.35 8.65l-40.19 65.66s-35.81 1.53-24.49-25.38Z" fill="#000000" class="color000 svgShape"/><path d="m1538.48 867.93-20.56 37.99 18.43 9.56 20.62-35.55-18.49-12z" fill="#000000" class="color000 svgShape"/><ellipse cx="1582.58" cy="802.17" fill="none" stroke="#000000" stroke-miterlimit="10" stroke-width="6" rx="48.31" ry="78.86" transform="rotate(-31.75 1582.567 802.16)" class="colorStroke000 svgStroke"/><ellipse cx="1582.58" cy="802.17" fill="none" stroke="#000000" stroke-miterlimit="10" stroke-width="6" rx="40.7" ry="71.25" transform="rotate(-31.75 1582.567 802.16)" class="colorStroke000 svgStroke"/><path fill="none" stroke="#000000" stroke-miterlimit="10" stroke-width="6" d="M1622.93 743.67s-70.89 11.59-78.25 95a42.22 42.22 0 0 0 1.87 17 28.92 28.92 0 0 0 5.47 10" class="colorStroke000 svgStroke"/><path fill="none" stroke="#000000" stroke-miterlimit="10" stroke-width="6" d="M1615.62 731s34 3.78 35.58 44.72-28 82.08-56.68 97.22c0 0-36.18 17.43-58.87-8M1378.14 1074.48s28.82 57.15 100.43 72.28M1111.82 750.65s-34.92 142.28 116.42 207.4" class="colorStroke000 svgStroke"/><ellipse cx="1506.96" cy="713.97" fill="#ffffff" stroke="#000000" stroke-miterlimit="10" stroke-width="6" rx="15.54" ry="28.31" transform="rotate(-20.51 1507.169 714.037)" class="colorfff svgShape colorStroke000 svgStroke"/><path fill="#ffffff" stroke="#000000" stroke-miterlimit="10" stroke-width="6" d="m1391.19 654.45 104.17 47.59" class="colorfff svgShape colorStroke000 svgStroke"/><rect width="146.75" height="294.56" x="1765.71" y="668.99" rx="14" fill="#000000" class="color000 svgShape"/><rect width="127.03" height="243.97" x="1776.26" y="682.89" fill="#ffffff" rx="14" class="colorfff svgShape"/><circle cx="1839.78" cy="945.66" r="9.94" fill="#ffffff" class="colorfff svgShape"/><path fill="#ffffff" stroke="#000000" stroke-miterlimit="10" stroke-width="6" d="M1799.51 732.42h81.94v66.34h-81.94zM1881.45 732.42l-81.94 66.34M1799.51 732.42l81.94 66.34M1802.2 823.52h41.89M1850.51 823.52h26.9M1802.2 836.29h75.21" class="colorfff svgShape colorStroke000 svgStroke"/><path fill="none" stroke="#66ffc5" stroke-miterlimit="10" stroke-width="6" d="M1802.2 864.49h75.21M1820.05 874.28h39.52" class="colorStrokeff7f66 svgStroke"/><rect width="146.75" height="294.56" x="1768.71" y="1472.29" rx="14" fill="#000000" class="color000 svgShape"/><rect width="127.03" height="243.97" x="1779.26" y="1486.18" fill="#ffffff" rx="14" class="colorfff svgShape"/><circle cx="1842.78" cy="1748.96" r="9.94" fill="#ffffff" class="colorfff svgShape"/><path fill="#ffffff" stroke="#000000" stroke-miterlimit="10" stroke-width="6" d="M1810.6 1593.66h66.98v104.09h-66.98zM1877.58 1593.66l-66.98 104.1M1810.6 1593.66l66.98 104.1M1811.46 1524.34h36.34M1853.38 1524.34h23.34M1811.46 1537.1h65.26M1811.46 1549.87h36.34M1853.38 1549.87h23.34M1811.46 1562.63h65.26" class="colorfff svgShape colorStroke000 svgStroke"/><circle cx="2239.28" cy="1229.47" r="59.85" fill="#ffffff" stroke="#000000" stroke-miterlimit="10" stroke-width="6" class="colorfff svgShape colorStroke000 svgStroke"/><circle cx="2239.28" cy="798.76" r="59.85" fill="#ffffff" stroke="#000000" stroke-miterlimit="10" stroke-width="6" class="colorfff svgShape colorStroke000 svgStroke"/><circle cx="2239.28" cy="1619.56" r="59.85" fill="#ffffff" stroke="#000000" stroke-miterlimit="10" stroke-width="6" class="colorfff svgShape colorStroke000 svgStroke"/><circle cx="2216.13" cy="799.6" r="7.57" fill="#000000" class="color000 svgShape"/><circle cx="2239.28" cy="799.6" r="7.57" fill="#000000" class="color000 svgShape"/><circle cx="2262.44" cy="799.6" r="7.57" fill="#000000" class="color000 svgShape"/><path fill="none" stroke="#66ffc5" stroke-miterlimit="10" stroke-width="6" d="m2212.39 1229.47 21.71 21.47 41.27-44.03M2272.45 1586.39l-66.33 66.35M2206.12 1586.39l66.33 66.35" class="colorStrokeff7f66 svgStroke"/><rect width="387.12" height="226.62" x="1672.62" y="1121.31" rx="14" fill="#000000" class="color000 svgShape"/><rect width="320.65" height="196.17" x="1720.84" y="1137.6" fill="#ffffff" rx="14" class="colorfff svgShape"/><circle cx="1697.32" cy="1239.41" r="9.94" fill="#ffffff" class="colorfff svgShape"/><path fill="#ffffff" stroke="#000000" stroke-miterlimit="10" stroke-width="6" d="M1759.02 1162.68h86.36v143.89h-86.36zM1845.38 1162.68l-86.36 143.88M1759.02 1162.68l86.36 143.88M1863.71 1167.24h36.35M1905.63 1167.24h23.35M1863.71 1180.01h65.27M1863.71 1192.77h36.35M1905.63 1192.77h23.35M1863.71 1205.54h65.27" class="colorfff svgShape colorStroke000 svgStroke"/><path fill="none" stroke="#66ffc5" stroke-miterlimit="10" stroke-width="6" d="M1863.71 1235.68H1932M1940.17 1235.68h72.27M1863.71 1250.86H1932M1940.17 1250.86h72.27M1863.71 1266.04H1932M1863.71 1280.9H1932M1940.17 1266.04h72.27" class="colorStrokeff7f66 svgStroke"/><path fill="#ffffff" stroke="#000000" stroke-miterlimit="10" stroke-width="6" d="M1943.17 1162.68h66.98v51.5h-66.98zM2010.15 1162.68l-66.98 51.49M1943.17 1162.68l66.98 51.49" class="colorfff svgShape colorStroke000 svgStroke"/></pattern></defs><g data-name="Layer 2" fill="#000000" class="color000 svgShape"><g data-name="Layer 1" fill="#000000" class="color000 svgShape"><path fill="#66ffc5" d="M481.88 1662.27q25.92 24.78 50.67 50.75c126.59 133 683 674.17 946.7 208.38 298.58-527.51 483.33-543.4 706.23-561.4s563.6-284.4 142.69-810.24S1318.44-35.95 1063.67 15.38C677.55 93.16-1.66 349.48 53.58 846.92c46.89 422.3 340.64 731.56 428.3 815.35Z" class="colorff7f66 svgShape"/><path fill="url(#a)" d="M1192.93 2107.59c-264.11 0-569.83-298.71-660.74-394.23a1514.199 1514.199 0 0 0-50.66-50.73C392.86 1577.88 99.9 1268.58 53.08 847c-12.95-116.65 14.07-227.4 80.31-329.2 57.48-88.35 144.77-170.59 259.45-244.44C489.83 210.9 605 155.16 735 107.7a2296.68 2296.68 0 0 1 328.56-92.81c48.77-9.83 131-19.9 246-12.12 107.77 7.3 216.84 28.46 324.2 62.88a1429 1429 0 0 1 355.35 171.13c126.58 84.21 240.79 189.4 339.44 312.65 229.55 286.78 220.27 480.07 172.06 591.73-27.34 63.34-74.9 117.92-137.53 157.84-54.61 34.8-117.67 56.64-177.57 61.48-109.44 8.84-212.8 17.19-324.5 89.57-123.25 79.86-244.42 229.71-381.34 471.6-32.16 56.8-70.32 101.18-113.43 131.9a287.31 287.31 0 0 1-133 51.61 329.35 329.35 0 0 1-40.31 2.43Zm-710.7-445.68c17.35 16.58 34.4 33.66 50.68 50.77 95.5 100.32 428.21 425.07 700.21 391.49a286.38 286.38 0 0 0 132.55-51.43c43-30.64 81.06-74.91 113.14-131.59 137-242 258.27-392 381.66-471.94 111.92-72.52 215.4-80.88 325-89.73 59.74-4.83 122.64-26.61 177.11-61.33 62.46-39.81 109.89-94.23 137.16-157.39 48.1-111.4 57.31-304.32-171.93-590.7-98.59-123.17-212.72-228.29-339.21-312.45a1428.3 1428.3 0 0 0-355.11-171c-107.28-34.4-216.27-55.54-324-62.83-63.4-4.29-157.5-5.68-245.74 12.1a2295.65 2295.65 0 0 0-328.42 92.77c-130 47.43-245 103.14-342 165.56-114.5 73.79-201.7 155.9-259.11 244.13-66.1 101.6-93.07 212.13-80.14 328.52 46.78 421.28 339.53 730.35 428.15 815.05Z"/><path d="M296.88 1538.4a3 3 0 0 1-2.43-1.23c-103.78-142.87-181.34-285.72-230.54-424.58C24.52 1001.42 3.12 892.55.31 789c-1.39-50.9 1.27-128 21.83-206.29C34.46 535.76 47.21 511 47.75 510a3 3 0 0 1 5.32 2.77c-.13.25-13.06 25.37-25.22 71.81C16.62 627.44 3.78 697.74 6.32 789.27c2.85 102.9 24.17 211.12 63.36 321.64 49 138.21 126.27 280.44 229.62 422.73a3 3 0 0 1-.66 4.19 3 3 0 0 1-1.76.57Z" fill="#000000" class="color000 svgShape"/><path fill="#ffffff" d="M1073.54 478.08h791.49v573.54h-791.49z" class="colorfff svgShape"/><path d="M1868 1054.62h-797.46V475.08H1868Zm-791.49-6H1862V481.08h-785.46Z" fill="#000000" class="color000 svgShape"/><path d="m1163.24 766.87-4.43-4.04L1252 660.57l49.57 58.04L1416.25 581l89.1 68.35 112.37-68.87 3.14 5.11-115.89 71.03-87.8-67.36-115.54 138.65-49.78-58.28-88.61 97.24z" fill="#000000" class="color000 svgShape"/><path d="m1655.41 560.9-38.15 51.99-.67-28.2-24.82-13.39 63.64-10.4z" fill="#000000" class="color000 svgShape"/><path fill="#66ffc5" d="m1178.56 863.44-4.39-4.1a171.05 171.05 0 0 1 43.23-31.6c34.71-17.78 69.62-19.23 101-4.19 32.21 15.45 73.82 17.35 117.17 5.34 35.08-9.72 68-28.08 81.79-45.69s33.4-32.15 53.42-39.58c22.74-8.44 44.14-7.59 61.89 2.48 17.43 9.87 42.63-2.45 60.7-14.52a260.88 260.88 0 0 0 36.25-29.78l4.28 4.2a261.07 261.07 0 0 1-37.12 30.52c-28.36 19-50.92 23.94-67.06 14.79-20.42-11.57-42.19-7.51-56.85-2.06-19 7-37.53 20.78-50.79 37.66-14.56 18.54-48.69 37.73-84.91 47.77-44.74 12.39-87.84 10.36-121.37-5.72-30-14.38-62.09-13-95.48 4a167.66 167.66 0 0 0-41.76 30.48Z" class="colorff7f66 svgShape"/><path d="M1545.95 882.39h35.54v94.91h-35.54zM1593.21 857.76h35.54v119.55h-35.54zM1640.46 837.76H1676V977.3h-35.54zM1687.72 787.48h35.54v189.83h-35.54z" fill="#000000" class="color000 svgShape"/><rect width="186.35" height="186.35" x="1838.08" y="726.64" rx="38" transform="rotate(-15 1931.813 819.974)" fill="#000000" class="color000 svgShape"/><path d="M2077.73 1093.83a40.71 40.71 0 0 1-15.77-3.17l-58-24.27a41.06 41.06 0 0 1-22-53.65l24.28-58a41.11 41.11 0 0 1 53.64-22l58 24.27a41.06 41.06 0 0 1 22 53.65l-24.27 58a41.06 41.06 0 0 1-37.88 25.17Zm-13.45-8.71a35.11 35.11 0 0 0 45.79-18.78l24.28-58a35 35 0 0 0-18.79-45.79l-58-24.27a35 35 0 0 0-45.8 18.78l-24.27 58a35 35 0 0 0 18.78 45.79ZM455.58 969.85a40.72 40.72 0 0 1-15.72-3.17l-36.72-15.36a41.11 41.11 0 0 1-22-53.64L396.48 861a41.11 41.11 0 0 1 53.65-22l36.72 15.35a41 41 0 0 1 22 53.64l-15.35 36.68a41.25 41.25 0 0 1-37.92 25.18ZM434.4 841.78a35.22 35.22 0 0 0-13.4 2.66 34.76 34.76 0 0 0-19 18.84L386.66 900a35.12 35.12 0 0 0 18.79 45.79l36.72 15.35A35.11 35.11 0 0 0 488 942.36l15.36-36.72a35 35 0 0 0-18.79-45.79l-36.72-15.36a34.74 34.74 0 0 0-13.45-2.71Z" fill="#000000" class="color000 svgShape"/><rect width="284.08" height="186.35" x="1752.34" y="379.38" rx="38" transform="rotate(25.53 1894.365 472.556)" fill="#000000" class="color000 svgShape"/><path fill="#ffffff" d="m1943.34 854.28-7.13-27.71c-.49-1.9-.25-1.74-2.17-1.25-4.13 1-8.26 2.12-12.38 3.17-1.31.34-1.53.21-1.86-1.07l-4.74-18.42c-.35-1.35-.22-1.55 1.12-1.9 4.34-1.12 8.68-2.26 13-3.33.84-.21 1-.54.79-1.34q-2.23-8.56-4.4-17.13a29.81 29.81 0 0 1-.86-10.39 25.41 25.41 0 0 1 11.34-19 33.79 33.79 0 0 1 11.21-5.18q5.63-1.42 11.27-2.68c1.56-.35 3.18-.48 4.75-.77a1 1 0 0 1 1.35.88c.69 2.94 1.39 5.87 2.08 8.81q.74 3.17 1.45 6.35c.21.93.36 1.89.63 2.8a1 1 0 0 1-.79 1.38c-2.87.72-5.76 1.4-8.62 2.17a72.07 72.07 0 0 0-6.94 2.1c-3.34 1.27-4.71 3.9-4.08 7.42q.45 2.5 1.06 5c1 4.16 2.12 8.31 3.2 12.46.28 1.09.29 1.09 1.36.81l20.49-5.26c1.41-.36 1.49-.35 1.79 1 1 4.55 1.89 9.11 2.84 13.66.36 1.71.74 3.42 1.1 5.13.26 1.25.13 1.47-1.1 1.79l-19.27 5c-1.43.36-1.43.37-1.07 1.79q7.17 27.87 14.33 55.74c.47 1.82.43 1.88-1.42 2.36l-19.18 4.93c-1.47.37-1.62.28-2-1.18l-7.2-28ZM1891.45 420.75l-43.19 90.64 98.43-6.38-55.24-84.26z" class="colorfff svgShape"/><rect width="186.35" height="186.35" x="441.02" y="590.99" rx="38" transform="rotate(-32.64 534.184 684.147)" fill="#000000" class="color000 svgShape"/><path fill="#ffffff" d="M524.62 715.35c-1.22-2.59-2.34-5.21-3.65-7.72-6-11.46-12-22.89-18-34.35a8.07 8.07 0 0 1 1.3-9.76l39.87-44.28c2.73-3 5.31-2.68 7.25 1 2.5 4.77 5 9.55 7.46 14.32q11.53 22.1 23.07 44.19a16.14 16.14 0 0 1 1.09 11.7c-2.12 8.66-10 16.12-18.36 17.48-9.29 1.51-16.23-4.76-15.69-14.17.62-10.63 9.95-20.32 20.58-21.34l.8-.07c-.63-1.35-1.18-2.63-1.82-3.86q-7.32-14.22-14.68-28.41a10.69 10.69 0 0 0-1.07-1.74c-1.8-2.24-3.93-2.32-5.86-.21q-15.2 16.62-30.38 33.25c-2.22 2.44-2.36 6.1-.45 9.75q6.51 12.4 13 24.82c2.68 5.15 5.26 10.35 8 15.45a15.54 15.54 0 0 1 1.11 12.71c-2.89 8.89-8.75 14.9-18.08 16.73-9.17 1.8-16.16-4.55-15.75-13.89.45-10.11 9.12-19.83 19.1-21.39Z" class="colorfff svgShape"/><path fill="#effef8" d="M920.21 429.61s11.56-.6 9.27 17.08-56 79.87-56 79.87L844.35 509Z" class="colorfef7ef svgShape"/><path d="m874.08 530.43-34.49-20.8 79.27-82.95 1.19-.06a11.78 11.78 0 0 1 8.85 3.78c3.33 3.59 4.52 9.2 3.56 16.67-1 8-10.67 23.69-29.47 48-13.61 17.61-27.12 33.27-27.26 33.43Zm-25-22.07 23.74 14.32c15.82-18.49 51.95-63.09 53.67-76.38.71-5.48 0-9.55-2-11.76a5.9 5.9 0 0 0-3.18-1.81Z" fill="#000000" class="color000 svgShape"/><path fill="#effef8" d="M869.14 516.09s57-59 52.91-83.2S832.79 506 832.79 506Z" class="colorfef7ef svgShape"/><path d="m870.05 519.46-42.66-11.85 3.14-3.59c.18-.2 18.06-20.6 37.6-40.19 40.64-40.75 48.87-38.41 52-37.53 1.53.44 4.2 1.8 4.92 6.1 1.81 10.91-6.77 28.74-25.53 53-13.67 17.7-28 32.62-28.19 32.77Zm-31.83-15.07 30 8.33c16.31-17.13 53.91-61.16 50.88-79.34-.13-.78-.35-1.23-.64-1.31-1.32-.38-9.77-.41-46.07 36-14.57 14.59-28.19 29.63-34.17 36.32Z" fill="#000000" class="color000 svgShape"/><path fill="#ffffff" d="M877.52 520.1s28.68 12.12 49.68 53.32c0 0 10.09 12.11 25.44 12.11s21.41 8.49 20.2 11.72S947 614 948.6 619.86c1.71 6.26 24.1 52.11-8.21 69.34-33.26 17.74-39.45 20.73-39.45 20.73s12.93 76.34 19.39 82l69.07 15.35s-45.24 82.8-103.4 80.37-147.42-44.83-147.42-44.83l61.8-34.73s-2-75.53-6.87-117.94 84.01-170.05 84.01-170.05Z" class="colorfff svgShape"/><path d="M888.44 890.69c-.86 0-1.71 0-2.56-.05-58.11-2.42-144.92-43.38-148.59-45.12l-5.23-2.52 65.27-36.68c-.35-11.74-2.44-77.7-6.8-115.87-4.92-43 80.87-166.84 84.53-172.09l1.39-2 2.24 1c.31.13 7.69 3.3 17.72 11.67 9.1 7.6 22.24 21.17 33.29 42.71 1.41 1.56 10.34 10.81 22.94 10.81 14.35 0 20.14 6.74 21.57 8.8 1.67 2.41 2.19 4.95 1.44 7s-2.89 3.56-9.44 8.24c-4.22 3-14 10-14.66 12.7.19.64.64 1.84 1.16 3.2 4.95 13.09 20 52.92-10.91 69.41-23.87 12.73-33.78 17.86-37.53 19.77 6 34.71 13.92 71.86 17.69 77.59l72 16-1.91 3.5a239.47 239.47 0 0 1-30.3 41.68c-24.09 26.37-49.37 40.25-73.31 40.25Zm-143.25-48.15c20 9 92.12 40.07 140.94 42.11s89.29-59.84 98.61-75.34l-65.81-14.63-.57-.5c-1.44-1.26-4.8-4.2-13.08-44.77-4-19.62-7.26-38.79-7.29-39l-.38-2.22 2-1c.06 0 6.64-3.24 39.34-20.68 23.54-12.55 15.9-41.39 8.12-62-.67-1.77-1.16-3-1.39-3.91-1.45-5.31 5.8-11 17-19a79.73 79.73 0 0 0 7.24-5.51 5.68 5.68 0 0 0-1.51-2.41c-1.5-1.56-6-5.21-15.81-5.21-16.56 0-27.3-12.65-27.75-13.19l-.21-.26-.16-.3c-17-33.28-39.08-47.13-46-50.84-5.3 7.74-24.1 35.56-42.25 66.82-27.93 48.1-41.69 82.35-39.78 99 4.81 42.05 6.86 117.44 6.89 118.2v1.81ZM970 596.35Z" fill="#000000" class="color000 svgShape"/><path fill="#ffffff" d="M525.53 1106.15s-42.41 69.06-42.41 95.72 15.75 70.88 135.1 158.12S763 1456.92 763 1456.92l-7.27-67.85s-132.07-146.26-129-161 16.36-35.92 16.36-35.92Z" class="colorfff svgShape"/><path d="m766.52 1461.47-4.57-1.74c-1.06-.4-27.18-10.83-145.5-97.32-122.2-89.32-136.33-134.4-136.33-160.54 0-27.19 41.1-94.44 42.85-97.29l1.71-2.78 122.41 89.6-1.49 2.37c-.13.21-13.07 20.92-16 34.93-.11 2.08 4.1 14.52 63.48 84.33 32 37.61 64.53 73.67 64.85 74l.66.72Zm-240.11-351c-3.41 5.7-11.46 19.43-19.43 34.92-13.65 26.51-20.86 46-20.86 56.45 0 51.85 76.4 113.69 133.87 155.7 91.78 67.09 127.9 88.2 139.47 94.29l-6.59-61.5c-4.81-5.34-35.28-39.27-65.07-74.32-66.22-77.92-64.69-85.37-64-88.55 2.52-12.28 11.69-28.47 15.3-34.52Z" fill="#000000" class="color000 svgShape"/><path fill="#ffffff" d="M1298 1006.79s30.29 21 42.41 9.29 71.48-222.54 72.09-231.63-15.42-19.6-14.34-49.48c.93-25.83-25.31-41.46-23.69-47.12s18.58-5.38 27.19 6.46 12.12 10.24 12.12 10.24-2.16-65.7-1.35-83.74c.75-16.71 11-15.35 14-9.43s11 71.9 11 71.9 26.12-3 50.35 17c0 0 7.81 4 5.66 20.46s-14.27 54.66-22.62 69.2c0 0 5.66 340.94-85.62 393.42s-227.8-88.89-227.8-88.89Z" class="colorfff svgShape"/><path d="M1339.67 1198a131 131 0 0 1-29.23-3.5c-23-5.27-48.23-16.51-75-33.4-45.32-28.64-79.88-64.22-80.22-64.57l-2.58-2.67 145.37-90.65 1.62 1.12c7.87 5.45 30.15 17.79 38.62 9.6 3.56-3.44 15.82-35.56 39.54-115.39 17.05-57.38 31.35-110.2 31.65-114.28.15-2.39-1.63-5.56-3.89-9.58-4.45-7.91-11.18-19.88-10.46-39.8.57-15.72-10-27.68-16.92-35.59-4.61-5.25-7.67-8.72-6.66-12.25.8-2.79 3.49-4.79 7.4-5.48 7.53-1.34 18.57 2 25.11 11a41.39 41.39 0 0 0 6.54 7.44c-.48-15.4-1.88-64-1.19-79.32.57-12.95 6.58-15.61 9.13-16.15 4.07-.87 8.51 1.45 10.55 5.52 2.83 5.68 9.06 54.56 11 70.08a76.82 76.82 0 0 1 49.46 17.67c1.77 1.13 9 6.84 6.88 23.3-2.11 16.15-13.77 53.71-22.58 69.58.11 9 .78 90.41-8.61 176.59-13.37 122.82-39.8 196.39-78.53 218.66-13.95 8.07-29.67 12.07-47 12.07Zm-177.47-103c8.83 8.71 39 37.33 76.57 61.1 26.14 16.5 50.72 27.47 73.06 32.58 27.57 6.3 51.75 3.63 71.88-7.94 25.42-14.62 59.17-63.63 75.56-214.11 9.86-90.56 8.58-175.81 8.56-176.66v-.83l.41-.71c8.33-14.52 20.18-52.39 22.24-68.1 1.81-13.8-3.88-17.3-4.12-17.44l-.28-.15-.18-.16c-22.89-18.82-47.87-16.33-48.11-16.3l-3 .32-.36-2.94c-3.89-31.71-9-67.35-10.75-70.91a3.89 3.89 0 0 0-3.93-2.35c-1.92.41-4.07 3.4-4.39 10.56-.79 17.72 1.32 82.85 1.35 83.51l.06 2-1.8.83c-2.15 1-7 .85-15.8-11.19-5.65-7.76-14.79-9.41-19.22-8.62a4.69 4.69 0 0 0-2.57 1.06c.45 1.28 3.12 4.32 5.3 6.79 7.59 8.63 19.06 21.67 18.41 39.77s5.32 28.88 9.69 36.65c2.75 4.89 4.92 8.75 4.64 12.92-.35 5.3-16.42 63.58-31.85 115.48-21.66 72.91-35.51 112.65-41.15 118.11-6 5.76-15.72 5.88-29 .36a105 105 0 0 1-15.55-8.24Z" fill="#000000" class="color000 svgShape"/><path fill="#effef8" d="m1153.75 2266.43 7.84 83.97-74.01 6.34-27.88-134.66 94.05 44.35z" class="colorfef7ef svgShape"/><path d="m1085.18 2360-29.64-143.15 101 47.64 8.27 88.7Zm-21.33-132.6 26.15 126.12 68.34-5.85-7.4-79.26Z" fill="#000000" class="color000 svgShape"/><path fill="#effef8" d="m842.91 2266.86 7.84 83.97-74.01 6.33-27.88-134.65 94.05 44.35z" class="colorfef7ef svgShape"/><path d="m774.34 2360.38-29.63-143.15 101 47.64 8.28 88.69ZM753 2227.78 779.14 2354l68.34-5.85-7.39-79.26ZM1081 2341.06s54.79-4.7 76.36-29.24c0 0 99.07 72.66 122.63 85 0 0 28.33 18.79 15.64 48.58-40.65 2.29-213.93.59-213.93.59s.93-82.99-.7-104.93Z" fill="#000000" class="color000 svgShape"/><path d="m1155.47 2320.63-1.08-8.43a274.18 274.18 0 0 1-1.7-40.19c1.06-28.53 7.6-45.62 19.43-50.79 9.35-4.09 14.27-1.56 16.75 1.29 9.57 11-1.79 46.67-28.95 90.88Zm25.36-95.55a17 17 0 0 0-6.3 1.63c-17.09 7.48-17.14 51.31-15.11 75.84 23.84-40.75 30.8-69.35 24.92-76.1a4.44 4.44 0 0 0-3.51-1.37Z" fill="#000000" class="color000 svgShape"/><path d="M1204.43 2325.6c-18.6 0-44.31-9.52-48.13-11l-4.44-1.7 3.44-3.28c1.18-1.13 29.26-27.62 50.11-23 7.55 1.68 13.14 7.07 16.63 16 3.1 8 2.64 14.08-1.38 18.13-3.46 3.55-9.36 4.85-16.23 4.85Zm-41.29-14.88c18.68 6.52 46.26 12.92 53.26 5.87 2.2-2.22 2.21-6.16 0-11.73-2.75-7.07-6.78-11.1-12.33-12.34-13.75-3.07-32.96 11.48-40.93 18.2ZM770.17 2341.49s54.79-4.7 76.36-29.25c0 0 99.07 72.67 122.64 85 0 0 28.32 18.78 15.64 48.58-40.66 2.29-213.94.16-213.94.16s.92-82.6-.7-104.49Z" fill="#000000" class="color000 svgShape"/><path d="m844.64 2321.06-1.08-8.43a271.82 271.82 0 0 1-1.71-40.19c1.06-28.53 7.6-45.62 19.43-50.79 9.35-4.09 14.27-1.56 16.75 1.29 9.57 11-1.79 46.67-28.94 90.87Zm25.36-95.55a17 17 0 0 0-6.3 1.63c-17.1 7.48-17.14 51.31-15.1 75.84 23.83-40.75 30.79-69.35 24.92-76.1a4.47 4.47 0 0 0-3.52-1.37Z" fill="#000000" class="color000 svgShape"/><path d="M893.59 2326c-18.59 0-44.3-9.52-48.13-11l-4.44-1.7 3.44-3.28c1.19-1.13 29.27-27.62 50.11-23 7.55 1.68 13.14 7.07 16.63 16 3.11 8 2.64 14.08-1.38 18.13-3.46 3.58-9.36 4.85-16.23 4.85Zm-41.29-14.88c18.68 6.52 46.27 12.92 53.27 5.87 2.19-2.22 2.21-6.16 0-11.74-2.76-7.06-6.79-11.09-12.34-12.33-13.77-3.04-32.96 11.5-40.93 18.23Z" fill="#000000" class="color000 svgShape"/><path fill="#66ffc5" d="M1166.29 1818.56c-11.11 80 0 447.87 0 447.87-25.91 10-118.7 12-118.7 12-21.36-72-69-353.91-71.48-417.89s-60-251.93-60-251.93-16.44 192-24.24 241.94-43.34 437.87-43.34 437.87H745.84s-23.63-253.93-33.49-329.91 11.5-108 0-243.93c-4.47-52.88-7.21-131.49-8.88-207.79-2.62-119.88-2.62-234.09-2.62-234.09l415.76-66s60.8 531.87 49.68 611.86Z" class="colorff7f66 svgShape"/><path d="M851.28 2291.42H743.1l-.25-2.72c-.24-2.54-23.73-254.74-33.47-329.8-4.56-35.09-2.48-61.24-.08-91.51 2.8-35.23 6.28-79.08.06-152.55-3.89-46-6.88-116-8.89-208-2.59-118.53-2.62-233-2.62-234.15v-2.56l421.38-66.88.36 3.12c2.48 21.73 60.72 533.14 49.67 612.59-11 78.81-.08 443.69 0 447.37l.07 2.12-2 .77c-26.1 10.06-115.9 12.11-119.71 12.19h-2.29l-.65-2.19c-20.86-70.27-69.05-352-71.61-418.62-2-52.35-41.77-190.35-55.35-236.17-4.11 46.86-16.49 185.39-22.91 226.52-7.71 49.31-43 433.81-43.32 437.68Zm-102.71-6h97.24c3.19-34.77 35.72-388 43.11-435.34 7.7-49.31 24.06-239.81 24.22-241.73l1.32-15.44 4.54 14.82c2.35 7.69 57.65 189.06 60.1 252.7 2.53 65.74 49.61 341.41 70.73 414.94 14-.39 88.31-2.78 113.4-11-.89-30.64-10.49-370.09.09-446.19l3 .42-3-.42c10.5-75.53-44.37-564.09-49.34-608l-410.13 65.09c0 17.59.24 122.82 2.62 231.46 2 91.89 5 161.74 8.87 207.61 6.26 74 2.76 118.08-.06 153.53-2.38 29.94-4.43 55.8.05 90.27 9.21 70.93 30.67 299.65 33.24 327.28Z" fill="#000000" class="color000 svgShape"/><path d="M864.65 1292.88s-74.45 30.76-109.57 39.12-54.23 72.38-54.23 72.38l.1-96.55s153.1-22.05 163.7-14.95ZM866.68 1417.52s42.32 135.87 48.9 179.86l-31.21 318s-27.24-114.65-17.69-200.14c7.46-66.82 0-297.72 0-297.72ZM890.55 528.19s-15.86 7.67-17.88 25-3.63 40.39 0 52.1-14.13-11.71-27.87-2-8.24 39.37-3.23 33.11c.81-1-11.1 79-57.35 94.92-19.86 6.85-44-122.38-42.41-130.86s85.22-105 135.71-80.38Z" fill="#000000" class="color000 svgShape"/><path fill="#effef8" d="M752.25 660.06s81.65-68.67 125.27-140c0 0-10.91-35.54-74.52-25.24s-87.68 81.42-75.73 118.74c8.34 26.1 24.98 46.5 24.98 46.5Z" class="colorfef7ef svgShape"/><path d="m751.85 664.31-1.93-2.31c-.69-.85-17.09-21.14-25.5-47.43-7.1-22.17-1.74-53.58 13.33-78.16 14.92-24.32 37.92-40.11 64.77-44.46 27.19-4.4 48.5-1.28 63.33 9.28 11.38 8.09 14.41 17.64 14.54 18l.39 1.3-.7 1.15c-43.37 70.88-125.08 140-125.9 140.68ZM824.56 496a132.26 132.26 0 0 0-21.08 1.81c-32.16 5.21-50.71 25.54-60.61 41.68-14.22 23.17-19.34 52.59-12.74 73.19 6.43 20.07 18 36.92 22.57 43 13.66-11.84 82.62-73.09 121.48-135.91a35.25 35.25 0 0 0-12.16-14c-9.34-6.46-22.08-9.77-37.46-9.77ZM900.94 707.31S878.35 718 870 719.63c-5.83 1.1-11.59 12.32 14.81 28.6s27.76 21.92 27.76 21.92Z" fill="#000000" class="color000 svgShape"/><path fill="#effef8" d="M748.48 823.83s33.32 25.44 78.15 29.08 99.56 2.42 162.77-58.16c0 0 118.34 39.28 174.07 93S1311.3 997.1 1311.3 997.1s-6.06 70.27-95.73 174.48l-77.57-55.74 15.75 135.71s-82.59 36.35-231.53 38.77-228.9 18.17-228.9 18.17l-25.45-126-13.33 26.66s-99.35-31.51-152.67-111.48c0 0 55.74-106.62 78.76-141.76s90.91-110.27 167.85-132.08Z" class="colorfef7ef svgShape"/><path d="m691 1312-24.31-120.39-10.58 21.15-2.44-.77c-.26-.08-25.51-8.18-56.92-26-29-16.47-69.48-44.87-97.34-86.67l-1-1.48.82-1.58c.56-1.06 56.07-107.16 78.91-142 11.35-17.32 34.17-45.23 64.22-71.65 24.37-21.42 62.42-49.52 105.29-61.67l1.44-.41 1.2.91c.32.25 33.2 25 76.57 28.48 44.89 3.64 98 2.51 160.45-57.34l1.31-1.25 1.71.57c1.19.4 119.63 40.12 175.21 93.63 54.85 52.82 146.38 108.44 147.3 109l1.59 1-.16 1.85c-.06.74-1.7 18.39-14.45 49.06-11.69 28.12-35.41 73-82 127.12l-1.8 2.09-74.26-53.38L1157 1253.4l-2 .89c-.83.37-84.86 36.62-232.69 39-146.89 2.39-227.58 18-228.37 18.12Zm-21.88-138.67L695.7 1305c15.79-2.79 94.62-15.54 226.5-17.69 76.56-1.25 135.12-11.65 170.76-20.16 31.78-7.59 51.48-15.06 57.58-17.52l-16.28-140.2 80.83 58.09c25.16-29.49 58.63-74.14 79-123 10.21-24.46 13.19-40.64 13.95-45.84-12.75-7.84-95.46-59.46-146.69-108.78-51-49.12-156.56-86.63-171.24-91.69-28.47 27-57.35 44.2-88.24 52.63-27.92 7.63-53.84 6.86-75.52 5.1-40.91-3.32-72-24.09-78.5-28.78-41.22 12.06-77.92 39.22-101.56 60-29.6 26-52 53.44-63.16 70.42-21.15 32.29-70.76 126.55-77.78 139.93 47.72 70.29 132.31 102.58 147.67 108Z" fill="#000000" class="color000 svgShape"/><path d="M644.48 1051.62s19.44 95.9 25.31 124.94l-15.22 32.58s-1.21-44.43-14.13-60.59 4.04-96.93 4.04-96.93ZM1003 1011.68s78.36 76.73 133.29 99.76l7.83 67.47s-20.76-32.34-54.69-46.07-52.52-69.47-86.43-121.16ZM547.84 1148.47s56.09 41.36 89.29 54c0 0-14.42 21.08-9.39 30 0 0-12.55-21.55-30.12-29.43s-49.78-54.57-49.78-54.57ZM1080 1384.13c49-27.55 48-81.83 48-81.83l-2.7-17.39s-40.41 96.61-45.27 99.22" fill="#000000" class="color000 svgShape"/><path d="M1110.64 2249.1a3 3 0 0 1-3-2.5c-15.13-90.26 1.5-253.33 11.44-350.76 3-29.64 5.41-53.06 6-65.69 2.41-52.94-61.49-552.24-62.14-557.28a3 3 0 1 1 6-.76c2.63 20.58 64.61 504.85 62.17 558.32-.58 12.79-3 36.28-6 66-9.91 97.13-26.48 259.69-11.49 349.15a3 3 0 0 1-2.46 3.46 2.89 2.89 0 0 1-.52.06Z" fill="#000000" class="color000 svgShape"/><path fill="#ffffff" d="m771.4 2285.47-22.88.13s-24.52-251.11-34.38-327.09 11.51-108 0-243.93c-4.47-52.88-7.21-131.49-8.87-207.79 9.1 57.36 38.18 254.78 28.59 379.18-11.3 146.8 37.54 399.5 37.54 399.5Z" class="colorfff svgShape"/><ellipse cx="667.66" cy="950.95" rx="18.78" ry="8.02" transform="rotate(-30 667.657 950.938)" fill="#000000" class="color000 svgShape"/><ellipse cx="1144.1" cy="970.44" rx="25.85" ry="8.48" transform="rotate(-30 1144.092 970.438)" fill="#000000" class="color000 svgShape"/><ellipse cx="858.89" cy="1190.68" rx="6.84" ry="17.13" transform="rotate(-80.62 858.966 1190.701)" fill="#000000" class="color000 svgShape"/><ellipse cx="682.73" cy="1020.16" rx="6.84" ry="17.13" transform="rotate(-80.62 682.79 1020.18)" fill="#000000" class="color000 svgShape"/><ellipse cx="552.95" cy="1093.5" rx="6.84" ry="17.13" transform="rotate(-80.62 553.008 1093.52)" fill="#000000" class="color000 svgShape"/><ellipse cx="1228.51" cy="1093.5" rx="25.85" ry="8.48" transform="rotate(-30 1228.499 1093.495)" fill="#000000" class="color000 svgShape"/><ellipse cx="993.08" cy="856.01" rx="25.85" ry="8.48" transform="matrix(.87 -.5 .5 .87 -294.96 611.22)" fill="#000000" class="color000 svgShape"/><ellipse cx="1077.72" cy="1220.15" rx="8.48" ry="25.85" transform="rotate(-47.57 1077.59 1220.09)" fill="#000000" class="color000 svgShape"/><ellipse cx="1263.71" cy="1009.81" rx="8.48" ry="25.85" transform="rotate(-47.57 1263.578 1009.773)" fill="#000000" class="color000 svgShape"/><ellipse cx="1109.69" cy="887.7" rx="8.48" ry="25.85" transform="rotate(-47.57 1109.567 887.661)" fill="#000000" class="color000 svgShape"/><ellipse cx="943.71" cy="1248.98" rx="8.48" ry="25.85" transform="rotate(-74.16 943.69 1248.974)" fill="#000000" class="color000 svgShape"/><ellipse cx="596.55" cy="1115.29" rx="25.85" ry="8.48" transform="matrix(.87 -.5 .5 .87 -477.72 447.7)" fill="#000000" class="color000 svgShape"/><ellipse cx="827.03" cy="1036.68" rx="25.85" ry="8.48" transform="rotate(-23.03 827.058 1036.69)" fill="#000000" class="color000 svgShape"/><ellipse cx="890.55" cy="915.21" rx="25.85" ry="8.48" transform="rotate(-23.03 890.58 915.228)" fill="#000000" class="color000 svgShape"/><ellipse cx="812.56" cy="1247.83" rx="31.55" ry="12.16" transform="rotate(-23.03 812.593 1247.846)" fill="#000000" class="color000 svgShape"/><ellipse cx="1027" cy="1182.22" rx="25.85" ry="8.48" transform="rotate(-60 1027.003 1182.219)" fill="#000000" class="color000 svgShape"/><ellipse cx="699.67" cy="1106.66" rx="7.96" ry="19.12" transform="rotate(-32.64 699.652 1106.65)" fill="#000000" class="color000 svgShape"/><ellipse cx="815.24" cy="1122.95" rx="8.6" ry="28.35" transform="rotate(-32.64 815.214 1122.93)" fill="#000000" class="color000 svgShape"/><ellipse cx="972.6" cy="1062.94" rx="8.6" ry="28.35" transform="rotate(-32.64 972.559 1062.93)" fill="#000000" class="color000 svgShape"/><ellipse cx="746.95" cy="1173.82" rx="7.96" ry="19.12" transform="rotate(-32.64 746.923 1173.796)" fill="#000000" class="color000 svgShape"/><ellipse cx="592.48" cy="1028.34" rx="7.96" ry="19.12" transform="rotate(-32.64 592.469 1028.323)" fill="#000000" class="color000 svgShape"/><ellipse cx="1061.24" cy="930.35" rx="7.96" ry="19.12" transform="rotate(-32.64 1061.203 930.326)" fill="#000000" class="color000 svgShape"/><ellipse cx="1065.42" cy="1003.49" rx="7.96" ry="19.12" transform="rotate(-32.64 1065.39 1003.47)" fill="#000000" class="color000 svgShape"/><ellipse cx="900.79" cy="1110.91" rx="7.96" ry="19.12" transform="rotate(-57.77 900.776 1110.91)" fill="#000000" class="color000 svgShape"/><ellipse cx="966.24" cy="1134.78" rx="13.78" ry="5.26" transform="rotate(-74.16 966.22 1134.767)" fill="#000000" class="color000 svgShape"/><ellipse cx="713.25" cy="881.94" rx="13.78" ry="5.26" transform="rotate(-74.3 713.108 883.85)" fill="#000000" class="color000 svgShape"/><ellipse cx="1161.02" cy="1023.64" rx="13.78" ry="5.26" transform="rotate(-74.16 1161.004 1023.635)" fill="#000000" class="color000 svgShape"/><ellipse cx="1144.1" cy="1078.63" rx="7.96" ry="19.12" transform="rotate(-32.64 1144.067 1078.606)" fill="#000000" class="color000 svgShape"/><ellipse cx="1205.72" cy="995.01" rx="7.96" ry="19.12" transform="rotate(-32.64 1205.686 994.99)" fill="#000000" class="color000 svgShape"/><ellipse cx="759.25" cy="1020.16" rx="33.05" ry="8.48" transform="rotate(-50.16 759.282 1020.18)" fill="#000000" class="color000 svgShape"/><ellipse cx="719.55" cy="1255.95" rx="16.53" ry="8.48" transform="rotate(-50.16 719.59 1255.98)" fill="#000000" class="color000 svgShape"/><ellipse cx="960.47" cy="954.38" rx="34.61" ry="13.6" transform="rotate(-50.16 960.508 954.399)" fill="#000000" class="color000 svgShape"/><ellipse cx="781.87" cy="901.33" rx="33.05" ry="8.48" transform="rotate(-50.16 781.905 901.352)" fill="#000000" class="color000 svgShape"/><path d="M1321.66 1021.78s31.77 8 46.58-10.1c12.5-15.3 3.11-81.33 3.11-81.33s-27.93 70.84-49.69 91.43ZM552.95 2463.85h1089.53v6H552.95zM1662.2 2463.85h100.24v6H1662.2z" fill="#000000" class="color000 svgShape"/><path fill="#ffffff" d="M771.4 2426.96h210.46v6H771.4zM1080.81 2426.96h210.46v6h-210.46z" class="colorfff svgShape"/><ellipse cx="914.19" cy="580.46" rx="4.23" ry="5.52" transform="rotate(-25.84 914.2 580.454)" fill="#000000" class="color000 svgShape"/><path d="M861.52 628.53a3 3 0 0 1-1.73-.55c-.92-.64-9.08-6.49-12-12.31a3 3 0 0 1 5.36-2.7c1.92 3.81 7.94 8.59 10.11 10.11a3 3 0 0 1-1.73 5.45Z" fill="#000000" class="color000 svgShape"/><path d="M849.06 629.12a3 3 0 0 1-2.9-2.24c-3.13-12 3.76-20 7.59-22a3.25 3.25 0 0 1 4.17.55 3 3 0 0 1-.3 4.23 2.89 2.89 0 0 1-1.25.65c-1.12.8-6.91 5.52-4.41 15.07a3 3 0 0 1-2.14 3.66 2.89 2.89 0 0 1-.76.08Zm4.33-19.77.25.25Zm0 0Zm0 0ZM894.52 561.53a3 3 0 0 1-2-5.23c9.16-8.31 19.48-5.91 23-3.45a3.22 3.22 0 0 1 1.48 3.95 3 3 0 0 1-3.89 1.69 2.9 2.9 0 0 1-1.15-.81c-1.23-.62-8.08-3.57-15.4 3.07a3 3 0 0 1-2.04.78Zm16.87-6.92a2.53 2.53 0 0 0-.12.36 2.53 2.53 0 0 1 .12-.36Zm0 0Zm0 0ZM926 653.51a41.29 41.29 0 0 1-26.28-8.82 3 3 0 1 1 3.74-4.69c17 13.55 39.3 4.52 39.52 4.42a3 3 0 0 1 2.3 5.54 54.38 54.38 0 0 1-19.28 3.55Z" fill="#000000" class="color000 svgShape"/></g></g></svg>